unsigned char playing_god_multi_mid[] = {
  0x4d, 0x54, 0x68, 0x64, 0x00, 0x00, 0x00, 0x06, 0x00, 0x01, 0x00, 0x03,
  0x01, 0xe0, 0x4d, 0x54, 0x72, 0x6b, 0x00, 0x00, 0x00, 0x2b, 0x00, 0xff,
  0x58, 0x04, 0x04, 0x02, 0x18, 0x08, 0x00, 0xff, 0x51, 0x03, 0x06, 0xbb,
  0x58, 0x00, 0xff, 0x03, 0x0b, 0x50, 0x6c, 0x61, 0x79, 0x69, 0x6e, 0x67,
  0x20, 0x47, 0x6f, 0x64, 0x8c, 0x98, 0x00, 0xff, 0x51, 0x03, 0x06, 0xbb,
  0x58, 0x6c, 0xff, 0x2f, 0x00, 0x4d, 0x54, 0x72, 0x6b, 0x00, 0x00, 0x1e,
  0xdf, 0x00, 0xff, 0x03, 0x0c, 0x4e, 0x79, 0x6c, 0x6f, 0x6e, 0x20, 0x47,
  0x75, 0x69, 0x74, 0x61, 0x72, 0x00, 0xff, 0x59, 0x02, 0x00, 0x00, 0x00,
  0xb0, 0x06, 0x06, 0x00, 0xb0, 0x64, 0x00, 0x00, 0xb0, 0x65, 0x00, 0x00,
  0xc0, 0x18, 0x00, 0x90, 0x37, 0x4c, 0x00, 0x90, 0x28, 0x4c, 0x83, 0x5f,
  0x80, 0x37, 0x00, 0x00, 0x80, 0x28, 0x00, 0x01, 0x90, 0x40, 0x4c, 0x81,
  0x6f, 0x80, 0x40, 0x00, 0x01, 0x90, 0x3b, 0x4c, 0x81, 0x6f, 0x80, 0x3b,
  0x00, 0x01, 0x90, 0x4c, 0x4c, 0x81, 0x6f, 0x80, 0x4c, 0x00, 0x01, 0x90,
  0x47, 0x4c, 0x81, 0x6f, 0x80, 0x47, 0x00, 0x01, 0x90, 0x43, 0x4c, 0x81,
  0x6f, 0x80, 0x43, 0x00, 0x01, 0x90, 0x47, 0x4c, 0x81, 0x6f, 0x80, 0x47,
  0x00, 0x01, 0x90, 0x48, 0x4c, 0x00, 0x90, 0x30, 0x4c, 0x81, 0x6f, 0x80,
  0x48, 0x00, 0x00, 0x80, 0x30, 0x00, 0x01, 0x90, 0x30, 0x4c, 0x77, 0x80,
  0x30, 0x00, 0x01, 0x90, 0x45, 0x4c, 0x77, 0x80, 0x45, 0x00, 0x01, 0x90,
  0x47, 0x4c, 0x77, 0x80, 0x47, 0x00, 0x01, 0x90, 0x30, 0x4c, 0x77, 0x80,
  0x30, 0x00, 0x01, 0x90, 0x3b, 0x4c, 0x81, 0x6f, 0x80, 0x3b, 0x00, 0x01,
  0x90, 0x30, 0x4c, 0x77, 0x80, 0x30, 0x00, 0x01, 0x90, 0x37, 0x4c, 0x00,
  0x90, 0x3b, 0x4c, 0x81, 0x6f, 0x80, 0x37, 0x00, 0x00, 0x80, 0x3b, 0x00,
  0x01, 0x90, 0x30, 0x4c, 0x77, 0x80, 0x30, 0x00, 0x01, 0x90, 0x4c, 0x4c,
  0x00, 0x90, 0x47, 0x4c, 0x81, 0x6f, 0x80, 0x4c, 0x00, 0x00, 0x80, 0x47,
  0x00, 0x01, 0x90, 0x28, 0x4c, 0x81, 0x6f, 0x80, 0x28, 0x00, 0x01, 0x90,
  0x3f, 0x4c, 0x00, 0x90, 0x39, 0x4c, 0x83, 0x5f, 0x80, 0x3f, 0x00, 0x00,
  0x80, 0x39, 0x00, 0x01, 0x90, 0x3b, 0x4c, 0x81, 0x6f, 0x80, 0x3b, 0x00,
  0x01, 0x90, 0x39, 0x4c, 0x81, 0x6f, 0x80, 0x39, 0x00, 0x01, 0x90, 0x45,
  0x4c, 0x81, 0x6f, 0x80, 0x45, 0x00, 0x01, 0x90, 0x47, 0x4c, 0x77, 0x80,
  0x47, 0x00, 0x01, 0x90, 0x45, 0x4c, 0x81, 0x6f, 0x80, 0x45, 0x00, 0x01,
  0x90, 0x3f, 0x4c, 0x77, 0x80, 0x3f, 0x00, 0x01, 0x90, 0x4e, 0x4c, 0x77,
  0x80, 0x4e, 0x00, 0x01, 0x90, 0x53, 0x4c, 0x77, 0x80, 0x53, 0x00, 0x01,
  0x90, 0x3f, 0x4c, 0x00, 0x90, 0x2f, 0x4c, 0x81, 0x6f, 0x80, 0x3f, 0x00,
  0x00, 0x80, 0x2f, 0x00, 0x01, 0x90, 0x45, 0x4c, 0x77, 0x80, 0x45, 0x00,
  0x01, 0x90, 0x3f, 0x4c, 0x81, 0x6f, 0x80, 0x3f, 0x00, 0x01, 0x90, 0x53,
  0x4c, 0x77, 0x80, 0x53, 0x00, 0x01, 0x90, 0x4e, 0x4c, 0x77, 0x80, 0x4e,
  0x00, 0x01, 0x90, 0x3f, 0x4c, 0x77, 0x80, 0x3f, 0x00, 0x01, 0x90, 0x3f,
  0x4c, 0x00, 0x90, 0x2f, 0x4c, 0x81, 0x6f, 0x80, 0x3f, 0x00, 0x00, 0x80,
  0x2f, 0x00, 0x01, 0x90, 0x40, 0x4c, 0x81, 0x6f, 0x80, 0x40, 0x00, 0x01,
  0x90, 0x37, 0x4c, 0x77, 0x80, 0x37, 0x00, 0x01, 0x90, 0x36, 0x4c, 0x77,
  0x80, 0x36, 0x00, 0x01, 0x90, 0x4c, 0x4c, 0x00, 0x90, 0x47, 0x4c, 0x81,
  0x6f, 0x80, 0x4c, 0x00, 0x00, 0x80, 0x47, 0x00, 0x01, 0x90, 0x3c, 0x4c,
  0x00, 0x90, 0x40, 0x4c, 0x83, 0x5f, 0x80, 0x3c, 0x00, 0x00, 0x80, 0x40,
  0x00, 0x01, 0x90, 0x47, 0x4c, 0x81, 0x6f, 0x80, 0x47, 0x00, 0x01, 0x90,
  0x40, 0x4c, 0x81, 0x6f, 0x80, 0x40, 0x00, 0x01, 0x90, 0x4e, 0x4c, 0x81,
  0x6f, 0x80, 0x4e, 0x00, 0x01, 0x90, 0x4f, 0x4c, 0x81, 0x6f, 0x80, 0x4f,
  0x00, 0x01, 0x90, 0x45, 0x4c, 0x81, 0x6f, 0x80, 0x45, 0x00, 0x01, 0x90,
  0x53, 0x4c, 0x81, 0x6f, 0x80, 0x53, 0x00, 0x01, 0x90, 0x2a, 0x4c, 0x00,
  0x90, 0x3c, 0x4c, 0x82, 0x67, 0x80, 0x3c, 0x00, 0x78, 0x80, 0x2a, 0x00,
  0x01, 0x90, 0x2b, 0x4c, 0x00, 0x90, 0x3b, 0x4c, 0x83, 0x60, 0x90, 0x43,
  0x4c, 0x77, 0x80, 0x2b, 0x00, 0x00, 0x80, 0x3b, 0x00, 0x00, 0x80, 0x43,
  0x00, 0x01, 0x90, 0x42, 0x4c, 0x77, 0x80, 0x42, 0x00, 0x01, 0x90, 0x40,
  0x4c, 0x77, 0x80, 0x40, 0x00, 0x01, 0x90, 0x3c, 0x4c, 0x81, 0x6f, 0x80,
  0x3c, 0x00, 0x01, 0x90, 0x3b, 0x4c, 0x77, 0x80, 0x3b, 0x00, 0x01, 0x90,
  0x43, 0x4c, 0x77, 0x80, 0x43, 0x00, 0x01, 0x90, 0x4c, 0x4c, 0x77, 0x80,
  0x4c, 0x00, 0x01, 0x90, 0x3f, 0x4c, 0x00, 0x90, 0x39, 0x4c, 0x00, 0x90,
  0x33, 0x4c, 0x00, 0x90, 0x2f, 0x4c, 0x83, 0x5f, 0x80, 0x3f, 0x00, 0x00,
  0x80, 0x39, 0x00, 0x00, 0x80, 0x33, 0x00, 0x00, 0x80, 0x2f, 0x00, 0x01,
  0x90, 0x3b, 0x4c, 0x81, 0x6f, 0x80, 0x3b, 0x00, 0x01, 0x90, 0x39, 0x4c,
  0x81, 0x6f, 0x80, 0x39, 0x00, 0x01, 0x90, 0x45, 0x4c, 0x81, 0x6f, 0x80,
  0x45, 0x00, 0x01, 0x90, 0x47, 0x4c, 0x77, 0x80, 0x47, 0x00, 0x01, 0x90,
  0x45, 0x4c, 0x81, 0x6f, 0x80, 0x45, 0x00, 0x01, 0x90, 0x3f, 0x4c, 0x77,
  0x80, 0x3f, 0x00, 0x01, 0x90, 0x4e, 0x4c, 0x77, 0x80, 0x4e, 0x00, 0x01,
  0x90, 0x53, 0x4c, 0x77, 0x80, 0x53, 0x00, 0x01, 0x90, 0x39, 0x4c, 0x00,
  0x90, 0x33, 0x4c, 0x00, 0x90, 0x3f, 0x4c, 0x00, 0x90, 0x2f, 0x4c, 0x81,
  0x6f, 0x80, 0x39, 0x00, 0x00, 0x80, 0x33, 0x00, 0x00, 0x80, 0x3f, 0x00,
  0x00, 0x80, 0x2f, 0x00, 0x01, 0x90, 0x40, 0x4c, 0x77, 0x80, 0x40, 0x00,
  0x01, 0x90, 0x3f, 0x4c, 0x81, 0x6f, 0x80, 0x3f, 0x00, 0x01, 0x90, 0x33,
  0x4c, 0x77, 0x80, 0x33, 0x00, 0x01, 0x90, 0x39, 0x4c, 0x77, 0x80, 0x39,
  0x00, 0x01, 0x90, 0x3b, 0x4c, 0x77, 0x80, 0x3b, 0x00, 0x01, 0x90, 0x43,
  0x4c, 0x00, 0x90, 0x2b, 0x4c, 0x81, 0x70, 0x90, 0x2a, 0x4c, 0x00, 0x90,
  0x42, 0x4c, 0x81, 0x70, 0x90, 0x33, 0x4c, 0x77, 0x80, 0x43, 0x00, 0x00,
  0x80, 0x2b, 0x00, 0x00, 0x80, 0x33, 0x00, 0x01, 0x90, 0x39, 0x4c, 0x77,
  0x80, 0x2a, 0x00, 0x00, 0x80, 0x42, 0x00, 0x00, 0x80, 0x39, 0x00, 0x01,
  0x90, 0x4b, 0x4c, 0x81, 0x6f, 0x80, 0x4b, 0x00, 0x01, 0x90, 0x37, 0x4c,
  0x00, 0x90, 0x28, 0x4c, 0x83, 0x5f, 0x80, 0x37, 0x00, 0x00, 0x80, 0x28,
  0x00, 0x01, 0x90, 0x40, 0x4c, 0x81, 0x6f, 0x80, 0x40, 0x00, 0x01, 0x90,
  0x3b, 0x4c, 0x81, 0x6f, 0x80, 0x3b, 0x00, 0x01, 0x90, 0x4c, 0x4c, 0x81,
  0x6f, 0x80, 0x4c, 0x00, 0x01, 0x90, 0x47, 0x4c, 0x81, 0x6f, 0x80, 0x47,
  0x00, 0x01, 0x90, 0x43, 0x4c, 0x81, 0x6f, 0x80, 0x43, 0x00, 0x01, 0x90,
  0x47, 0x4c, 0x81, 0x6f, 0x80, 0x47, 0x00, 0x01, 0x90, 0x48, 0x4c, 0x00,
  0x90, 0x30, 0x4c, 0x81, 0x6f, 0x80, 0x48, 0x00, 0x00, 0x80, 0x30, 0x00,
  0x01, 0x90, 0x30, 0x4c, 0x77, 0x80, 0x30, 0x00, 0x01, 0x90, 0x45, 0x4c,
  0x77, 0x80, 0x45, 0x00, 0x01, 0x90, 0x47, 0x4c, 0x77, 0x80, 0x47, 0x00,
  0x01, 0x90, 0x30, 0x4c, 0x77, 0x80, 0x30, 0x00, 0x01, 0x90, 0x3b, 0x4c,
  0x81, 0x6f, 0x80, 0x3b, 0x00, 0x01, 0x90, 0x30, 0x4c, 0x77, 0x80, 0x30,
  0x00, 0x01, 0x90, 0x37, 0x4c, 0x00, 0x90, 0x3b, 0x4c, 0x81, 0x6f, 0x80,
  0x37, 0x00, 0x00, 0x80, 0x3b, 0x00, 0x01, 0x90, 0x30, 0x4c, 0x77, 0x80,
  0x30, 0x00, 0x01, 0x90, 0x4c, 0x4c, 0x00, 0x90, 0x47, 0x4c, 0x00, 0x90,
  0x43, 0x4c, 0x81, 0x6f, 0x80, 0x4c, 0x00, 0x00, 0x80, 0x47, 0x00, 0x00,
  0x80, 0x43, 0x00, 0x01, 0x90, 0x28, 0x4c, 0x81, 0x6f, 0x80, 0x28, 0x00,
  0x01, 0x90, 0x3f, 0x4c, 0x00, 0x90, 0x39, 0x4c, 0x00, 0x90, 0x33, 0x4c,
  0x00, 0x90, 0x2f, 0x4c, 0x83, 0x5f, 0x80, 0x3f, 0x00, 0x00, 0x80, 0x39,
  0x00, 0x00, 0x80, 0x33, 0x00, 0x00, 0x80, 0x2f, 0x00, 0x01, 0x90, 0x3b,
  0x4c, 0x81, 0x6f, 0x80, 0x3b, 0x00, 0x01, 0x90, 0x39, 0x4c, 0x81, 0x6f,
  0x80, 0x39, 0x00, 0x01, 0x90, 0x45, 0x4c, 0x81, 0x6f, 0x80, 0x45, 0x00,
  0x01, 0x90, 0x47, 0x4c, 0x77, 0x80, 0x47, 0x00, 0x01, 0x90, 0x45, 0x4c,
  0x81, 0x6f, 0x80, 0x45, 0x00, 0x01, 0x90, 0x3f, 0x4c, 0x77, 0x80, 0x3f,
  0x00, 0x01, 0x90, 0x4e, 0x4c, 0x77, 0x80, 0x4e, 0x00, 0x01, 0x90, 0x53,
  0x4c, 0x77, 0x80, 0x53, 0x00, 0x01, 0x90, 0x3f, 0x4c, 0x00, 0x90, 0x2f,
  0x4c, 0x81, 0x6f, 0x80, 0x3f, 0x00, 0x00, 0x80, 0x2f, 0x00, 0x01, 0x90,
  0x45, 0x4c, 0x77, 0x80, 0x45, 0x00, 0x01, 0x90, 0x3f, 0x4c, 0x81, 0x6f,
  0x80, 0x3f, 0x00, 0x01, 0x90, 0x53, 0x4c, 0x77, 0x80, 0x53, 0x00, 0x01,
  0x90, 0x4e, 0x4c, 0x77, 0x80, 0x4e, 0x00, 0x01, 0x90, 0x3f, 0x4c, 0x77,
  0x80, 0x3f, 0x00, 0x01, 0x90, 0x3f, 0x4c, 0x00, 0x90, 0x2f, 0x4c, 0x81,
  0x6f, 0x80, 0x3f, 0x00, 0x00, 0x80, 0x2f, 0x00, 0x01, 0x90, 0x40, 0x4c,
  0x81, 0x6f, 0x80, 0x40, 0x00, 0x01, 0x90, 0x37, 0x4c, 0x77, 0x80, 0x37,
  0x00, 0x01, 0x90, 0x36, 0x4c, 0x77, 0x80, 0x36, 0x00, 0x01, 0x90, 0x4c,
  0x4c, 0x00, 0x90, 0x47, 0x4c, 0x81, 0x6f, 0x80, 0x4c, 0x00, 0x00, 0x80,
  0x47, 0x00, 0x01, 0x90, 0x3c, 0x4c, 0x00, 0x90, 0x40, 0x4c, 0x00, 0x90,
  0x30, 0x4c, 0x83, 0x60, 0x90, 0x47, 0x4c, 0x81, 0x6f, 0x80, 0x47, 0x00,
  0x01, 0x90, 0x40, 0x4c, 0x81, 0x6f, 0x80, 0x40, 0x00, 0x01, 0x90, 0x4e,
  0x4c, 0x81, 0x6f, 0x80, 0x4e, 0x00, 0x01, 0x90, 0x4f, 0x4c, 0x81, 0x6f,
  0x80, 0x4f, 0x00, 0x01, 0x90, 0x45, 0x4c, 0x81, 0x6f, 0x80, 0x45, 0x00,
  0x01, 0x90, 0x53, 0x4c, 0x81, 0x6f, 0x80, 0x53, 0x00, 0x01, 0x90, 0x3c,
  0x4c, 0x00, 0x90, 0x2a, 0x4c, 0x83, 0x60, 0x90, 0x2b, 0x4c, 0x00, 0x90,
  0x3b, 0x4c, 0x83, 0x60, 0x90, 0x43, 0x4c, 0x77, 0x80, 0x43, 0x00, 0x01,
  0x90, 0x42, 0x4c, 0x77, 0x80, 0x42, 0x00, 0x01, 0x90, 0x40, 0x4c, 0x77,
  0x80, 0x40, 0x00, 0x01, 0x90, 0x3c, 0x4c, 0x81, 0x6f, 0x80, 0x3c, 0x00,
  0x01, 0x90, 0x3b, 0x4c, 0x77, 0x80, 0x3b, 0x00, 0x01, 0x90, 0x43, 0x4c,
  0x77, 0x80, 0x43, 0x00, 0x01, 0x90, 0x4c, 0x4c, 0x77, 0x80, 0x4c, 0x00,
  0x01, 0x90, 0x3f, 0x4c, 0x00, 0x90, 0x39, 0x4c, 0x00, 0x90, 0x33, 0x4c,
  0x00, 0x90, 0x2f, 0x4c, 0x83, 0x5f, 0x80, 0x3f, 0x00, 0x00, 0x80, 0x39,
  0x00, 0x00, 0x80, 0x33, 0x00, 0x00, 0x80, 0x2f, 0x00, 0x01, 0x90, 0x3b,
  0x4c, 0x81, 0x6f, 0x80, 0x3b, 0x00, 0x01, 0x90, 0x39, 0x4c, 0x81, 0x6f,
  0x80, 0x39, 0x00, 0x01, 0x90, 0x45, 0x4c, 0x81, 0x6f, 0x80, 0x45, 0x00,
  0x01, 0x90, 0x47, 0x4c, 0x77, 0x80, 0x47, 0x00, 0x01, 0x90, 0x45, 0x4c,
  0x81, 0x6f, 0x80, 0x45, 0x00, 0x01, 0x90, 0x3f, 0x4c, 0x77, 0x80, 0x3f,
  0x00, 0x01, 0x90, 0x4e, 0x4c, 0x77, 0x80, 0x4e, 0x00, 0x01, 0x90, 0x53,
  0x4c, 0x77, 0x80, 0x53, 0x00, 0x01, 0x90, 0x39, 0x4c, 0x00, 0x90, 0x33,
  0x4c, 0x00, 0x90, 0x3f, 0x4c, 0x00, 0x90, 0x2f, 0x4c, 0x81, 0x6f, 0x80,
  0x39, 0x00, 0x00, 0x80, 0x33, 0x00, 0x00, 0x80, 0x3f, 0x00, 0x00, 0x80,
  0x2f, 0x00, 0x01, 0x90, 0x40, 0x4c, 0x77, 0x80, 0x40, 0x00, 0x01, 0x90,
  0x3f, 0x4c, 0x81, 0x6f, 0x80, 0x3f, 0x00, 0x01, 0x90, 0x33, 0x4c, 0x77,
  0x80, 0x33, 0x00, 0x01, 0x90, 0x39, 0x4c, 0x77, 0x80, 0x39, 0x00, 0x01,
  0x90, 0x3b, 0x4c, 0x77, 0x80, 0x3b, 0x00, 0x01, 0x90, 0x43, 0x4c, 0x00,
  0x90, 0x2b, 0x4c, 0x81, 0x70, 0x90, 0x2a, 0x4c, 0x00, 0x90, 0x42, 0x4c,
  0x81, 0x70, 0x90, 0x33, 0x4c, 0x77, 0x80, 0x33, 0x00, 0x01, 0x90, 0x39,
  0x4c, 0x77, 0x80, 0x39, 0x00, 0x01, 0x90, 0x4b, 0x4c, 0x81, 0x6f, 0x80,
  0x4b, 0x00, 0x9f, 0x70, 0x80, 0x40, 0x00, 0x00, 0x80, 0x30, 0x00, 0x00,
  0x80, 0x3c, 0x00, 0x87, 0x40, 0x80, 0x3c, 0x00, 0x00, 0x80, 0x2a, 0x00,
  0x81, 0x70, 0x80, 0x3b, 0x00, 0x00, 0x80, 0x2b, 0x00, 0x8f, 0x78, 0x80,
  0x2b, 0x00, 0x00, 0x80, 0x43, 0x00, 0x78, 0x80, 0x2a, 0x00, 0x00, 0x80,
  0x42, 0x00, 0xc1, 0x51, 0x90, 0x34, 0x4c, 0x77, 0x80, 0x34, 0x00, 0x01,
  0x90, 0x37, 0x4c, 0x77, 0x80, 0x37, 0x00, 0x01, 0x90, 0x3e, 0x4c, 0x77,
  0x80, 0x3e, 0x00, 0x01, 0x90, 0x40, 0x4c, 0x77, 0x80, 0x40, 0x00, 0x01,
  0x90, 0x40, 0x4c, 0x83, 0x5f, 0x80, 0x40, 0x00, 0x01, 0x90, 0x39, 0x4c,
  0x77, 0x80, 0x39, 0x00, 0x01, 0x90, 0x3b, 0x4c, 0x77, 0x80, 0x3b, 0x00,
  0x01, 0x90, 0x40, 0x4c, 0x77, 0x80, 0x40, 0x00, 0x01, 0x90, 0x40, 0x4c,
  0x77, 0x80, 0x40, 0x00, 0x01, 0x90, 0x40, 0x4c, 0x83, 0x5f, 0x80, 0x40,
  0x00, 0x01, 0x90, 0x2d, 0x4c, 0x77, 0x80, 0x2d, 0x00, 0x01, 0x90, 0x2f,
  0x4c, 0x77, 0x80, 0x2f, 0x00, 0x01, 0x90, 0x30, 0x4c, 0x77, 0x80, 0x30,
  0x00, 0x01, 0x90, 0x3b, 0x4c, 0x77, 0x80, 0x3b, 0x00, 0x01, 0x90, 0x39,
  0x4c, 0x83, 0x5f, 0x80, 0x39, 0x00, 0x01, 0x90, 0x2d, 0x4c, 0x77, 0x80,
  0x2d, 0x00, 0x01, 0x90, 0x2f, 0x4c, 0x77, 0x80, 0x2f, 0x00, 0x01, 0x90,
  0x30, 0x4c, 0x77, 0x80, 0x30, 0x00, 0x01, 0x90, 0x37, 0x4c, 0x77, 0x80,
  0x37, 0x00, 0x01, 0x90, 0x36, 0x4c, 0x85, 0x4f, 0x80, 0x36, 0x00, 0x84,
  0x59, 0x90, 0x37, 0x4c, 0x00, 0x90, 0x32, 0x4c, 0x00, 0x90, 0x2d, 0x4c,
  0x77, 0x80, 0x37, 0x00, 0x00, 0x80, 0x32, 0x00, 0x00, 0x80, 0x2d, 0x00,
  0x01, 0x90, 0x33, 0x4c, 0x77, 0x80, 0x33, 0x00, 0x01, 0x90, 0x36, 0x4c,
  0x77, 0x80, 0x36, 0x00, 0x01, 0x90, 0x3c, 0x4c, 0x77, 0x80, 0x3c, 0x00,
  0x01, 0x90, 0x53, 0x4c, 0x77, 0x80, 0x53, 0x00, 0x01, 0x90, 0x39, 0x4c,
  0x77, 0x80, 0x39, 0x00, 0x01, 0x90, 0x3b, 0x4c, 0x77, 0x80, 0x3b, 0x00,
  0x01, 0x90, 0x33, 0x4c, 0x77, 0x80, 0x33, 0x00, 0x01, 0x90, 0x3b, 0x4c,
  0x77, 0x80, 0x3b, 0x00, 0x01, 0x90, 0x30, 0x4c, 0x77, 0x80, 0x30, 0x00,
  0x01, 0x90, 0x3b, 0x4c, 0x77, 0x80, 0x3b, 0x00, 0x01, 0x90, 0x30, 0x4c,
  0x77, 0x80, 0x30, 0x00, 0x01, 0x90, 0x33, 0x4c, 0x77, 0x80, 0x33, 0x00,
  0x01, 0x90, 0x39, 0x4c, 0x77, 0x80, 0x39, 0x00, 0x01, 0x90, 0x37, 0x4c,
  0x77, 0x80, 0x37, 0x00, 0x01, 0x90, 0x36, 0x4c, 0x77, 0x80, 0x36, 0x00,
  0x01, 0x90, 0x37, 0x4c, 0x77, 0x80, 0x37, 0x00, 0x01, 0x90, 0x30, 0x4c,
  0x77, 0x80, 0x30, 0x00, 0x01, 0x90, 0x37, 0x4c, 0x77, 0x80, 0x37, 0x00,
  0x01, 0x90, 0x2d, 0x4c, 0x77, 0x80, 0x2d, 0x00, 0x01, 0x90, 0x36, 0x4c,
  0x77, 0x80, 0x36, 0x00, 0x01, 0x90, 0x37, 0x4c, 0x00, 0x90, 0x30, 0x4c,
  0x00, 0x90, 0x2b, 0x4c, 0x82, 0x67, 0x80, 0x37, 0x00, 0x00, 0x80, 0x30,
  0x00, 0x00, 0x80, 0x2b, 0x00, 0x01, 0x90, 0x45, 0x4c, 0x00, 0x90, 0x4e,
  0x4c, 0x00, 0x90, 0x4a, 0x4c, 0x00, 0x90, 0x45, 0x4c, 0x00, 0x90, 0x4a,
  0x4c, 0x00, 0x90, 0x4e, 0x4c, 0x77, 0x80, 0x45, 0x00, 0x00, 0x80, 0x4e,
  0x00, 0x00, 0x80, 0x4a, 0x00, 0x00, 0x80, 0x45, 0x00, 0x00, 0x80, 0x4a,
  0x00, 0x00, 0x80, 0x4e, 0x00, 0x01, 0x90, 0x45, 0x4c, 0x00, 0x90, 0x4a,
  0x4c, 0x00, 0x90, 0x4e, 0x4c, 0x77, 0x80, 0x45, 0x00, 0x00, 0x80, 0x4a,
  0x00, 0x00, 0x80, 0x4e, 0x00, 0x01, 0x90, 0x45, 0x4c, 0x00, 0x90, 0x4a,
  0x4c, 0x00, 0x90, 0x4e, 0x4c, 0x77, 0x80, 0x45, 0x00, 0x00, 0x80, 0x4a,
  0x00, 0x00, 0x80, 0x4e, 0x00, 0x01, 0x90, 0x45, 0x4c, 0x00, 0x90, 0x4a,
  0x4c, 0x00, 0x90, 0x4e, 0x4c, 0x77, 0x80, 0x45, 0x00, 0x00, 0x80, 0x4a,
  0x00, 0x00, 0x80, 0x4e, 0x00, 0x01, 0x90, 0x36, 0x4c, 0x77, 0x80, 0x36,
  0x00, 0x01, 0x90, 0x37, 0x4c, 0x77, 0x80, 0x37, 0x00, 0x01, 0x90, 0x37,
  0x4c, 0x77, 0x80, 0x37, 0x00, 0x01, 0x90, 0x36, 0x4c, 0x77, 0x80, 0x36,
  0x00, 0x01, 0x90, 0x34, 0x4c, 0x77, 0x80, 0x34, 0x00, 0x01, 0x90, 0x36,
  0x4c, 0x00, 0x90, 0x37, 0x4c, 0x77, 0x80, 0x36, 0x00, 0x00, 0x80, 0x37,
  0x00, 0x01, 0x90, 0x36, 0x4c, 0x77, 0x80, 0x36, 0x00, 0x01, 0x90, 0x34,
  0x4c, 0x77, 0x80, 0x34, 0x00, 0x01, 0x90, 0x33, 0x4c, 0x77, 0x80, 0x33,
  0x00, 0x01, 0x90, 0x37, 0x4c, 0x77, 0x80, 0x37, 0x00, 0x01, 0x90, 0x30,
  0x4c, 0x77, 0x80, 0x30, 0x00, 0x01, 0x90, 0x2d, 0x4c, 0x77, 0x80, 0x2d,
  0x00, 0x01, 0x90, 0x28, 0x4c, 0x77, 0x80, 0x28, 0x00, 0x01, 0x90, 0x2a,
  0x4c, 0x77, 0x80, 0x2a, 0x00, 0x01, 0x90, 0x2b, 0x4c, 0x77, 0x80, 0x2b,
  0x00, 0x01, 0x90, 0x2d, 0x4c, 0x77, 0x80, 0x2d, 0x00, 0x01, 0x90, 0x34,
  0x4c, 0x77, 0x80, 0x34, 0x00, 0x01, 0x90, 0x33, 0x4c, 0x77, 0x80, 0x33,
  0x00, 0x01, 0x90, 0x3b, 0x4c, 0x77, 0x80, 0x3b, 0x00, 0x01, 0x90, 0x39,
  0x4c, 0x77, 0x80, 0x39, 0x00, 0x01, 0x90, 0x37, 0x4c, 0x77, 0x80, 0x37,
  0x00, 0x01, 0x90, 0x36, 0x4c, 0x00, 0x90, 0x37, 0x4c, 0x77, 0x80, 0x36,
  0x00, 0x00, 0x80, 0x37, 0x00, 0x01, 0x90, 0x36, 0x4c, 0x77, 0x80, 0x36,
  0x00, 0x01, 0x90, 0x34, 0x4c, 0x77, 0x80, 0x34, 0x00, 0x01, 0x90, 0x33,
  0x4c, 0x77, 0x80, 0x33, 0x00, 0x01, 0x90, 0x3b, 0x4c, 0x00, 0x90, 0x36,
  0x4c, 0x00, 0x90, 0x2f, 0x4c, 0x83, 0x5f, 0x80, 0x3b, 0x00, 0x00, 0x80,
  0x36, 0x00, 0x00, 0x80, 0x2f, 0x00, 0x01, 0x90, 0x2a, 0x4c, 0x00, 0x90,
  0x2f, 0x4c, 0x77, 0x80, 0x2a, 0x00, 0x00, 0x80, 0x2f, 0x00, 0x01, 0x90,
  0x36, 0x4c, 0x77, 0x80, 0x36, 0x00, 0x01, 0x90, 0x39, 0x4c, 0x00, 0x90,
  0x3b, 0x4c, 0x77, 0x80, 0x39, 0x00, 0x00, 0x80, 0x3b, 0x00, 0x01, 0x90,
  0x40, 0x4c, 0x77, 0x80, 0x40, 0x00, 0x01, 0x90, 0x3f, 0x4c, 0x83, 0x5f,
  0x80, 0x3f, 0x00, 0x01, 0x90, 0x2d, 0x4c, 0x00, 0x90, 0x30, 0x4c, 0x77,
  0x80, 0x2d, 0x00, 0x00, 0x80, 0x30, 0x00, 0x01, 0x90, 0x37, 0x4c, 0x77,
  0x80, 0x37, 0x00, 0x01, 0x90, 0x37, 0x4c, 0x00, 0x90, 0x3b, 0x4c, 0x77,
  0x80, 0x37, 0x00, 0x00, 0x80, 0x3b, 0x00, 0x01, 0x90, 0x39, 0x4c, 0x77,
  0x80, 0x39, 0x00, 0x01, 0x90, 0x3b, 0x4c, 0x00, 0x90, 0x37, 0x4c, 0x00,
  0x90, 0x36, 0x4c, 0x83, 0x5f, 0x80, 0x3b, 0x00, 0x00, 0x80, 0x37, 0x00,
  0x00, 0x80, 0x36, 0x00, 0x01, 0x90, 0x2a, 0x4c, 0x00, 0x90, 0x2f, 0x4c,
  0x77, 0x80, 0x2a, 0x00, 0x00, 0x80, 0x2f, 0x00, 0x01, 0x90, 0x36, 0x4c,
  0x77, 0x80, 0x36, 0x00, 0x01, 0x90, 0x39, 0x4c, 0x00, 0x90, 0x3f, 0x4c,
  0x77, 0x80, 0x39, 0x00, 0x00, 0x80, 0x3f, 0x00, 0x01, 0x90, 0x42, 0x4c,
  0x77, 0x80, 0x42, 0x00, 0x01, 0x90, 0x43, 0x4c, 0x77, 0x80, 0x43, 0x00,
  0x01, 0x90, 0x42, 0x4c, 0x77, 0x80, 0x42, 0x00, 0x01, 0x90, 0x3f, 0x4c,
  0x77, 0x80, 0x3f, 0x00, 0x01, 0x90, 0x39, 0x4c, 0x77, 0x80, 0x39, 0x00,
  0x01, 0x90, 0x42, 0x4c, 0x77, 0x80, 0x42, 0x00, 0x01, 0x90, 0x3f, 0x4c,
  0x77, 0x80, 0x3f, 0x00, 0x01, 0x90, 0x39, 0x4c, 0x77, 0x80, 0x39, 0x00,
  0x01, 0x90, 0x36, 0x4c, 0x77, 0x80, 0x36, 0x00, 0x01, 0x90, 0x37, 0x4c,
  0x00, 0x90, 0x28, 0x4c, 0x83, 0x5f, 0x80, 0x37, 0x00, 0x00, 0x80, 0x28,
  0x00, 0x01, 0x90, 0x40, 0x4c, 0x77, 0x80, 0x40, 0x00, 0x79, 0x90, 0x3b,
  0x4c, 0x81, 0x6f, 0x80, 0x3b, 0x00, 0x01, 0x90, 0x4c, 0x4c, 0x81, 0x6f,
  0x80, 0x4c, 0x00, 0x01, 0x90, 0x47, 0x4c, 0x81, 0x6f, 0x80, 0x47, 0x00,
  0x01, 0x90, 0x43, 0x4c, 0x77, 0x80, 0x43, 0x00, 0x79, 0x90, 0x47, 0x4c,
  0x81, 0x6f, 0x80, 0x47, 0x00, 0x01, 0x90, 0x48, 0x4c, 0x00, 0x90, 0x30,
  0x4c, 0x81, 0x6f, 0x80, 0x48, 0x00, 0x00, 0x80, 0x30, 0x00, 0x01, 0x90,
  0x30, 0x4c, 0x77, 0x80, 0x30, 0x00, 0x01, 0x90, 0x45, 0x4c, 0x77, 0x80,
  0x45, 0x00, 0x01, 0x90, 0x47, 0x4c, 0x77, 0x80, 0x47, 0x00, 0x01, 0x90,
  0x30, 0x4c, 0x77, 0x80, 0x30, 0x00, 0x01, 0x90, 0x3b, 0x4c, 0x81, 0x6f,
  0x80, 0x3b, 0x00, 0x01, 0x90, 0x30, 0x4c, 0x77, 0x80, 0x30, 0x00, 0x01,
  0x90, 0x37, 0x4c, 0x00, 0x90, 0x3b, 0x4c, 0x81, 0x6f, 0x80, 0x37, 0x00,
  0x00, 0x80, 0x3b, 0x00, 0x01, 0x90, 0x30, 0x4c, 0x77, 0x80, 0x30, 0x00,
  0x01, 0x90, 0x4c, 0x4c, 0x00, 0x90, 0x47, 0x4c, 0x00, 0x90, 0x43, 0x4c,
  0x81, 0x6f, 0x80, 0x4c, 0x00, 0x00, 0x80, 0x47, 0x00, 0x00, 0x80, 0x43,
  0x00, 0x01, 0x90, 0x28, 0x4c, 0x81, 0x6f, 0x80, 0x28, 0x00, 0x01, 0x90,
  0x3f, 0x4c, 0x00, 0x90, 0x39, 0x4c, 0x00, 0x90, 0x33, 0x4c, 0x00, 0x90,
  0x2f, 0x4c, 0x83, 0x5f, 0x80, 0x3f, 0x00, 0x00, 0x80, 0x39, 0x00, 0x00,
  0x80, 0x33, 0x00, 0x00, 0x80, 0x2f, 0x00, 0x01, 0x90, 0x3b, 0x4c, 0x81,
  0x6f, 0x80, 0x3b, 0x00, 0x01, 0x90, 0x39, 0x4c, 0x81, 0x6f, 0x80, 0x39,
  0x00, 0x01, 0x90, 0x45, 0x4c, 0x81, 0x6f, 0x80, 0x45, 0x00, 0x01, 0x90,
  0x47, 0x4c, 0x77, 0x80, 0x47, 0x00, 0x01, 0x90, 0x45, 0x4c, 0x81, 0x6f,
  0x80, 0x45, 0x00, 0x01, 0x90, 0x3f, 0x4c, 0x77, 0x80, 0x3f, 0x00, 0x01,
  0x90, 0x4e, 0x4c, 0x77, 0x80, 0x4e, 0x00, 0x01, 0x90, 0x53, 0x4c, 0x77,
  0x80, 0x53, 0x00, 0x01, 0x90, 0x3f, 0x4c, 0x00, 0x90, 0x2f, 0x4c, 0x81,
  0x6f, 0x80, 0x3f, 0x00, 0x00, 0x80, 0x2f, 0x00, 0x01, 0x90, 0x45, 0x4c,
  0x77, 0x80, 0x45, 0x00, 0x01, 0x90, 0x3f, 0x4c, 0x81, 0x6f, 0x80, 0x3f,
  0x00, 0x01, 0x90, 0x53, 0x4c, 0x77, 0x80, 0x53, 0x00, 0x01, 0x90, 0x4e,
  0x4c, 0x77, 0x80, 0x4e, 0x00, 0x01, 0x90, 0x3f, 0x4c, 0x77, 0x80, 0x3f,
  0x00, 0x01, 0x90, 0x3f, 0x4c, 0x00, 0x90, 0x2f, 0x4c, 0x81, 0x6f, 0x80,
  0x3f, 0x00, 0x00, 0x80, 0x2f, 0x00, 0x01, 0x90, 0x40, 0x4c, 0x81, 0x6f,
  0x80, 0x40, 0x00, 0x01, 0x90, 0x37, 0x4c, 0x77, 0x80, 0x37, 0x00, 0x01,
  0x90, 0x36, 0x4c, 0x77, 0x80, 0x36, 0x00, 0x01, 0x90, 0x4c, 0x4c, 0x00,
  0x90, 0x47, 0x4c, 0x81, 0x6f, 0x80, 0x4c, 0x00, 0x00, 0x80, 0x47, 0x00,
  0x83, 0x61, 0x90, 0x47, 0x4c, 0x81, 0x6f, 0x80, 0x47, 0x00, 0x01, 0x90,
  0x40, 0x4c, 0x81, 0x6f, 0x80, 0x40, 0x00, 0x01, 0x90, 0x4e, 0x4c, 0x81,
  0x6f, 0x80, 0x4e, 0x00, 0x01, 0x90, 0x4f, 0x4c, 0x81, 0x6f, 0x80, 0x4f,
  0x00, 0x01, 0x90, 0x45, 0x4c, 0x81, 0x6f, 0x80, 0x45, 0x00, 0x01, 0x90,
  0x53, 0x4c, 0x81, 0x6f, 0x80, 0x53, 0x00, 0x87, 0x41, 0x90, 0x43, 0x4c,
  0x77, 0x80, 0x43, 0x00, 0x01, 0x90, 0x42, 0x4c, 0x77, 0x80, 0x42, 0x00,
  0x01, 0x90, 0x40, 0x4c, 0x77, 0x80, 0x40, 0x00, 0x01, 0x90, 0x3c, 0x4c,
  0x81, 0x6f, 0x80, 0x3c, 0x00, 0x01, 0x90, 0x3b, 0x4c, 0x77, 0x80, 0x3b,
  0x00, 0x01, 0x90, 0x43, 0x4c, 0x77, 0x80, 0x43, 0x00, 0x01, 0x90, 0x4c,
  0x4c, 0x77, 0x80, 0x4c, 0x00, 0x01, 0x90, 0x3f, 0x4c, 0x00, 0x90, 0x39,
  0x4c, 0x00, 0x90, 0x33, 0x4c, 0x00, 0x90, 0x2f, 0x4c, 0x83, 0x5f, 0x80,
  0x3f, 0x00, 0x00, 0x80, 0x39, 0x00, 0x00, 0x80, 0x33, 0x00, 0x00, 0x80,
  0x2f, 0x00, 0x01, 0x90, 0x3b, 0x4c, 0x81, 0x6f, 0x80, 0x3b, 0x00, 0x01,
  0x90, 0x39, 0x4c, 0x81, 0x6f, 0x80, 0x39, 0x00, 0x01, 0x90, 0x45, 0x4c,
  0x81, 0x6f, 0x80, 0x45, 0x00, 0x01, 0x90, 0x47, 0x4c, 0x77, 0x80, 0x47,
  0x00, 0x01, 0x90, 0x45, 0x4c, 0x81, 0x6f, 0x80, 0x45, 0x00, 0x01, 0x90,
  0x3f, 0x4c, 0x77, 0x80, 0x3f, 0x00, 0x01, 0x90, 0x4e, 0x4c, 0x77, 0x80,
  0x4e, 0x00, 0x01, 0x90, 0x53, 0x4c, 0x77, 0x80, 0x53, 0x00, 0x01, 0x90,
  0x39, 0x4c, 0x00, 0x90, 0x33, 0x4c, 0x00, 0x90, 0x3f, 0x4c, 0x00, 0x90,
  0x2f, 0x4c, 0x81, 0x6f, 0x80, 0x39, 0x00, 0x00, 0x80, 0x33, 0x00, 0x00,
  0x80, 0x3f, 0x00, 0x00, 0x80, 0x2f, 0x00, 0x01, 0x90, 0x40, 0x4c, 0x77,
  0x80, 0x40, 0x00, 0x01, 0x90, 0x3f, 0x4c, 0x81, 0x6f, 0x80, 0x3f, 0x00,
  0x01, 0x90, 0x33, 0x4c, 0x77, 0x80, 0x33, 0x00, 0x01, 0x90, 0x39, 0x4c,
  0x77, 0x80, 0x39, 0x00, 0x01, 0x90, 0x3b, 0x4c, 0x77, 0x80, 0x3b, 0x00,
  0x01, 0x90, 0x43, 0x4c, 0x83, 0x60, 0x90, 0x33, 0x4c, 0x77, 0x80, 0x33,
  0x00, 0x01, 0x90, 0x39, 0x4c, 0x77, 0x80, 0x39, 0x00, 0x01, 0x90, 0x4b,
  0x4c, 0x81, 0x6f, 0x80, 0x4b, 0x00, 0x01, 0x90, 0x37, 0x4c, 0x00, 0x90,
  0x28, 0x4c, 0x83, 0x5f, 0x80, 0x37, 0x00, 0x00, 0x80, 0x28, 0x00, 0x01,
  0x90, 0x40, 0x4c, 0x81, 0x6f, 0x80, 0x40, 0x00, 0x01, 0x90, 0x3b, 0x4c,
  0x81, 0x6f, 0x80, 0x3b, 0x00, 0x01, 0x90, 0x4c, 0x4c, 0x81, 0x6f, 0x80,
  0x4c, 0x00, 0x01, 0x90, 0x47, 0x4c, 0x81, 0x6f, 0x80, 0x43, 0x00, 0x00,
  0x80, 0x47, 0x00, 0x01, 0x90, 0x43, 0x4c, 0x81, 0x6f, 0x80, 0x43, 0x00,
  0x01, 0x90, 0x47, 0x4c, 0x81, 0x6f, 0x80, 0x47, 0x00, 0x01, 0x90, 0x48,
  0x4c, 0x00, 0x90, 0x30, 0x4c, 0x81, 0x6f, 0x80, 0x48, 0x00, 0x00, 0x80,
  0x30, 0x00, 0x01, 0x90, 0x30, 0x4c, 0x77, 0x80, 0x30, 0x00, 0x01, 0x90,
  0x45, 0x4c, 0x77, 0x80, 0x45, 0x00, 0x01, 0x90, 0x47, 0x4c, 0x77, 0x80,
  0x47, 0x00, 0x01, 0x90, 0x30, 0x4c, 0x77, 0x80, 0x30, 0x00, 0x01, 0x90,
  0x3b, 0x4c, 0x81, 0x6f, 0x80, 0x3b, 0x00, 0x01, 0x90, 0x30, 0x4c, 0x77,
  0x80, 0x30, 0x00, 0x01, 0x90, 0x37, 0x4c, 0x00, 0x90, 0x3b, 0x4c, 0x81,
  0x6f, 0x80, 0x37, 0x00, 0x00, 0x80, 0x3b, 0x00, 0x01, 0x90, 0x30, 0x4c,
  0x77, 0x80, 0x30, 0x00, 0x01, 0x90, 0x4c, 0x4c, 0x00, 0x90, 0x47, 0x4c,
  0x00, 0x90, 0x43, 0x4c, 0x81, 0x6f, 0x80, 0x4c, 0x00, 0x00, 0x80, 0x47,
  0x00, 0x00, 0x80, 0x43, 0x00, 0x01, 0x90, 0x28, 0x4c, 0x81, 0x6f, 0x80,
  0x28, 0x00, 0x01, 0x90, 0x3f, 0x4c, 0x00, 0x90, 0x39, 0x4c, 0x00, 0x90,
  0x33, 0x4c, 0x00, 0x90, 0x2f, 0x4c, 0x83, 0x5f, 0x80, 0x3f, 0x00, 0x00,
  0x80, 0x39, 0x00, 0x00, 0x80, 0x33, 0x00, 0x00, 0x80, 0x2f, 0x00, 0x01,
  0x90, 0x3b, 0x4c, 0x81, 0x6f, 0x80, 0x3b, 0x00, 0x01, 0x90, 0x39, 0x4c,
  0x81, 0x6f, 0x80, 0x39, 0x00, 0x01, 0x90, 0x45, 0x4c, 0x81, 0x6f, 0x80,
  0x45, 0x00, 0x01, 0x90, 0x47, 0x4c, 0x77, 0x80, 0x47, 0x00, 0x01, 0x90,
  0x45, 0x4c, 0x81, 0x6f, 0x80, 0x45, 0x00, 0x01, 0x90, 0x3f, 0x4c, 0x77,
  0x80, 0x3f, 0x00, 0x01, 0x90, 0x4e, 0x4c, 0x77, 0x80, 0x4e, 0x00, 0x01,
  0x90, 0x53, 0x4c, 0x77, 0x80, 0x53, 0x00, 0x01, 0x90, 0x3f, 0x4c, 0x00,
  0x90, 0x2f, 0x4c, 0x81, 0x6f, 0x80, 0x3f, 0x00, 0x00, 0x80, 0x2f, 0x00,
  0x01, 0x90, 0x45, 0x4c, 0x77, 0x80, 0x45, 0x00, 0x01, 0x90, 0x3f, 0x4c,
  0x81, 0x6f, 0x80, 0x3f, 0x00, 0x01, 0x90, 0x53, 0x4c, 0x77, 0x80, 0x53,
  0x00, 0x01, 0x90, 0x4e, 0x4c, 0x77, 0x80, 0x4e, 0x00, 0x01, 0x90, 0x3f,
  0x4c, 0x77, 0x80, 0x3f, 0x00, 0x01, 0x90, 0x3f, 0x4c, 0x00, 0x90, 0x2f,
  0x4c, 0x81, 0x6f, 0x80, 0x3f, 0x00, 0x00, 0x80, 0x2f, 0x00, 0x01, 0x90,
  0x40, 0x4c, 0x81, 0x6f, 0x80, 0x40, 0x00, 0x01, 0x90, 0x37, 0x4c, 0x77,
  0x80, 0x37, 0x00, 0x01, 0x90, 0x36, 0x4c, 0x77, 0x80, 0x36, 0x00, 0x01,
  0x90, 0x4c, 0x4c, 0x00, 0x90, 0x47, 0x4c, 0x81, 0x6f, 0x80, 0x4c, 0x00,
  0x00, 0x80, 0x47, 0x00, 0x83, 0x61, 0x90, 0x47, 0x4c, 0x81, 0x6f, 0x80,
  0x47, 0x00, 0x01, 0x90, 0x40, 0x4c, 0x81, 0x6f, 0x80, 0x40, 0x00, 0x01,
  0x90, 0x4e, 0x4c, 0x81, 0x6f, 0x80, 0x4e, 0x00, 0x01, 0x90, 0x4f, 0x4c,
  0x77, 0x80, 0x4f, 0x00, 0x79, 0x90, 0x45, 0x4c, 0x81, 0x6f, 0x80, 0x45,
  0x00, 0x01, 0x90, 0x53, 0x4c, 0x81, 0x6f, 0x80, 0x53, 0x00, 0x87, 0x41,
  0x90, 0x43, 0x4c, 0x77, 0x80, 0x43, 0x00, 0x01, 0x90, 0x42, 0x4c, 0x77,
  0x80, 0x42, 0x00, 0x01, 0x90, 0x40, 0x4c, 0x77, 0x80, 0x40, 0x00, 0x01,
  0x90, 0x3c, 0x4c, 0x81, 0x6f, 0x80, 0x3c, 0x00, 0x01, 0x90, 0x3b, 0x4c,
  0x77, 0x80, 0x3b, 0x00, 0x01, 0x90, 0x43, 0x4c, 0x77, 0x80, 0x43, 0x00,
  0x01, 0x90, 0x4c, 0x4c, 0x77, 0x80, 0x4c, 0x00, 0x01, 0x90, 0x3f, 0x4c,
  0x00, 0x90, 0x39, 0x4c, 0x00, 0x90, 0x33, 0x4c, 0x00, 0x90, 0x2f, 0x4c,
  0x83, 0x5f, 0x80, 0x3f, 0x00, 0x00, 0x80, 0x39, 0x00, 0x00, 0x80, 0x33,
  0x00, 0x00, 0x80, 0x2f, 0x00, 0x01, 0x90, 0x3b, 0x4c, 0x81, 0x6f, 0x80,
  0x3b, 0x00, 0x01, 0x90, 0x39, 0x4c, 0x81, 0x6f, 0x80, 0x39, 0x00, 0x01,
  0x90, 0x45, 0x4c, 0x81, 0x6f, 0x80, 0x45, 0x00, 0x01, 0x90, 0x47, 0x4c,
  0x77, 0x80, 0x47, 0x00, 0x01, 0x90, 0x45, 0x4c, 0x81, 0x6f, 0x80, 0x45,
  0x00, 0x01, 0x90, 0x3f, 0x4c, 0x77, 0x80, 0x3f, 0x00, 0x01, 0x90, 0x4e,
  0x4c, 0x77, 0x80, 0x4e, 0x00, 0x01, 0x90, 0x53, 0x4c, 0x77, 0x80, 0x53,
  0x00, 0x01, 0x90, 0x39, 0x4c, 0x00, 0x90, 0x33, 0x4c, 0x00, 0x90, 0x3f,
  0x4c, 0x00, 0x90, 0x2f, 0x4c, 0x81, 0x6f, 0x80, 0x39, 0x00, 0x00, 0x80,
  0x33, 0x00, 0x00, 0x80, 0x3f, 0x00, 0x00, 0x80, 0x2f, 0x00, 0x01, 0x90,
  0x40, 0x4c, 0x77, 0x80, 0x40, 0x00, 0x01, 0x90, 0x3f, 0x4c, 0x81, 0x6f,
  0x80, 0x3f, 0x00, 0x01, 0x90, 0x33, 0x4c, 0x77, 0x80, 0x33, 0x00, 0x01,
  0x90, 0x39, 0x4c, 0x77, 0x80, 0x39, 0x00, 0x01, 0x90, 0x3b, 0x4c, 0x77,
  0x80, 0x3b, 0x00, 0x83, 0x61, 0x90, 0x33, 0x4c, 0x77, 0x80, 0x33, 0x00,
  0x01, 0x90, 0x39, 0x4c, 0x77, 0x80, 0x39, 0x00, 0x01, 0x90, 0x4b, 0x4c,
  0x81, 0x6f, 0x80, 0x4b, 0x00, 0x01, 0x90, 0x3b, 0x4c, 0x00, 0x90, 0x37,
  0x4c, 0x00, 0x90, 0x36, 0x4c, 0x00, 0x90, 0x28, 0x4c, 0x9d, 0x7f, 0x80,
  0x3b, 0x00, 0x00, 0x80, 0x37, 0x00, 0x00, 0x80, 0x36, 0x00, 0x00, 0x80,
  0x28, 0x00, 0x01, 0x90, 0x3c, 0x4c, 0x00, 0x90, 0x39, 0x4c, 0x00, 0x90,
  0x34, 0x4c, 0x00, 0x90, 0x2a, 0x4c, 0x8e, 0x7f, 0x80, 0x3c, 0x00, 0x00,
  0x80, 0x39, 0x00, 0x00, 0x80, 0x34, 0x00, 0x00, 0x80, 0x2a, 0x00, 0x01,
  0x90, 0x3b, 0x4c, 0x00, 0x90, 0x39, 0x4c, 0x00, 0x90, 0x36, 0x4c, 0x00,
  0x90, 0x2f, 0x4c, 0x8e, 0x7f, 0x80, 0x3b, 0x00, 0x00, 0x80, 0x39, 0x00,
  0x00, 0x80, 0x36, 0x00, 0x00, 0x80, 0x2f, 0x00, 0x01, 0x90, 0x3b, 0x4c,
  0x00, 0x90, 0x37, 0x4c, 0x00, 0x90, 0x36, 0x4c, 0x00, 0x90, 0x28, 0x4c,
  0x9d, 0x7f, 0x80, 0x3b, 0x00, 0x00, 0x80, 0x37, 0x00, 0x00, 0x80, 0x36,
  0x00, 0x00, 0x80, 0x28, 0x00, 0x01, 0x90, 0x3c, 0x4c, 0x00, 0x90, 0x39,
  0x4c, 0x00, 0x90, 0x34, 0x4c, 0x00, 0x90, 0x2a, 0x4c, 0x8e, 0x7f, 0x80,
  0x3c, 0x00, 0x00, 0x80, 0x39, 0x00, 0x00, 0x80, 0x34, 0x00, 0x00, 0x80,
  0x2a, 0x00, 0x01, 0x90, 0x3b, 0x4c, 0x00, 0x90, 0x39, 0x4c, 0x00, 0x90,
  0x36, 0x4c, 0x00, 0x90, 0x2f, 0x4c, 0x87, 0x3f, 0x80, 0x3b, 0x00, 0x00,
  0x80, 0x39, 0x00, 0x00, 0x80, 0x36, 0x00, 0x00, 0x80, 0x2f, 0x00, 0x87,
  0x41, 0x90, 0x42, 0x4c, 0x00, 0x90, 0x3e, 0x4c, 0x00, 0x90, 0x37, 0x4c,
  0x00, 0x90, 0x34, 0x4c, 0x83, 0x5f, 0x80, 0x42, 0x00, 0x00, 0x80, 0x3e,
  0x00, 0x00, 0x80, 0x37, 0x00, 0x00, 0x80, 0x34, 0x00, 0x81, 0x71, 0x90,
  0x34, 0x4c, 0x83, 0x5f, 0x80, 0x34, 0x00, 0x83, 0x61, 0x90, 0x34, 0x4c,
  0x83, 0x5f, 0x80, 0x34, 0x00, 0x83, 0x61, 0x90, 0x43, 0x4c, 0x00, 0x90,
  0x3f, 0x4c, 0x00, 0x90, 0x38, 0x4c, 0x00, 0x90, 0x35, 0x4c, 0x83, 0x5f,
  0x80, 0x43, 0x00, 0x00, 0x80, 0x3f, 0x00, 0x00, 0x80, 0x38, 0x00, 0x01,
  0x90, 0x43, 0x4c, 0x00, 0x90, 0x3f, 0x4c, 0x00, 0x90, 0x38, 0x4c, 0x81,
  0x6f, 0x80, 0x35, 0x00, 0x00, 0x80, 0x43, 0x00, 0x00, 0x80, 0x3f, 0x00,
  0x00, 0x80, 0x38, 0x00, 0x81, 0x71, 0x90, 0x34, 0x4c, 0x81, 0x70, 0x90,
  0x42, 0x4c, 0x00, 0x90, 0x3e, 0x4c, 0x00, 0x90, 0x37, 0x4c, 0x83, 0x5f,
  0x80, 0x34, 0x00, 0x00, 0x80, 0x42, 0x00, 0x00, 0x80, 0x3e, 0x00, 0x00,
  0x80, 0x37, 0x00, 0x81, 0x71, 0x90, 0x34, 0x4c, 0x83, 0x5f, 0x80, 0x34,
  0x00, 0x83, 0x61, 0x90, 0x2f, 0x4c, 0x81, 0x70, 0x90, 0x41, 0x4c, 0x00,
  0x90, 0x3e, 0x4c, 0x00, 0x90, 0x39, 0x4c, 0x81, 0x6f, 0x80, 0x2f, 0x00,
  0x78, 0x80, 0x41, 0x00, 0x00, 0x80, 0x3e, 0x00, 0x00, 0x80, 0x39, 0x00,
  0x82, 0x69, 0x90, 0x43, 0x4c, 0x00, 0x90, 0x3e, 0x4c, 0x00, 0x90, 0x38,
  0x4c, 0x00, 0x90, 0x34, 0x4c, 0x83, 0x5f, 0x80, 0x43, 0x00, 0x00, 0x80,
  0x3e, 0x00, 0x00, 0x80, 0x38, 0x00, 0x01, 0x90, 0x43, 0x4c, 0x00, 0x90,
  0x3e, 0x4c, 0x00, 0x90, 0x38, 0x4c, 0x81, 0x6f, 0x80, 0x34, 0x00, 0x00,
  0x80, 0x43, 0x00, 0x00, 0x80, 0x3e, 0x00, 0x00, 0x80, 0x38, 0x00, 0x81,
  0x71, 0x90, 0x2d, 0x4c, 0x81, 0x70, 0x90, 0x40, 0x4c, 0x00, 0x90, 0x3c,
  0x4c, 0x00, 0x90, 0x37, 0x4c, 0x83, 0x5f, 0x80, 0x2d, 0x00, 0x00, 0x80,
  0x40, 0x00, 0x00, 0x80, 0x3c, 0x00, 0x00, 0x80, 0x37, 0x00, 0x81, 0x71,
  0x90, 0x2d, 0x4c, 0x83, 0x5f, 0x80, 0x2d, 0x00, 0x83, 0x61, 0x90, 0x2d,
  0x4c, 0x83, 0x5f, 0x80, 0x2d, 0x00, 0x83, 0x61, 0x90, 0x43, 0x4c, 0x00,
  0x90, 0x3f, 0x4c, 0x00, 0x90, 0x2f, 0x4c, 0x00, 0x90, 0x39, 0x4c, 0x83,
  0x5f, 0x80, 0x43, 0x00, 0x00, 0x80, 0x3f, 0x00, 0x00, 0x80, 0x2f, 0x00,
  0x00, 0x80, 0x39, 0x00, 0x01, 0x90, 0x43, 0x4c, 0x00, 0x90, 0x3f, 0x4c,
  0x00, 0x90, 0x2f, 0x4c, 0x00, 0x90, 0x39, 0x4c, 0x81, 0x6f, 0x80, 0x43,
  0x00, 0x00, 0x80, 0x3f, 0x00, 0x00, 0x80, 0x2f, 0x00, 0x00, 0x80, 0x39,
  0x00, 0x81, 0x71, 0x90, 0x34, 0x4c, 0x81, 0x70, 0x90, 0x42, 0x4c, 0x00,
  0x90, 0x3e, 0x4c, 0x00, 0x90, 0x37, 0x4c, 0x83, 0x5f, 0x80, 0x34, 0x00,
  0x00, 0x80, 0x42, 0x00, 0x00, 0x80, 0x3e, 0x00, 0x00, 0x80, 0x37, 0x00,
  0x81, 0x71, 0x90, 0x34, 0x4c, 0x83, 0x5f, 0x80, 0x34, 0x00, 0x83, 0x61,
  0x90, 0x42, 0x4c, 0x00, 0x90, 0x3d, 0x4c, 0x00, 0x90, 0x37, 0x4c, 0x00,
  0x90, 0x34, 0x4c, 0x85, 0x4f, 0x80, 0x42, 0x00, 0x00, 0x80, 0x3d, 0x00,
  0x00, 0x80, 0x37, 0x00, 0x00, 0x80, 0x34, 0x00, 0x81, 0x71, 0x90, 0x34,
  0x4c, 0x83, 0x5f, 0x80, 0x34, 0x00, 0x83, 0x61, 0x90, 0x36, 0x4c, 0x83,
  0x5f, 0x80, 0x36, 0x00, 0x83, 0x61, 0x90, 0x36, 0x4c, 0x83, 0x5f, 0x80,
  0x36, 0x00, 0x83, 0x61, 0x90, 0x2f, 0x4c, 0x83, 0x5f, 0x80, 0x2f, 0x00,
  0x83, 0x61, 0x90, 0x2f, 0x4c, 0x83, 0x5f, 0x80, 0x2f, 0x00, 0x83, 0x61,
  0x90, 0x34, 0x4c, 0x83, 0x5f, 0x80, 0x34, 0x00, 0x83, 0x61, 0x90, 0x34,
  0x4c, 0x83, 0x5f, 0x80, 0x34, 0x00, 0x83, 0x61, 0x90, 0x2f, 0x4c, 0x81,
  0x6f, 0x80, 0x2f, 0x00, 0x01, 0x90, 0x30, 0x4c, 0x84, 0x57, 0x80, 0x30,
  0x00, 0x79, 0x90, 0x30, 0x4c, 0x81, 0x6f, 0x80, 0x30, 0x00, 0x01, 0x90,
  0x2f, 0x4c, 0x84, 0x57, 0x80, 0x2f, 0x00, 0x79, 0x90, 0x34, 0x4c, 0x81,
  0x6f, 0x80, 0x34, 0x00, 0x01, 0x90, 0x42, 0x4c, 0x83, 0x5f, 0x80, 0x42,
  0x00, 0x01, 0x90, 0x3e, 0x4c, 0x83, 0x5f, 0x80, 0x3e, 0x00, 0x83, 0x61,
  0x90, 0x45, 0x4c, 0x81, 0x6f, 0x80, 0x45, 0x00, 0x01, 0x90, 0x42, 0x4c,
  0x83, 0x5f, 0x80, 0x42, 0x00, 0x83, 0x61, 0x90, 0x42, 0x4c, 0x83, 0x5f,
  0x80, 0x42, 0x00, 0x01, 0x90, 0x43, 0x4c, 0x81, 0x6f, 0x80, 0x43, 0x00,
  0x01, 0x90, 0x42, 0x4c, 0x81, 0x6f, 0x80, 0x42, 0x00, 0x01, 0x90, 0x40,
  0x4c, 0x81, 0x6f, 0x80, 0x40, 0x00, 0x01, 0x90, 0x42, 0x4c, 0x83, 0x5f,
  0x80, 0x42, 0x00, 0x01, 0x90, 0x40, 0x4c, 0x83, 0x5f, 0x80, 0x40, 0x00,
  0x01, 0x90, 0x3b, 0x4c, 0x92, 0x5f, 0x80, 0x3b, 0x00, 0x81, 0x71, 0x90,
  0x3e, 0x4c, 0x81, 0x6f, 0x80, 0x3e, 0x00, 0x01, 0x90, 0x47, 0x4c, 0x83,
  0x5f, 0x80, 0x47, 0x00, 0x83, 0x61, 0x90, 0x43, 0x4c, 0x81, 0x6f, 0x80,
  0x43, 0x00, 0x01, 0x90, 0x45, 0x4c, 0x81, 0x6f, 0x80, 0x45, 0x00, 0x01,
  0x90, 0x47, 0x4c, 0x77, 0x80, 0x47, 0x00, 0x01, 0x90, 0x43, 0x4c, 0x77,
  0x80, 0x43, 0x00, 0x01, 0x90, 0x45, 0x4c, 0x81, 0x6f, 0x80, 0x45, 0x00,
  0x81, 0x71, 0x90, 0x43, 0x4c, 0x83, 0x5f, 0x80, 0x43, 0x00, 0x85, 0x51,
  0x90, 0x3e, 0x4c, 0x81, 0x6f, 0x80, 0x3e, 0x00, 0x01, 0x90, 0x45, 0x4c,
  0x83, 0x5f, 0x80, 0x45, 0x00, 0x01, 0x90, 0x42, 0x4c, 0x98, 0x2f, 0x80,
  0x42, 0x00, 0x81, 0x71, 0x90, 0x3e, 0x4c, 0x81, 0x6f, 0x80, 0x3e, 0x00,
  0x01, 0x90, 0x47, 0x4c, 0x83, 0x5f, 0x80, 0x47, 0x00, 0x83, 0x61, 0x90,
  0x43, 0x4c, 0x81, 0x6f, 0x80, 0x43, 0x00, 0x01, 0x90, 0x45, 0x4c, 0x81,
  0x6f, 0x80, 0x45, 0x00, 0x01, 0x90, 0x47, 0x4c, 0x77, 0x80, 0x47, 0x00,
  0x01, 0x90, 0x43, 0x4c, 0x77, 0x80, 0x43, 0x00, 0x01, 0x90, 0x45, 0x4c,
  0x81, 0x6f, 0x80, 0x45, 0x00, 0x8b, 0x21, 0x90, 0x3e, 0x4c, 0x81, 0x6f,
  0x80, 0x3e, 0x00, 0x01, 0x90, 0x45, 0x4c, 0x83, 0x5f, 0x80, 0x45, 0x00,
  0x01, 0x90, 0x42, 0x4c, 0x81, 0x6f, 0x80, 0x42, 0x00, 0x01, 0x90, 0x3e,
  0x4c, 0x81, 0x6f, 0x80, 0x3e, 0x00, 0x01, 0x90, 0x45, 0x4c, 0x83, 0x5f,
  0x80, 0x45, 0x00, 0x01, 0x90, 0x42, 0x4c, 0x81, 0x6f, 0x80, 0x42, 0x00,
  0x01, 0x90, 0x3e, 0x4c, 0x81, 0x6f, 0x80, 0x3e, 0x00, 0x01, 0x90, 0x47,
  0x4c, 0x83, 0x5f, 0x80, 0x47, 0x00, 0x83, 0x61, 0x90, 0x45, 0x4c, 0x83,
  0x5f, 0x80, 0x45, 0x00, 0x01, 0x90, 0x43, 0x4c, 0x85, 0x4f, 0x80, 0x43,
  0x00, 0x01, 0x90, 0x42, 0x4c, 0x00, 0x90, 0x3b, 0x4c, 0x00, 0x90, 0x37,
  0x4c, 0x00, 0x90, 0x28, 0x4c, 0x83, 0x5f, 0x80, 0x42, 0x00, 0x00, 0x80,
  0x3b, 0x00, 0x00, 0x80, 0x37, 0x00, 0x00, 0x80, 0x28, 0x00, 0x01, 0x90,
  0x3b, 0x4c, 0x00, 0x90, 0x40, 0x4c, 0x00, 0x90, 0x3b, 0x4c, 0x00, 0x90,
  0x40, 0x4c, 0x83, 0x5f, 0x80, 0x3b, 0x00, 0x00, 0x80, 0x40, 0x00, 0x00,
  0x80, 0x3b, 0x00, 0x00, 0x80, 0x40, 0x00, 0x01, 0x90, 0x3b, 0x4c, 0x81,
  0x6f, 0x80, 0x3b, 0x00, 0x01, 0x90, 0x3e, 0x4c, 0x81, 0x6f, 0x80, 0x3e,
  0x00, 0x01, 0x90, 0x45, 0x4c, 0x81, 0x6f, 0x80, 0x45, 0x00, 0x01, 0x90,
  0x40, 0x4c, 0x00, 0x90, 0x34, 0x4c, 0x00, 0x90, 0x28, 0x4c, 0x00, 0x90,
  0x42, 0x4c, 0x00, 0x90, 0x36, 0x4c, 0x77, 0x80, 0x40, 0x00, 0x00, 0x80,
  0x34, 0x00, 0x00, 0x80, 0x28, 0x00, 0x82, 0x68, 0x80, 0x42, 0x00, 0x00,
  0x80, 0x36, 0x00, 0x01, 0x90, 0x40, 0x4c, 0x00, 0x90, 0x34, 0x4c, 0x81,
  0x6f, 0x80, 0x40, 0x00, 0x00, 0x80, 0x34, 0x00, 0x83, 0x61, 0x90, 0x28,
  0x4c, 0x81, 0x6f, 0x80, 0x28, 0x00, 0x01, 0x90, 0x2a, 0x4c, 0x81, 0x6f,
  0x80, 0x2a, 0x00, 0x01, 0x90, 0x2b, 0x4c, 0x81, 0x6f, 0x80, 0x2b, 0x00,
  0x01, 0x90, 0x4f, 0x4c, 0x00, 0x90, 0x53, 0x4c, 0x00, 0x90, 0x58, 0x4c,
  0x81, 0x6f, 0x80, 0x4f, 0x00, 0x00, 0x80, 0x53, 0x00, 0x00, 0x80, 0x58,
  0x00, 0x01, 0x90, 0x42, 0x4c, 0x00, 0x90, 0x3b, 0x4c, 0x00, 0x90, 0x37,
  0x4c, 0x00, 0x90, 0x28, 0x4c, 0x83, 0x5f, 0x80, 0x42, 0x00, 0x00, 0x80,
  0x3b, 0x00, 0x00, 0x80, 0x37, 0x00, 0x00, 0x80, 0x28, 0x00, 0x01, 0x90,
  0x3b, 0x4c, 0x00, 0x90, 0x42, 0x4c, 0x00, 0x90, 0x3b, 0x4c, 0x00, 0x90,
  0x40, 0x4c, 0x83, 0x5f, 0x80, 0x3b, 0x00, 0x00, 0x80, 0x42, 0x00, 0x00,
  0x80, 0x3b, 0x00, 0x00, 0x80, 0x40, 0x00, 0x01, 0x90, 0x3b, 0x4c, 0x00,
  0x90, 0x34, 0x4c, 0x00, 0x90, 0x2f, 0x4c, 0x81, 0x6f, 0x80, 0x3b, 0x00,
  0x00, 0x80, 0x34, 0x00, 0x00, 0x80, 0x2f, 0x00, 0x01, 0x90, 0x43, 0x4c,
  0x00, 0x90, 0x43, 0x4c, 0x77, 0x80, 0x43, 0x00, 0x00, 0x80, 0x43, 0x00,
  0x01, 0x90, 0x43, 0x4c, 0x77, 0x80, 0x43, 0x00, 0x01, 0x90, 0x4c, 0x4c,
  0x00, 0x90, 0x47, 0x4c, 0x00, 0x90, 0x43, 0x4c, 0x77, 0x80, 0x4c, 0x00,
  0x00, 0x80, 0x47, 0x00, 0x00, 0x80, 0x43, 0x00, 0x01, 0x90, 0x4c, 0x4c,
  0x00, 0x90, 0x47, 0x4c, 0x00, 0x90, 0x43, 0x4c, 0x77, 0x80, 0x4c, 0x00,
  0x00, 0x80, 0x47, 0x00, 0x00, 0x80, 0x43, 0x00, 0x01, 0x90, 0x28, 0x4c,
  0x77, 0x80, 0x28, 0x00, 0x01, 0x90, 0x28, 0x4c, 0x77, 0x80, 0x28, 0x00,
  0x01, 0x90, 0x34, 0x4c, 0x77, 0x80, 0x34, 0x00, 0x01, 0x90, 0x36, 0x4c,
  0x77, 0x80, 0x36, 0x00, 0x01, 0x90, 0x37, 0x4c, 0x77, 0x80, 0x37, 0x00,
  0x01, 0x90, 0x3b, 0x4c, 0x77, 0x80, 0x3b, 0x00, 0x79, 0x90, 0x42, 0x4c,
  0x77, 0x80, 0x42, 0x00, 0x01, 0x90, 0x3b, 0x4c, 0x77, 0x80, 0x3b, 0x00,
  0x01, 0x90, 0x32, 0x4c, 0x77, 0x80, 0x32, 0x00, 0x01, 0x90, 0x28, 0x4c,
  0x77, 0x80, 0x28, 0x00, 0x01, 0x90, 0x2f, 0x4c, 0x77, 0x80, 0x2f, 0x00,
  0x01, 0x90, 0x32, 0x4c, 0x77, 0x80, 0x32, 0x00, 0x01, 0x90, 0x36, 0x4c,
  0x77, 0x80, 0x36, 0x00, 0x79, 0x90, 0x28, 0x4c, 0x77, 0x80, 0x28, 0x00,
  0x01, 0x90, 0x2f, 0x4c, 0x77, 0x80, 0x2f, 0x00, 0x01, 0x90, 0x32, 0x4c,
  0x77, 0x80, 0x32, 0x00, 0x01, 0x90, 0x47, 0x4c, 0x00, 0x90, 0x3b, 0x4c,
  0x00, 0x90, 0x34, 0x4c, 0x00, 0x90, 0x30, 0x4c, 0x83, 0x5f, 0x80, 0x47,
  0x00, 0x00, 0x80, 0x3b, 0x00, 0x00, 0x80, 0x34, 0x00, 0x00, 0x80, 0x30,
  0x00, 0x01, 0x90, 0x45, 0x4c, 0x00, 0x90, 0x3b, 0x4c, 0x00, 0x90, 0x34,
  0x4c, 0x00, 0x90, 0x30, 0x4c, 0x83, 0x5f, 0x80, 0x45, 0x00, 0x00, 0x80,
  0x3b, 0x00, 0x00, 0x80, 0x34, 0x00, 0x00, 0x80, 0x30, 0x00, 0x81, 0x71,
  0x90, 0x43, 0x4c, 0x00, 0x90, 0x43, 0x4c, 0x77, 0x80, 0x43, 0x00, 0x00,
  0x80, 0x43, 0x00, 0x01, 0x90, 0x43, 0x4c, 0x77, 0x80, 0x43, 0x00, 0x01,
  0x90, 0x47, 0x4c, 0x81, 0x6f, 0x80, 0x47, 0x00, 0x01, 0x90, 0x45, 0x4c,
  0x00, 0x90, 0x42, 0x4c, 0x00, 0x90, 0x3c, 0x4c, 0x00, 0x90, 0x36, 0x4c,
  0x81, 0x6f, 0x80, 0x45, 0x00, 0x00, 0x80, 0x42, 0x00, 0x00, 0x80, 0x3c,
  0x00, 0x00, 0x80, 0x36, 0x00, 0x85, 0x51, 0x90, 0x42, 0x4c, 0x83, 0x5f,
  0x80, 0x42, 0x00, 0x01, 0x90, 0x3f, 0x4c, 0x00, 0x90, 0x39, 0x4c, 0x00,
  0x90, 0x33, 0x4c, 0x00, 0x90, 0x2f, 0x4c, 0x81, 0x6f, 0x80, 0x3f, 0x00,
  0x00, 0x80, 0x39, 0x00, 0x00, 0x80, 0x33, 0x00, 0x00, 0x80, 0x2f, 0x00,
  0x01, 0x90, 0x3e, 0x4c, 0x81, 0x6f, 0x80, 0x3e, 0x00, 0x01, 0x90, 0x45,
  0x4c, 0x81, 0x6f, 0x80, 0x45, 0x00, 0x01, 0x90, 0x34, 0x4c, 0x81, 0x6f,
  0x80, 0x34, 0x00, 0x01, 0x90, 0x42, 0x4c, 0x81, 0x6f, 0x80, 0x42, 0x00,
  0x01, 0x90, 0x28, 0x4c, 0x81, 0x6f, 0x80, 0x28, 0x00, 0x01, 0x90, 0x34,
  0x4c, 0x77, 0x80, 0x34, 0x00, 0x01, 0x90, 0x37, 0x4c, 0x77, 0x80, 0x37,
  0x00, 0x01, 0x90, 0x3e, 0x4c, 0x77, 0x80, 0x3e, 0x00, 0x01, 0x90, 0x37,
  0x4c, 0x77, 0x80, 0x37, 0x00, 0x01, 0x90, 0x42, 0x4c, 0x77, 0x80, 0x42,
  0x00, 0x01, 0x90, 0x28, 0x4c, 0x77, 0x80, 0x28, 0x00, 0x79, 0x90, 0x37,
  0x4c, 0x77, 0x80, 0x37, 0x00, 0x01, 0x90, 0x43, 0x4c, 0x77, 0x80, 0x43,
  0x00, 0x01, 0x90, 0x49, 0x4c, 0x77, 0x80, 0x49, 0x00, 0x01, 0x90, 0x4e,
  0x4c, 0x77, 0x80, 0x4e, 0x00, 0x01, 0x90, 0x37, 0x4c, 0x77, 0x80, 0x37,
  0x00, 0x01, 0x90, 0x49, 0x4c, 0x77, 0x80, 0x49, 0x00, 0x01, 0x90, 0x4c,
  0x4c, 0x77, 0x80, 0x4c, 0x00, 0x79, 0x90, 0x37, 0x4c, 0x77, 0x80, 0x37,
  0x00, 0x01, 0x90, 0x3d, 0x4c, 0x77, 0x80, 0x3d, 0x00, 0x01, 0x90, 0x42,
  0x4c, 0x77, 0x80, 0x42, 0x00, 0x01, 0x90, 0x40, 0x4c, 0x77, 0x80, 0x40,
  0x00, 0x01, 0x90, 0x3b, 0x4c, 0x77, 0x80, 0x3b, 0x00, 0x79, 0x90, 0x31,
  0x4c, 0x77, 0x80, 0x31, 0x00, 0x79, 0x90, 0x2b, 0x4c, 0x77, 0x80, 0x2b,
  0x00, 0x01, 0x90, 0x31, 0x4c, 0x77, 0x80, 0x31, 0x00, 0x01, 0x90, 0x36,
  0x4c, 0x77, 0x80, 0x36, 0x00, 0x01, 0x90, 0x47, 0x4c, 0x00, 0x90, 0x3b,
  0x4c, 0x00, 0x90, 0x34, 0x4c, 0x00, 0x90, 0x30, 0x4c, 0x83, 0x5f, 0x80,
  0x47, 0x00, 0x00, 0x80, 0x3b, 0x00, 0x00, 0x80, 0x34, 0x00, 0x00, 0x80,
  0x30, 0x00, 0x01, 0x90, 0x4a, 0x4c, 0x00, 0x90, 0x3b, 0x4c, 0x00, 0x90,
  0x34, 0x4c, 0x00, 0x90, 0x30, 0x4c, 0x83, 0x5f, 0x80, 0x4a, 0x00, 0x00,
  0x80, 0x3b, 0x00, 0x00, 0x80, 0x34, 0x00, 0x00, 0x80, 0x30, 0x00, 0x81,
  0x71, 0x90, 0x43, 0x4c, 0x00, 0x90, 0x43, 0x4c, 0x77, 0x80, 0x43, 0x00,
  0x00, 0x80, 0x43, 0x00, 0x01, 0x90, 0x43, 0x4c, 0x77, 0x80, 0x43, 0x00,
  0x01, 0x90, 0x45, 0x4c, 0x00, 0x90, 0x4a, 0x4c, 0x00, 0x90, 0x4e, 0x4c,
  0x81, 0x6f, 0x80, 0x45, 0x00, 0x00, 0x80, 0x4a, 0x00, 0x00, 0x80, 0x4e,
  0x00, 0x01, 0x90, 0x45, 0x4c, 0x00, 0x90, 0x42, 0x4c, 0x00, 0x90, 0x3c,
  0x4c, 0x00, 0x90, 0x36, 0x4c, 0x83, 0x5f, 0x80, 0x45, 0x00, 0x00, 0x80,
  0x42, 0x00, 0x00, 0x80, 0x3c, 0x00, 0x00, 0x80, 0x36, 0x00, 0x01, 0x90,
  0x58, 0x4c, 0x00, 0x90, 0x53, 0x4c, 0x83, 0x5f, 0x80, 0x58, 0x00, 0x00,
  0x80, 0x53, 0x00, 0x01, 0x90, 0x42, 0x4c, 0x83, 0x5f, 0x80, 0x42, 0x00,
  0x01, 0x90, 0x3f, 0x4c, 0x00, 0x90, 0x39, 0x4c, 0x00, 0x90, 0x33, 0x4c,
  0x00, 0x90, 0x2f, 0x4c, 0x81, 0x6f, 0x80, 0x3f, 0x00, 0x00, 0x80, 0x39,
  0x00, 0x00, 0x80, 0x33, 0x00, 0x00, 0x80, 0x2f, 0x00, 0x01, 0x90, 0x3e,
  0x4c, 0x81, 0x6f, 0x80, 0x3e, 0x00, 0x01, 0x90, 0x45, 0x4c, 0x83, 0x5f,
  0x80, 0x45, 0x00, 0x01, 0x90, 0x42, 0x4c, 0x81, 0x6f, 0x80, 0x42, 0x00,
  0x01, 0x90, 0x3b, 0x4c, 0x81, 0x6f, 0x80, 0x3b, 0x00, 0x01, 0x90, 0x28,
  0x4c, 0x81, 0x6f, 0x80, 0x28, 0x00, 0x01, 0x90, 0x3b, 0x4c, 0x00, 0x90,
  0x34, 0x4c, 0x00, 0x90, 0x2f, 0x4c, 0x81, 0x6f, 0x80, 0x3b, 0x00, 0x00,
  0x80, 0x34, 0x00, 0x00, 0x80, 0x2f, 0x00, 0x01, 0x90, 0x43, 0x4c, 0x00,
  0x90, 0x43, 0x4c, 0x77, 0x80, 0x43, 0x00, 0x00, 0x80, 0x43, 0x00, 0x01,
  0x90, 0x43, 0x4c, 0x77, 0x80, 0x43, 0x00, 0x01, 0x90, 0x4c, 0x4c, 0x00,
  0x90, 0x47, 0x4c, 0x00, 0x90, 0x43, 0x4c, 0x77, 0x80, 0x4c, 0x00, 0x00,
  0x80, 0x47, 0x00, 0x00, 0x80, 0x43, 0x00, 0x01, 0x90, 0x4c, 0x4c, 0x00,
  0x90, 0x47, 0x4c, 0x00, 0x90, 0x43, 0x4c, 0x77, 0x80, 0x4c, 0x00, 0x00,
  0x80, 0x47, 0x00, 0x00, 0x80, 0x43, 0x00, 0x01, 0x90, 0x28, 0x4c, 0x77,
  0x80, 0x28, 0x00, 0x01, 0x90, 0x28, 0x4c, 0x77, 0x80, 0x28, 0x00, 0x01,
  0x90, 0x30, 0x4c, 0x77, 0x80, 0x30, 0x00, 0x01, 0x90, 0x3a, 0x4c, 0x77,
  0x80, 0x3a, 0x00, 0x01, 0x90, 0x45, 0x4c, 0x77, 0x80, 0x45, 0x00, 0x01,
  0x90, 0x40, 0x4c, 0x77, 0x80, 0x40, 0x00, 0x79, 0x90, 0x30, 0x4c, 0x77,
  0x80, 0x30, 0x00, 0x01, 0x90, 0x2f, 0x4c, 0x77, 0x80, 0x2f, 0x00, 0x01,
  0x90, 0x33, 0x4c, 0x77, 0x80, 0x33, 0x00, 0x01, 0x90, 0x39, 0x4c, 0x77,
  0x80, 0x39, 0x00, 0x01, 0x90, 0x43, 0x4c, 0x77, 0x80, 0x43, 0x00, 0x79,
  0x90, 0x2f, 0x4c, 0x77, 0x80, 0x2f, 0x00, 0x01, 0x90, 0x33, 0x4c, 0x77,
  0x80, 0x33, 0x00, 0x01, 0x90, 0x39, 0x4c, 0x77, 0x80, 0x39, 0x00, 0x01,
  0x90, 0x43, 0x4c, 0x77, 0x80, 0x43, 0x00, 0x01, 0x90, 0x2f, 0x4c, 0x77,
  0x80, 0x2f, 0x00, 0x01, 0x90, 0x40, 0x4c, 0x77, 0x80, 0x40, 0x00, 0x01,
  0x90, 0x43, 0x4c, 0x77, 0x80, 0x43, 0x00, 0x01, 0x90, 0x4a, 0x4c, 0x77,
  0x80, 0x4a, 0x00, 0x01, 0x90, 0x4e, 0x4c, 0x77, 0x80, 0x4e, 0x00, 0x79,
  0x90, 0x28, 0x4c, 0x77, 0x80, 0x28, 0x00, 0x01, 0x90, 0x34, 0x4c, 0x77,
  0x80, 0x34, 0x00, 0x01, 0x90, 0x37, 0x4c, 0x77, 0x80, 0x37, 0x00, 0x01,
  0x90, 0x42, 0x4c, 0x77, 0x80, 0x42, 0x00, 0x01, 0x90, 0x42, 0x4c, 0x77,
  0x80, 0x42, 0x00, 0x01, 0x90, 0x37, 0x4c, 0x77, 0x80, 0x37, 0x00, 0x01,
  0x90, 0x3e, 0x4c, 0x77, 0x80, 0x3e, 0x00, 0x79, 0x90, 0x42, 0x4c, 0x77,
  0x80, 0x42, 0x00, 0x01, 0x90, 0x28, 0x4c, 0x77, 0x80, 0x28, 0x00, 0x01,
  0x90, 0x37, 0x4c, 0x77, 0x80, 0x37, 0x00, 0x01, 0x90, 0x3e, 0x4c, 0x77,
  0x80, 0x3e, 0x00, 0x81, 0x71, 0x90, 0x4e, 0x4c, 0x77, 0x80, 0x4e, 0x00,
  0x01, 0x90, 0x40, 0x4c, 0x77, 0x80, 0x40, 0x00, 0x01, 0x90, 0x43, 0x4c,
  0x77, 0x80, 0x43, 0x00, 0x01, 0x90, 0x41, 0x4c, 0x77, 0x80, 0x41, 0x00,
  0x01, 0x90, 0x44, 0x4c, 0x77, 0x80, 0x44, 0x00, 0x01, 0x90, 0x4b, 0x4c,
  0x77, 0x80, 0x4b, 0x00, 0x01, 0x90, 0x4f, 0x4c, 0x77, 0x80, 0x4f, 0x00,
  0x79, 0x90, 0x41, 0x4c, 0x77, 0x80, 0x41, 0x00, 0x01, 0x90, 0x44, 0x4c,
  0x77, 0x80, 0x44, 0x00, 0x01, 0x90, 0x4b, 0x4c, 0x77, 0x80, 0x4b, 0x00,
  0x01, 0x90, 0x4f, 0x4c, 0x77, 0x80, 0x4f, 0x00, 0x01, 0x90, 0x41, 0x4c,
  0x77, 0x80, 0x41, 0x00, 0x01, 0x90, 0x28, 0x4c, 0x77, 0x80, 0x28, 0x00,
  0x01, 0x90, 0x37, 0x4c, 0x77, 0x80, 0x37, 0x00, 0x01, 0x90, 0x3e, 0x4c,
  0x77, 0x80, 0x3e, 0x00, 0x01, 0x90, 0x42, 0x4c, 0x77, 0x80, 0x42, 0x00,
  0x79, 0x90, 0x40, 0x4c, 0x77, 0x80, 0x40, 0x00, 0x01, 0x90, 0x43, 0x4c,
  0x77, 0x80, 0x43, 0x00, 0x01, 0x90, 0x4a, 0x4c, 0x77, 0x80, 0x4a, 0x00,
  0x01, 0x90, 0x4e, 0x4c, 0x77, 0x80, 0x4e, 0x00, 0x01, 0x90, 0x40, 0x4c,
  0x77, 0x80, 0x40, 0x00, 0x01, 0x90, 0x43, 0x4c, 0x77, 0x80, 0x43, 0x00,
  0x01, 0x90, 0x4a, 0x4c, 0x77, 0x80, 0x4a, 0x00, 0x79, 0x90, 0x4e, 0x4c,
  0x77, 0x80, 0x4e, 0x00, 0x01, 0x90, 0x40, 0x4c, 0x77, 0x80, 0x40, 0x00,
  0x01, 0x90, 0x43, 0x4c, 0x77, 0x80, 0x43, 0x00, 0x01, 0x90, 0x3b, 0x4c,
  0x77, 0x80, 0x3b, 0x00, 0x01, 0x90, 0x43, 0x4c, 0x77, 0x80, 0x43, 0x00,
  0x01, 0x90, 0x4d, 0x4c, 0x77, 0x80, 0x4d, 0x00, 0x01, 0x90, 0x4a, 0x4c,
  0x77, 0x80, 0x4a, 0x00, 0x79, 0x90, 0x3b, 0x4c, 0x77, 0x80, 0x3b, 0x00,
  0x01, 0x90, 0x44, 0x4c, 0x77, 0x80, 0x44, 0x00, 0x01, 0x90, 0x4f, 0x4c,
  0x77, 0x80, 0x4f, 0x00, 0x01, 0x90, 0x40, 0x4c, 0x77, 0x80, 0x40, 0x00,
  0x01, 0x90, 0x4a, 0x4c, 0x77, 0x80, 0x4a, 0x00, 0x79, 0x90, 0x38, 0x4c,
  0x77, 0x80, 0x38, 0x00, 0x79, 0x90, 0x28, 0x4c, 0x77, 0x80, 0x28, 0x00,
  0x01, 0x90, 0x3e, 0x4c, 0x77, 0x80, 0x3e, 0x00, 0x01, 0x90, 0x38, 0x4c,
  0x77, 0x80, 0x38, 0x00, 0x01, 0x90, 0x37, 0x4c, 0x77, 0x80, 0x37, 0x00,
  0x01, 0x90, 0x3c, 0x4c, 0x77, 0x80, 0x3c, 0x00, 0x01, 0x90, 0x45, 0x4c,
  0x77, 0x80, 0x45, 0x00, 0x01, 0x90, 0x40, 0x4c, 0x77, 0x80, 0x40, 0x00,
  0x79, 0x90, 0x2b, 0x4c, 0x77, 0x80, 0x2b, 0x00, 0x01, 0x90, 0x30, 0x4c,
  0x77, 0x80, 0x30, 0x00, 0x01, 0x90, 0x39, 0x4c, 0x77, 0x80, 0x39, 0x00,
  0x01, 0x90, 0x34, 0x4c, 0x77, 0x80, 0x34, 0x00, 0x01, 0x90, 0x39, 0x4c,
  0x77, 0x80, 0x39, 0x00, 0x01, 0x90, 0x3c, 0x4c, 0x77, 0x80, 0x3c, 0x00,
  0x01, 0x90, 0x45, 0x4c, 0x77, 0x80, 0x45, 0x00, 0x79, 0x90, 0x40, 0x4c,
  0x77, 0x80, 0x40, 0x00, 0x01, 0x90, 0x37, 0x4c, 0x77, 0x80, 0x37, 0x00,
  0x01, 0x90, 0x3c, 0x4c, 0x77, 0x80, 0x3c, 0x00, 0x01, 0x90, 0x36, 0x4c,
  0x77, 0x80, 0x36, 0x00, 0x01, 0x90, 0x3c, 0x4c, 0x77, 0x80, 0x3c, 0x00,
  0x01, 0x90, 0x45, 0x4c, 0x77, 0x80, 0x45, 0x00, 0x01, 0x90, 0x40, 0x4c,
  0x77, 0x80, 0x40, 0x00, 0x79, 0x90, 0x36, 0x4c, 0x77, 0x80, 0x36, 0x00,
  0x01, 0x90, 0x2f, 0x4c, 0x77, 0x80, 0x2f, 0x00, 0x01, 0x90, 0x39, 0x4c,
  0x77, 0x80, 0x39, 0x00, 0x01, 0x90, 0x3f, 0x4c, 0x77, 0x80, 0x3f, 0x00,
  0x01, 0x90, 0x42, 0x4c, 0x77, 0x80, 0x42, 0x00, 0x79, 0x90, 0x2f, 0x4c,
  0x77, 0x80, 0x2f, 0x00, 0x01, 0x90, 0x39, 0x4c, 0x77, 0x80, 0x39, 0x00,
  0x01, 0x90, 0x3f, 0x4c, 0x77, 0x80, 0x3f, 0x00, 0x01, 0x90, 0x42, 0x4c,
  0x77, 0x80, 0x42, 0x00, 0x01, 0x90, 0x3b, 0x4c, 0x77, 0x80, 0x3b, 0x00,
  0x01, 0x90, 0x34, 0x4c, 0x77, 0x80, 0x34, 0x00, 0x01, 0x90, 0x37, 0x4c,
  0x77, 0x80, 0x37, 0x00, 0x01, 0x90, 0x3e, 0x4c, 0x77, 0x80, 0x3e, 0x00,
  0x01, 0x90, 0x42, 0x4c, 0x77, 0x80, 0x42, 0x00, 0x79, 0x90, 0x4e, 0x4c,
  0x77, 0x80, 0x4e, 0x00, 0x01, 0x90, 0x4a, 0x4c, 0x77, 0x80, 0x4a, 0x00,
  0x01, 0x90, 0x34, 0x4c, 0x77, 0x80, 0x34, 0x00, 0x01, 0x90, 0x37, 0x4c,
  0x77, 0x80, 0x37, 0x00, 0x01, 0x90, 0x4e, 0x4c, 0x77, 0x80, 0x4e, 0x00,
  0x01, 0x90, 0x4a, 0x4c, 0x77, 0x80, 0x4a, 0x00, 0x01, 0x90, 0x34, 0x4c,
  0x77, 0x80, 0x34, 0x00, 0x79, 0x90, 0x43, 0x4c, 0x77, 0x80, 0x43, 0x00,
  0x01, 0x90, 0x34, 0x4c, 0x77, 0x80, 0x34, 0x00, 0x01, 0x90, 0x37, 0x4c,
  0x77, 0x80, 0x37, 0x00, 0x01, 0x90, 0x42, 0x4c, 0x77, 0x80, 0x42, 0x00,
  0x01, 0x90, 0x3d, 0x4c, 0x77, 0x80, 0x3d, 0x00, 0x79, 0x90, 0x34, 0x4c,
  0x77, 0x80, 0x34, 0x00, 0x01, 0x90, 0x37, 0x4c, 0x77, 0x80, 0x37, 0x00,
  0x01, 0x90, 0x42, 0x4c, 0x77, 0x80, 0x42, 0x00, 0x01, 0x90, 0x37, 0x4c,
  0x77, 0x80, 0x37, 0x00, 0x01, 0x90, 0x3d, 0x4c, 0x77, 0x80, 0x3d, 0x00,
  0x01, 0x90, 0x42, 0x4c, 0x77, 0x80, 0x42, 0x00, 0x01, 0x90, 0x34, 0x4c,
  0x77, 0x80, 0x34, 0x00, 0x79, 0x90, 0x3d, 0x4c, 0x77, 0x80, 0x3d, 0x00,
  0x01, 0x90, 0x34, 0x4c, 0x77, 0x80, 0x34, 0x00, 0x01, 0x90, 0x37, 0x4c,
  0x77, 0x80, 0x37, 0x00, 0x01, 0x90, 0x42, 0x4c, 0x77, 0x80, 0x42, 0x00,
  0x79, 0x90, 0x30, 0x4c, 0x77, 0x80, 0x30, 0x00, 0x01, 0x90, 0x3a, 0x4c,
  0x77, 0x80, 0x3a, 0x00, 0x01, 0x90, 0x45, 0x4c, 0x77, 0x80, 0x45, 0x00,
  0x01, 0x90, 0x40, 0x4c, 0x77, 0x80, 0x40, 0x00, 0x79, 0x90, 0x30, 0x4c,
  0x77, 0x80, 0x30, 0x00, 0x01, 0x90, 0x3a, 0x4c, 0x77, 0x80, 0x3a, 0x00,
  0x01, 0x90, 0x45, 0x4c, 0x77, 0x80, 0x45, 0x00, 0x01, 0x90, 0x40, 0x4c,
  0x77, 0x80, 0x40, 0x00, 0x01, 0x90, 0x30, 0x4c, 0x77, 0x80, 0x30, 0x00,
  0x01, 0x90, 0x3a, 0x4c, 0x77, 0x80, 0x3a, 0x00, 0x01, 0x90, 0x45, 0x4c,
  0x77, 0x80, 0x45, 0x00, 0x79, 0x90, 0x40, 0x4c, 0x77, 0x80, 0x40, 0x00,
  0x01, 0x90, 0x30, 0x4c, 0x77, 0x80, 0x30, 0x00, 0x01, 0x90, 0x3a, 0x4c,
  0x77, 0x80, 0x3a, 0x00, 0x01, 0x90, 0x2f, 0x4c, 0x77, 0x80, 0x2f, 0x00,
  0x01, 0x90, 0x33, 0x4c, 0x77, 0x80, 0x33, 0x00, 0x01, 0x90, 0x39, 0x4c,
  0x77, 0x80, 0x39, 0x00, 0x01, 0x90, 0x43, 0x4c, 0x77, 0x80, 0x43, 0x00,
  0x79, 0x90, 0x2f, 0x4c, 0x77, 0x80, 0x2f, 0x00, 0x01, 0x90, 0x33, 0x4c,
  0x77, 0x80, 0x33, 0x00, 0x01, 0x90, 0x39, 0x4c, 0x77, 0x80, 0x39, 0x00,
  0x01, 0x90, 0x43, 0x4c, 0x77, 0x80, 0x43, 0x00, 0x01, 0x90, 0x2f, 0x4c,
  0x77, 0x80, 0x2f, 0x00, 0x01, 0x90, 0x33, 0x4c, 0x77, 0x80, 0x33, 0x00,
  0x01, 0x90, 0x39, 0x4c, 0x77, 0x80, 0x39, 0x00, 0x79, 0x90, 0x43, 0x4c,
  0x77, 0x80, 0x43, 0x00, 0x01, 0x90, 0x2f, 0x4c, 0x77, 0x80, 0x2f, 0x00,
  0x01, 0x90, 0x33, 0x4c, 0x77, 0x80, 0x33, 0x00, 0x01, 0x90, 0x4a, 0x4c,
  0x77, 0x80, 0x4a, 0x00, 0x01, 0x90, 0x34, 0x4c, 0x77, 0x80, 0x34, 0x00,
  0x01, 0x90, 0x43, 0x4c, 0x77, 0x80, 0x43, 0x00, 0x01, 0x90, 0x40, 0x4c,
  0x77, 0x80, 0x40, 0x00, 0x79, 0x90, 0x4a, 0x4c, 0x77, 0x80, 0x4a, 0x00,
  0x01, 0x90, 0x34, 0x4c, 0x77, 0x80, 0x34, 0x00, 0x01, 0x90, 0x37, 0x4c,
  0x77, 0x80, 0x37, 0x00, 0x01, 0x90, 0x40, 0x4c, 0x77, 0x80, 0x40, 0x00,
  0x01, 0x90, 0x4a, 0x4c, 0x77, 0x80, 0x4a, 0x00, 0x01, 0x90, 0x34, 0x4c,
  0x77, 0x80, 0x34, 0x00, 0x01, 0x90, 0x40, 0x4c, 0x77, 0x80, 0x40, 0x00,
  0x79, 0x90, 0x43, 0x4c, 0x77, 0x80, 0x43, 0x00, 0x01, 0x90, 0x4a, 0x4c,
  0x77, 0x80, 0x4a, 0x00, 0x01, 0x90, 0x34, 0x4c, 0x77, 0x80, 0x34, 0x00,
  0x01, 0x90, 0x30, 0x4c, 0x77, 0x80, 0x30, 0x00, 0x01, 0x90, 0x3a, 0x4c,
  0x77, 0x80, 0x3a, 0x00, 0x01, 0x90, 0x45, 0x4c, 0x77, 0x80, 0x45, 0x00,
  0x01, 0x90, 0x40, 0x4c, 0x77, 0x80, 0x40, 0x00, 0x79, 0x90, 0x30, 0x4c,
  0x77, 0x80, 0x30, 0x00, 0x01, 0x90, 0x2f, 0x4c, 0x77, 0x80, 0x2f, 0x00,
  0x01, 0x90, 0x33, 0x4c, 0x77, 0x80, 0x33, 0x00, 0x01, 0x90, 0x39, 0x4c,
  0x77, 0x80, 0x39, 0x00, 0x01, 0x90, 0x43, 0x4c, 0x77, 0x80, 0x43, 0x00,
  0x79, 0x90, 0x2f, 0x4c, 0x77, 0x80, 0x2f, 0x00, 0x01, 0x90, 0x33, 0x4c,
  0x77, 0x80, 0x33, 0x00, 0x01, 0x90, 0x39, 0x4c, 0x77, 0x80, 0x39, 0x00,
  0x01, 0x90, 0x43, 0x4c, 0x77, 0x80, 0x43, 0x00, 0x01, 0x90, 0x2f, 0x4c,
  0x77, 0x80, 0x2f, 0x00, 0x6d, 0xff, 0x2f, 0x00, 0x4d, 0x54, 0x72, 0x6b,
  0x00, 0x00, 0x1f, 0x06, 0x00, 0xff, 0x03, 0x0c, 0x4e, 0x79, 0x6c, 0x6f,
  0x6e, 0x20, 0x47, 0x75, 0x69, 0x74, 0x61, 0x72, 0x00, 0xff, 0x59, 0x02,
  0x00, 0x00, 0x00, 0xb2, 0x06, 0x06, 0x00, 0xb2, 0x64, 0x00, 0x00, 0xb2,
  0x65, 0x00, 0x00, 0xc2, 0x18, 0xf8, 0x00, 0x92, 0x37, 0x4c, 0x00, 0x92,
  0x28, 0x4c, 0x87, 0x3f, 0x82, 0x37, 0x00, 0x00, 0x82, 0x28, 0x00, 0x01,
  0x92, 0x40, 0x4c, 0x83, 0x5f, 0x82, 0x40, 0x00, 0x01, 0x92, 0x3b, 0x4c,
  0x83, 0x5f, 0x82, 0x3b, 0x00, 0x01, 0x92, 0x48, 0x4c, 0x00, 0x92, 0x30,
  0x4c, 0x81, 0x6f, 0x82, 0x48, 0x00, 0x00, 0x82, 0x30, 0x00, 0x01, 0x92,
  0x30, 0x4c, 0x77, 0x82, 0x30, 0x00, 0x01, 0x92, 0x45, 0x4c, 0x77, 0x82,
  0x45, 0x00, 0x01, 0x92, 0x47, 0x4c, 0x77, 0x82, 0x47, 0x00, 0x01, 0x92,
  0x30, 0x4c, 0x77, 0x82, 0x30, 0x00, 0x01, 0x92, 0x3b, 0x4c, 0x81, 0x6f,
  0x82, 0x3b, 0x00, 0x01, 0x92, 0x30, 0x4c, 0x77, 0x82, 0x30, 0x00, 0x01,
  0x92, 0x37, 0x4c, 0x00, 0x92, 0x3b, 0x4c, 0x81, 0x6f, 0x82, 0x37, 0x00,
  0x00, 0x82, 0x3b, 0x00, 0x01, 0x92, 0x30, 0x4c, 0x77, 0x82, 0x30, 0x00,
  0x01, 0x92, 0x4c, 0x4c, 0x00, 0x92, 0x47, 0x4c, 0x00, 0x92, 0x43, 0x4c,
  0x81, 0x6f, 0x82, 0x4c, 0x00, 0x00, 0x82, 0x47, 0x00, 0x00, 0x82, 0x43,
  0x00, 0x01, 0x92, 0x28, 0x4c, 0x81, 0x6f, 0x82, 0x28, 0x00, 0x01, 0x92,
  0x3f, 0x4c, 0x00, 0x92, 0x39, 0x4c, 0x00, 0x92, 0x33, 0x4c, 0x00, 0x92,
  0x2f, 0x4c, 0x87, 0x3f, 0x82, 0x3f, 0x00, 0x00, 0x82, 0x39, 0x00, 0x00,
  0x82, 0x33, 0x00, 0x00, 0x82, 0x2f, 0x00, 0x01, 0x92, 0x3b, 0x4c, 0x83,
  0x5f, 0x82, 0x3b, 0x00, 0x01, 0x92, 0x39, 0x4c, 0x83, 0x5f, 0x82, 0x39,
  0x00, 0x01, 0x92, 0x3f, 0x4c, 0x00, 0x92, 0x2f, 0x4c, 0x83, 0x5f, 0x82,
  0x3f, 0x00, 0x00, 0x82, 0x2f, 0x00, 0x01, 0x92, 0x39, 0x4c, 0x81, 0x6f,
  0x82, 0x39, 0x00, 0x01, 0x92, 0x33, 0x4c, 0x83, 0x5f, 0x82, 0x33, 0x00,
  0x01, 0x92, 0x3b, 0x4c, 0x81, 0x6f, 0x82, 0x3b, 0x00, 0x01, 0x92, 0x36,
  0x4c, 0x81, 0x6f, 0x82, 0x36, 0x00, 0x01, 0x92, 0x33, 0x4c, 0x81, 0x6f,
  0x82, 0x33, 0x00, 0x01, 0x92, 0x3c, 0x4c, 0x00, 0x92, 0x40, 0x4c, 0x00,
  0x92, 0x30, 0x4c, 0x87, 0x40, 0x92, 0x47, 0x4c, 0x83, 0x5f, 0x82, 0x47,
  0x00, 0x01, 0x92, 0x40, 0x4c, 0x83, 0x5f, 0x82, 0x40, 0x00, 0x01, 0x92,
  0x3c, 0x4c, 0x00, 0x92, 0x2a, 0x4c, 0x83, 0x60, 0x92, 0x2b, 0x4c, 0x00,
  0x92, 0x3b, 0x4c, 0x83, 0x60, 0x92, 0x43, 0x4c, 0x77, 0x82, 0x43, 0x00,
  0x01, 0x92, 0x42, 0x4c, 0x77, 0x82, 0x42, 0x00, 0x01, 0x92, 0x40, 0x4c,
  0x77, 0x82, 0x40, 0x00, 0x01, 0x92, 0x3c, 0x4c, 0x81, 0x6f, 0x82, 0x3c,
  0x00, 0x01, 0x92, 0x3b, 0x4c, 0x77, 0x82, 0x3b, 0x00, 0x01, 0x92, 0x43,
  0x4c, 0x77, 0x82, 0x43, 0x00, 0x01, 0x92, 0x4c, 0x4c, 0x77, 0x82, 0x4c,
  0x00, 0x01, 0x92, 0x3f, 0x4c, 0x00, 0x92, 0x39, 0x4c, 0x00, 0x92, 0x33,
  0x4c, 0x00, 0x92, 0x2f, 0x4c, 0x83, 0x5f, 0x82, 0x3f, 0x00, 0x00, 0x82,
  0x39, 0x00, 0x00, 0x82, 0x33, 0x00, 0x00, 0x82, 0x2f, 0x00, 0x01, 0x92,
  0x3b, 0x4c, 0x81, 0x6f, 0x82, 0x3b, 0x00, 0x01, 0x92, 0x39, 0x4c, 0x81,
  0x6f, 0x82, 0x39, 0x00, 0x01, 0x92, 0x45, 0x4c, 0x81, 0x6f, 0x82, 0x45,
  0x00, 0x01, 0x92, 0x47, 0x4c, 0x77, 0x82, 0x47, 0x00, 0x01, 0x92, 0x45,
  0x4c, 0x81, 0x6f, 0x82, 0x45, 0x00, 0x01, 0x92, 0x3f, 0x4c, 0x77, 0x82,
  0x3f, 0x00, 0x01, 0x92, 0x4e, 0x4c, 0x77, 0x82, 0x4e, 0x00, 0x01, 0x92,
  0x53, 0x4c, 0x77, 0x82, 0x53, 0x00, 0x01, 0x92, 0x39, 0x4c, 0x00, 0x92,
  0x33, 0x4c, 0x00, 0x92, 0x3f, 0x4c, 0x00, 0x92, 0x2f, 0x4c, 0x81, 0x6f,
  0x82, 0x39, 0x00, 0x00, 0x82, 0x33, 0x00, 0x00, 0x82, 0x3f, 0x00, 0x00,
  0x82, 0x2f, 0x00, 0x01, 0x92, 0x40, 0x4c, 0x77, 0x82, 0x40, 0x00, 0x01,
  0x92, 0x3f, 0x4c, 0x81, 0x6f, 0x82, 0x3f, 0x00, 0x01, 0x92, 0x33, 0x4c,
  0x77, 0x82, 0x33, 0x00, 0x01, 0x92, 0x39, 0x4c, 0x77, 0x82, 0x39, 0x00,
  0x01, 0x92, 0x3b, 0x4c, 0x77, 0x82, 0x3b, 0x00, 0x01, 0x92, 0x43, 0x4c,
  0x00, 0x92, 0x2b, 0x4c, 0x81, 0x70, 0x92, 0x2a, 0x4c, 0x00, 0x92, 0x42,
  0x4c, 0x81, 0x70, 0x92, 0x33, 0x4c, 0x77, 0x82, 0x33, 0x00, 0x01, 0x92,
  0x39, 0x4c, 0x77, 0x82, 0x39, 0x00, 0x01, 0x92, 0x4b, 0x4c, 0x81, 0x6f,
  0x82, 0x4b, 0x00, 0x83, 0x61, 0x92, 0x4e, 0x4c, 0x81, 0x6f, 0x82, 0x4e,
  0x00, 0x01, 0x92, 0x4f, 0x4c, 0x00, 0x92, 0x4e, 0x4c, 0x77, 0x82, 0x4f,
  0x00, 0x00, 0x82, 0x4e, 0x00, 0x01, 0x92, 0x4c, 0x4c, 0x00, 0x92, 0x4a,
  0x4c, 0x77, 0x82, 0x4c, 0x00, 0x00, 0x82, 0x4a, 0x00, 0x01, 0x92, 0x4e,
  0x4c, 0x77, 0x82, 0x4e, 0x00, 0x01, 0x92, 0x4e, 0x4c, 0x77, 0x82, 0x4e,
  0x00, 0x01, 0x92, 0x4c, 0x4c, 0x77, 0x82, 0x4c, 0x00, 0x01, 0x92, 0x4a,
  0x4c, 0x77, 0x82, 0x4a, 0x00, 0x01, 0x92, 0x4e, 0x4c, 0x77, 0x82, 0x4e,
  0x00, 0x01, 0x92, 0x4c, 0x4c, 0x77, 0x82, 0x4c, 0x00, 0x01, 0x92, 0x4a,
  0x4c, 0x77, 0x82, 0x4a, 0x00, 0x01, 0x92, 0x4c, 0x4c, 0x77, 0x82, 0x4c,
  0x00, 0x01, 0x92, 0x48, 0x4c, 0x77, 0x82, 0x48, 0x00, 0x01, 0x92, 0x4f,
  0x4c, 0x77, 0x82, 0x4f, 0x00, 0x01, 0x92, 0x47, 0x4c, 0x77, 0x82, 0x47,
  0x00, 0x01, 0x92, 0x48, 0x4c, 0x77, 0x82, 0x48, 0x00, 0x01, 0x92, 0x47,
  0x4c, 0x77, 0x82, 0x47, 0x00, 0x01, 0x92, 0x46, 0x4c, 0x77, 0x82, 0x46,
  0x00, 0x01, 0x92, 0x48, 0x4c, 0x77, 0x82, 0x48, 0x00, 0x01, 0x92, 0x47,
  0x4c, 0x77, 0x82, 0x47, 0x00, 0x01, 0x92, 0x46, 0x4c, 0x77, 0x82, 0x46,
  0x00, 0x01, 0x92, 0x47, 0x4c, 0x77, 0x82, 0x47, 0x00, 0x01, 0x92, 0x46,
  0x4c, 0x77, 0x82, 0x46, 0x00, 0x01, 0x92, 0x45, 0x4c, 0x77, 0x82, 0x45,
  0x00, 0x01, 0x92, 0x44, 0x4c, 0x77, 0x82, 0x44, 0x00, 0x01, 0x92, 0x43,
  0x4c, 0x77, 0x82, 0x43, 0x00, 0x01, 0x92, 0x42, 0x4c, 0x77, 0x82, 0x42,
  0x00, 0x01, 0x92, 0x45, 0x4c, 0x77, 0x82, 0x45, 0x00, 0x01, 0x92, 0x4b,
  0x4c, 0x00, 0x92, 0x45, 0x4c, 0x00, 0x92, 0x42, 0x4c, 0x00, 0x92, 0x3b,
  0x4c, 0x81, 0x6f, 0x82, 0x4b, 0x00, 0x00, 0x82, 0x45, 0x00, 0x00, 0x82,
  0x42, 0x00, 0x00, 0x82, 0x3b, 0x00, 0x81, 0x70, 0x82, 0x40, 0x00, 0x00,
  0x82, 0x30, 0x00, 0x00, 0x82, 0x3c, 0x00, 0x01, 0x92, 0x36, 0x4c, 0x00,
  0x92, 0x36, 0x4c, 0x77, 0x82, 0x36, 0x00, 0x00, 0x82, 0x36, 0x00, 0x01,
  0x92, 0x36, 0x4c, 0x77, 0x82, 0x36, 0x00, 0x01, 0x92, 0x36, 0x4c, 0x00,
  0x92, 0x36, 0x4c, 0x77, 0x82, 0x36, 0x00, 0x00, 0x82, 0x36, 0x00, 0x01,
  0x92, 0x36, 0x4c, 0x77, 0x82, 0x36, 0x00, 0x01, 0x92, 0x45, 0x4c, 0x00,
  0x92, 0x40, 0x4c, 0x00, 0x92, 0x3c, 0x4c, 0x00, 0x92, 0x36, 0x4c, 0x81,
  0x6f, 0x82, 0x3c, 0x00, 0x00, 0x82, 0x2a, 0x00, 0x00, 0x82, 0x45, 0x00,
  0x00, 0x82, 0x40, 0x00, 0x00, 0x82, 0x3c, 0x00, 0x00, 0x82, 0x36, 0x00,
  0x01, 0x92, 0x47, 0x4c, 0x81, 0x6f, 0x82, 0x3b, 0x00, 0x00, 0x82, 0x2b,
  0x00, 0x78, 0x82, 0x47, 0x00, 0x01, 0x92, 0x45, 0x4c, 0x82, 0x67, 0x82,
  0x45, 0x00, 0x01, 0x92, 0x48, 0x4c, 0x00, 0x92, 0x43, 0x4c, 0x00, 0x92,
  0x3f, 0x4c, 0x00, 0x92, 0x39, 0x4c, 0x81, 0x6f, 0x82, 0x48, 0x00, 0x00,
  0x82, 0x43, 0x00, 0x00, 0x82, 0x3f, 0x00, 0x00, 0x82, 0x39, 0x00, 0x01,
  0x92, 0x4a, 0x4c, 0x82, 0x67, 0x82, 0x4a, 0x00, 0x01, 0x92, 0x48, 0x4c,
  0x82, 0x67, 0x82, 0x48, 0x00, 0x01, 0x92, 0x4b, 0x4c, 0x00, 0x92, 0x46,
  0x4c, 0x00, 0x92, 0x42, 0x4c, 0x00, 0x92, 0x3c, 0x4c, 0x81, 0x6f, 0x82,
  0x4b, 0x00, 0x00, 0x82, 0x46, 0x00, 0x00, 0x82, 0x42, 0x00, 0x00, 0x82,
  0x3c, 0x00, 0x01, 0x92, 0x4d, 0x4c, 0x00, 0x92, 0x46, 0x4c, 0x00, 0x92,
  0x42, 0x4c, 0x00, 0x92, 0x3c, 0x4c, 0x82, 0x67, 0x82, 0x2b, 0x00, 0x00,
  0x82, 0x43, 0x00, 0x00, 0x82, 0x4d, 0x00, 0x00, 0x82, 0x46, 0x00, 0x00,
  0x82, 0x42, 0x00, 0x00, 0x82, 0x3c, 0x00, 0x01, 0x92, 0x4b, 0x4c, 0x00,
  0x92, 0x46, 0x4c, 0x00, 0x92, 0x42, 0x4c, 0x00, 0x92, 0x3c, 0x4c, 0x77,
  0x82, 0x2a, 0x00, 0x00, 0x82, 0x42, 0x00, 0x81, 0x70, 0x82, 0x42, 0x00,
  0x00, 0x82, 0x4b, 0x00, 0x00, 0x82, 0x46, 0x00, 0x00, 0x82, 0x3c, 0x00,
  0x01, 0x92, 0x4c, 0x4c, 0x00, 0x92, 0x47, 0x4c, 0x00, 0x92, 0x40, 0x4c,
  0x00, 0x92, 0x3c, 0x4c, 0x87, 0x3f, 0x82, 0x4c, 0x00, 0x00, 0x82, 0x47,
  0x00, 0x00, 0x82, 0x40, 0x00, 0x00, 0x82, 0x3c, 0x00, 0x01, 0x92, 0x36,
  0x4c, 0x77, 0x82, 0x36, 0x00, 0x01, 0x92, 0x39, 0x4c, 0x77, 0x82, 0x39,
  0x00, 0x01, 0x92, 0x37, 0x4c, 0x77, 0x82, 0x37, 0x00, 0x01, 0x92, 0x40,
  0x4c, 0x77, 0x82, 0x40, 0x00, 0x01, 0x92, 0x39, 0x4c, 0x77, 0x82, 0x39,
  0x00, 0x01, 0x92, 0x42, 0x4c, 0x77, 0x82, 0x42, 0x00, 0x01, 0x92, 0x40,
  0x4c, 0x77, 0x82, 0x40, 0x00, 0x01, 0x92, 0x43, 0x4c, 0x77, 0x82, 0x43,
  0x00, 0x01, 0x92, 0x42, 0x4c, 0x81, 0x6f, 0x82, 0x42, 0x00, 0x01, 0x92,
  0x43, 0x4c, 0x00, 0x92, 0x42, 0x4c, 0x77, 0x82, 0x43, 0x00, 0x00, 0x82,
  0x42, 0x00, 0x01, 0x92, 0x40, 0x4c, 0x00, 0x92, 0x3e, 0x4c, 0x77, 0x82,
  0x40, 0x00, 0x00, 0x82, 0x3e, 0x00, 0x01, 0x92, 0x42, 0x4c, 0x77, 0x82,
  0x42, 0x00, 0x01, 0x92, 0x42, 0x4c, 0x77, 0x82, 0x42, 0x00, 0x01, 0x92,
  0x40, 0x4c, 0x77, 0x82, 0x40, 0x00, 0x01, 0x92, 0x3e, 0x4c, 0x77, 0x82,
  0x3e, 0x00, 0x01, 0x92, 0x42, 0x4c, 0x77, 0x82, 0x42, 0x00, 0x01, 0x92,
  0x40, 0x4c, 0x77, 0x82, 0x40, 0x00, 0x01, 0x92, 0x3e, 0x4c, 0x77, 0x82,
  0x3e, 0x00, 0x01, 0x92, 0x40, 0x4c, 0x77, 0x82, 0x40, 0x00, 0x01, 0x92,
  0x3c, 0x4c, 0x77, 0x82, 0x3c, 0x00, 0x01, 0x92, 0x43, 0x4c, 0x77, 0x82,
  0x43, 0x00, 0x01, 0x92, 0x3b, 0x4c, 0x77, 0x82, 0x3b, 0x00, 0x01, 0x92,
  0x46, 0x4c, 0x77, 0x82, 0x46, 0x00, 0x01, 0x92, 0x4b, 0x4c, 0x00, 0x92,
  0x45, 0x4c, 0x00, 0x92, 0x42, 0x4c, 0x81, 0x6f, 0x82, 0x4b, 0x00, 0x00,
  0x82, 0x45, 0x00, 0x00, 0x82, 0x42, 0x00, 0x01, 0x92, 0x4c, 0x4c, 0x00,
  0x92, 0x4b, 0x4c, 0x77, 0x82, 0x4c, 0x00, 0x00, 0x82, 0x4b, 0x00, 0x01,
  0x92, 0x48, 0x4c, 0x77, 0x82, 0x48, 0x00, 0x01, 0x92, 0x47, 0x4c, 0x77,
  0x82, 0x47, 0x00, 0x01, 0x92, 0x46, 0x4c, 0x77, 0x82, 0x46, 0x00, 0x01,
  0x92, 0x47, 0x4c, 0x77, 0x82, 0x47, 0x00, 0x01, 0x92, 0x48, 0x4c, 0x77,
  0x82, 0x48, 0x00, 0x01, 0x92, 0x47, 0x4c, 0x77, 0x82, 0x47, 0x00, 0x01,
  0x92, 0x46, 0x4c, 0x77, 0x82, 0x46, 0x00, 0x01, 0x92, 0x43, 0x4c, 0x77,
  0x82, 0x43, 0x00, 0x01, 0x92, 0x42, 0x4c, 0x77, 0x82, 0x42, 0x00, 0x01,
  0x92, 0x46, 0x4c, 0x77, 0x82, 0x46, 0x00, 0x01, 0x92, 0x43, 0x4c, 0x77,
  0x82, 0x43, 0x00, 0x01, 0x92, 0x42, 0x4c, 0x77, 0x82, 0x42, 0x00, 0x01,
  0x92, 0x40, 0x4c, 0x77, 0x82, 0x40, 0x00, 0x01, 0x92, 0x47, 0x4c, 0x00,
  0x92, 0x42, 0x4c, 0x00, 0x92, 0x3f, 0x4c, 0x81, 0x6f, 0x82, 0x47, 0x00,
  0x00, 0x82, 0x42, 0x00, 0x00, 0x82, 0x3f, 0x00, 0x01, 0x92, 0x40, 0x4c,
  0x00, 0x92, 0x3f, 0x4c, 0x77, 0x82, 0x40, 0x00, 0x00, 0x82, 0x3f, 0x00,
  0x01, 0x92, 0x3c, 0x4c, 0x77, 0x82, 0x3c, 0x00, 0x01, 0x92, 0x3b, 0x4c,
  0x77, 0x82, 0x3b, 0x00, 0x01, 0x92, 0x3a, 0x4c, 0x77, 0x82, 0x3a, 0x00,
  0x01, 0x92, 0x3b, 0x4c, 0x77, 0x82, 0x3b, 0x00, 0x01, 0x92, 0x3c, 0x4c,
  0x77, 0x82, 0x3c, 0x00, 0x01, 0x92, 0x3b, 0x4c, 0x77, 0x82, 0x3b, 0x00,
  0x01, 0x92, 0x3a, 0x4c, 0x77, 0x82, 0x3a, 0x00, 0x01, 0x92, 0x37, 0x4c,
  0x77, 0x82, 0x37, 0x00, 0x01, 0x92, 0x36, 0x4c, 0x77, 0x82, 0x36, 0x00,
  0x01, 0x92, 0x3a, 0x4c, 0x77, 0x82, 0x3a, 0x00, 0x01, 0x92, 0x37, 0x4c,
  0x77, 0x82, 0x37, 0x00, 0x01, 0x92, 0x36, 0x4c, 0x77, 0x82, 0x36, 0x00,
  0x01, 0x92, 0x34, 0x4c, 0x77, 0x82, 0x34, 0x00, 0x83, 0x61, 0x92, 0x34,
  0x4c, 0x77, 0x82, 0x34, 0x00, 0x01, 0x92, 0x37, 0x4c, 0x77, 0x82, 0x37,
  0x00, 0x01, 0x92, 0x3e, 0x4c, 0x77, 0x82, 0x3e, 0x00, 0x01, 0x92, 0x40,
  0x4c, 0x77, 0x82, 0x40, 0x00, 0x01, 0x92, 0x40, 0x4c, 0x77, 0x82, 0x40,
  0x00, 0x01, 0x92, 0x42, 0x4c, 0x77, 0x82, 0x42, 0x00, 0x01, 0x92, 0x40,
  0x4c, 0x77, 0x82, 0x40, 0x00, 0x01, 0x92, 0x3b, 0x4c, 0x77, 0x82, 0x3b,
  0x00, 0x01, 0x92, 0x37, 0x4c, 0x77, 0x82, 0x37, 0x00, 0x01, 0x92, 0x36,
  0x4c, 0x77, 0x82, 0x36, 0x00, 0x01, 0x92, 0x33, 0x4c, 0x77, 0x82, 0x33,
  0x00, 0x01, 0x92, 0x30, 0x4c, 0x77, 0x82, 0x30, 0x00, 0x01, 0x92, 0x30,
  0x4c, 0x77, 0x82, 0x30, 0x00, 0x01, 0x92, 0x33, 0x4c, 0x77, 0x82, 0x33,
  0x00, 0x01, 0x92, 0x3c, 0x4c, 0x77, 0x82, 0x3c, 0x00, 0x01, 0x92, 0x3b,
  0x4c, 0x77, 0x82, 0x3b, 0x00, 0x01, 0x92, 0x4c, 0x4c, 0x77, 0x82, 0x4c,
  0x00, 0x01, 0x92, 0x47, 0x4c, 0x77, 0x82, 0x47, 0x00, 0x01, 0x92, 0x43,
  0x4c, 0x77, 0x82, 0x43, 0x00, 0x01, 0x92, 0x4e, 0x4c, 0x77, 0x82, 0x4e,
  0x00, 0x01, 0x92, 0x4e, 0x4c, 0x77, 0x82, 0x4e, 0x00, 0x01, 0x92, 0x4a,
  0x4c, 0x77, 0x82, 0x4a, 0x00, 0x01, 0x92, 0x45, 0x4c, 0x77, 0x82, 0x45,
  0x00, 0x01, 0x92, 0x4a, 0x4c, 0x77, 0x82, 0x4a, 0x00, 0x01, 0x92, 0x4a,
  0x4c, 0x77, 0x82, 0x4a, 0x00, 0x01, 0x92, 0x4f, 0x4c, 0x78, 0x92, 0x53,
  0x4c, 0x77, 0x82, 0x53, 0x00, 0x01, 0x92, 0x58, 0x4c, 0x77, 0x82, 0x58,
  0x00, 0x01, 0x92, 0x4e, 0x4c, 0x83, 0x5f, 0x82, 0x4e, 0x00, 0x81, 0x70,
  0x82, 0x4f, 0x00, 0x84, 0x59, 0x92, 0x37, 0x4c, 0x00, 0x92, 0x32, 0x4c,
  0x00, 0x92, 0x2d, 0x4c, 0x77, 0x82, 0x37, 0x00, 0x00, 0x82, 0x32, 0x00,
  0x00, 0x82, 0x2d, 0x00, 0x01, 0x92, 0x33, 0x4c, 0x77, 0x82, 0x33, 0x00,
  0x01, 0x92, 0x36, 0x4c, 0x77, 0x82, 0x36, 0x00, 0x01, 0x92, 0x3c, 0x4c,
  0x77, 0x82, 0x3c, 0x00, 0x01, 0x92, 0x53, 0x4c, 0x77, 0x82, 0x53, 0x00,
  0x01, 0x92, 0x39, 0x4c, 0x77, 0x82, 0x39, 0x00, 0x01, 0x92, 0x3b, 0x4c,
  0x77, 0x82, 0x3b, 0x00, 0x01, 0x92, 0x33, 0x4c, 0x77, 0x82, 0x33, 0x00,
  0x01, 0x92, 0x3b, 0x4c, 0x77, 0x82, 0x3b, 0x00, 0x01, 0x92, 0x30, 0x4c,
  0x77, 0x82, 0x30, 0x00, 0x01, 0x92, 0x3b, 0x4c, 0x77, 0x82, 0x3b, 0x00,
  0x01, 0x92, 0x30, 0x4c, 0x77, 0x82, 0x30, 0x00, 0x01, 0x92, 0x33, 0x4c,
  0x77, 0x82, 0x33, 0x00, 0x01, 0x92, 0x39, 0x4c, 0x77, 0x82, 0x39, 0x00,
  0x01, 0x92, 0x37, 0x4c, 0x77, 0x82, 0x37, 0x00, 0x01, 0x92, 0x36, 0x4c,
  0x77, 0x82, 0x36, 0x00, 0x01, 0x92, 0x37, 0x4c, 0x77, 0x82, 0x37, 0x00,
  0x01, 0x92, 0x30, 0x4c, 0x77, 0x82, 0x30, 0x00, 0x01, 0x92, 0x37, 0x4c,
  0x77, 0x82, 0x37, 0x00, 0x01, 0x92, 0x2d, 0x4c, 0x77, 0x82, 0x2d, 0x00,
  0x01, 0x92, 0x36, 0x4c, 0x77, 0x82, 0x36, 0x00, 0x01, 0x92, 0x37, 0x4c,
  0x00, 0x92, 0x30, 0x4c, 0x00, 0x92, 0x2b, 0x4c, 0x82, 0x67, 0x82, 0x37,
  0x00, 0x00, 0x82, 0x30, 0x00, 0x00, 0x82, 0x2b, 0x00, 0x01, 0x92, 0x53,
  0x4c, 0x00, 0x92, 0x4e, 0x4c, 0x00, 0x92, 0x4a, 0x4c, 0x00, 0x92, 0x4a,
  0x4c, 0x00, 0x92, 0x4e, 0x4c, 0x00, 0x92, 0x53, 0x4c, 0x77, 0x82, 0x53,
  0x00, 0x00, 0x82, 0x4e, 0x00, 0x00, 0x82, 0x4a, 0x00, 0x00, 0x82, 0x4a,
  0x00, 0x00, 0x82, 0x4e, 0x00, 0x00, 0x82, 0x53, 0x00, 0x01, 0x92, 0x4a,
  0x4c, 0x00, 0x92, 0x4e, 0x4c, 0x00, 0x92, 0x53, 0x4c, 0x77, 0x82, 0x4a,
  0x00, 0x00, 0x82, 0x4e, 0x00, 0x00, 0x82, 0x53, 0x00, 0x01, 0x92, 0x4a,
  0x4c, 0x00, 0x92, 0x4e, 0x4c, 0x00, 0x92, 0x53, 0x4c, 0x77, 0x82, 0x4a,
  0x00, 0x00, 0x82, 0x4e, 0x00, 0x00, 0x82, 0x53, 0x00, 0x01, 0x92, 0x4a,
  0x4c, 0x00, 0x92, 0x4e, 0x4c, 0x00, 0x92, 0x53, 0x4c, 0x77, 0x82, 0x4a,
  0x00, 0x00, 0x82, 0x4e, 0x00, 0x00, 0x82, 0x53, 0x00, 0x01, 0x92, 0x3a,
  0x4c, 0x77, 0x82, 0x3a, 0x00, 0x01, 0x92, 0x3b, 0x4c, 0x77, 0x82, 0x3b,
  0x00, 0x01, 0x92, 0x3b, 0x4c, 0x77, 0x82, 0x3b, 0x00, 0x01, 0x92, 0x39,
  0x4c, 0x77, 0x82, 0x39, 0x00, 0x01, 0x92, 0x37, 0x4c, 0x77, 0x82, 0x37,
  0x00, 0x01, 0x92, 0x36, 0x4c, 0x00, 0x92, 0x37, 0x4c, 0x77, 0x82, 0x36,
  0x00, 0x00, 0x82, 0x37, 0x00, 0x01, 0x92, 0x36, 0x4c, 0x77, 0x82, 0x36,
  0x00, 0x01, 0x92, 0x34, 0x4c, 0x77, 0x82, 0x34, 0x00, 0x01, 0x92, 0x33,
  0x4c, 0x77, 0x82, 0x33, 0x00, 0x01, 0x92, 0x37, 0x4c, 0x77, 0x82, 0x37,
  0x00, 0x01, 0x92, 0x30, 0x4c, 0x77, 0x82, 0x30, 0x00, 0x01, 0x92, 0x2d,
  0x4c, 0x77, 0x82, 0x2d, 0x00, 0x01, 0x92, 0x28, 0x4c, 0x77, 0x82, 0x28,
  0x00, 0x01, 0x92, 0x2a, 0x4c, 0x77, 0x82, 0x2a, 0x00, 0x01, 0x92, 0x2b,
  0x4c, 0x77, 0x82, 0x2b, 0x00, 0x01, 0x92, 0x2d, 0x4c, 0x77, 0x82, 0x2d,
  0x00, 0x01, 0x92, 0x34, 0x4c, 0x77, 0x82, 0x34, 0x00, 0x01, 0x92, 0x33,
  0x4c, 0x77, 0x82, 0x33, 0x00, 0x01, 0x92, 0x37, 0x4c, 0x77, 0x82, 0x37,
  0x00, 0x01, 0x92, 0x36, 0x4c, 0x77, 0x82, 0x36, 0x00, 0x01, 0x92, 0x34,
  0x4c, 0x77, 0x82, 0x34, 0x00, 0x01, 0x92, 0x33, 0x4c, 0x00, 0x92, 0x34,
  0x4c, 0x77, 0x82, 0x33, 0x00, 0x00, 0x82, 0x34, 0x00, 0x01, 0x92, 0x33,
  0x4c, 0x77, 0x82, 0x33, 0x00, 0x01, 0x92, 0x30, 0x4c, 0x77, 0x82, 0x30,
  0x00, 0x01, 0x92, 0x2f, 0x4c, 0x77, 0x82, 0x2f, 0x00, 0x01, 0x92, 0x36,
  0x4c, 0x00, 0x92, 0x2a, 0x4c, 0x00, 0x92, 0x2f, 0x4c, 0x83, 0x5f, 0x82,
  0x36, 0x00, 0x00, 0x82, 0x2a, 0x00, 0x00, 0x82, 0x2f, 0x00, 0x01, 0x92,
  0x2a, 0x4c, 0x00, 0x92, 0x2f, 0x4c, 0x77, 0x82, 0x2a, 0x00, 0x00, 0x82,
  0x2f, 0x00, 0x01, 0x92, 0x36, 0x4c, 0x77, 0x82, 0x36, 0x00, 0x01, 0x92,
  0x39, 0x4c, 0x00, 0x92, 0x3b, 0x4c, 0x77, 0x82, 0x39, 0x00, 0x00, 0x82,
  0x3b, 0x00, 0x01, 0x92, 0x40, 0x4c, 0x77, 0x82, 0x40, 0x00, 0x01, 0xe2,
  0x55, 0x4a, 0x00, 0x92, 0x3f, 0x4c, 0x00, 0xe2, 0x0d, 0x48, 0x78, 0xe2,
  0x45, 0x45, 0x00, 0xe2, 0x7e, 0x42, 0x78, 0xe2, 0x36, 0x40, 0x00, 0xe2,
  0x00, 0x40, 0x81, 0x6f, 0x82, 0x3f, 0x00, 0x01, 0xe2, 0x00, 0x40, 0x00,
  0x92, 0x2d, 0x4c, 0x00, 0x92, 0x30, 0x4c, 0x77, 0x82, 0x2d, 0x00, 0x00,
  0x82, 0x30, 0x00, 0x01, 0x92, 0x37, 0x4c, 0x77, 0x82, 0x37, 0x00, 0x01,
  0x92, 0x37, 0x4c, 0x00, 0x92, 0x3b, 0x4c, 0x77, 0x82, 0x37, 0x00, 0x00,
  0x82, 0x3b, 0x00, 0x01, 0x92, 0x3c, 0x4c, 0x77, 0x82, 0x3c, 0x00, 0x01,
  0x92, 0x3b, 0x4c, 0x00, 0x92, 0x36, 0x4c, 0x00, 0x92, 0x37, 0x4c, 0x83,
  0x5f, 0x82, 0x3b, 0x00, 0x00, 0x82, 0x36, 0x00, 0x00, 0x82, 0x37, 0x00,
  0x01, 0x92, 0x2a, 0x4c, 0x00, 0x92, 0x2f, 0x4c, 0x77, 0x82, 0x2a, 0x00,
  0x00, 0x82, 0x2f, 0x00, 0x01, 0x92, 0x36, 0x4c, 0x77, 0x82, 0x36, 0x00,
  0x01, 0x92, 0x39, 0x4c, 0x00, 0x92, 0x3f, 0x4c, 0x77, 0x82, 0x39, 0x00,
  0x00, 0x82, 0x3f, 0x00, 0x01, 0x92, 0x42, 0x4c, 0x77, 0x82, 0x42, 0x00,
  0x01, 0x92, 0x43, 0x4c, 0x77, 0x82, 0x43, 0x00, 0x01, 0x92, 0x42, 0x4c,
  0x77, 0x82, 0x42, 0x00, 0x01, 0x92, 0x3f, 0x4c, 0x77, 0x82, 0x3f, 0x00,
  0x01, 0x92, 0x39, 0x4c, 0x77, 0x82, 0x39, 0x00, 0x01, 0x92, 0x42, 0x4c,
  0x77, 0x82, 0x42, 0x00, 0x01, 0x92, 0x3f, 0x4c, 0x77, 0x82, 0x3f, 0x00,
  0x01, 0x92, 0x39, 0x4c, 0x77, 0x82, 0x39, 0x00, 0x01, 0x92, 0x36, 0x4c,
  0x77, 0x82, 0x36, 0x00, 0xbc, 0x01, 0x92, 0x3c, 0x4c, 0x00, 0x92, 0x40,
  0x4c, 0x84, 0x57, 0x82, 0x3c, 0x00, 0x00, 0x82, 0x40, 0x00, 0x82, 0x69,
  0x92, 0x47, 0x4c, 0x83, 0x5f, 0x82, 0x47, 0x00, 0x01, 0x92, 0x40, 0x4c,
  0x83, 0x5f, 0x82, 0x40, 0x00, 0x01, 0x92, 0x3c, 0x4c, 0x87, 0x40, 0x92,
  0x43, 0x4c, 0x77, 0x82, 0x43, 0x00, 0x01, 0x92, 0x42, 0x4c, 0x77, 0x82,
  0x42, 0x00, 0x01, 0x92, 0x40, 0x4c, 0x77, 0x82, 0x40, 0x00, 0x01, 0x92,
  0x3c, 0x4c, 0x81, 0x6f, 0x82, 0x3c, 0x00, 0x01, 0x92, 0x3b, 0x4c, 0x77,
  0x82, 0x3b, 0x00, 0x01, 0x92, 0x43, 0x4c, 0x77, 0x82, 0x43, 0x00, 0x01,
  0x92, 0x4c, 0x4c, 0x77, 0x82, 0x4c, 0x00, 0x01, 0x92, 0x3f, 0x4c, 0x00,
  0x92, 0x39, 0x4c, 0x00, 0x92, 0x33, 0x4c, 0x00, 0x92, 0x2f, 0x4c, 0x77,
  0x82, 0x3c, 0x00, 0x82, 0x68, 0x82, 0x3f, 0x00, 0x00, 0x82, 0x39, 0x00,
  0x00, 0x82, 0x33, 0x00, 0x00, 0x82, 0x2f, 0x00, 0x01, 0x92, 0x3b, 0x4c,
  0x81, 0x6f, 0x82, 0x3b, 0x00, 0x01, 0x92, 0x39, 0x4c, 0x81, 0x6f, 0x82,
  0x39, 0x00, 0x01, 0x92, 0x45, 0x4c, 0x81, 0x6f, 0x82, 0x45, 0x00, 0x01,
  0x92, 0x47, 0x4c, 0x77, 0x82, 0x47, 0x00, 0x01, 0x92, 0x45, 0x4c, 0x81,
  0x6f, 0x82, 0x45, 0x00, 0x01, 0x92, 0x3f, 0x4c, 0x77, 0x82, 0x3f, 0x00,
  0x01, 0x92, 0x4e, 0x4c, 0x77, 0x82, 0x4e, 0x00, 0x01, 0x92, 0x53, 0x4c,
  0x77, 0x82, 0x53, 0x00, 0x01, 0x92, 0x39, 0x4c, 0x00, 0x92, 0x33, 0x4c,
  0x00, 0x92, 0x3f, 0x4c, 0x00, 0x92, 0x2f, 0x4c, 0x81, 0x6f, 0x82, 0x39,
  0x00, 0x00, 0x82, 0x33, 0x00, 0x00, 0x82, 0x3f, 0x00, 0x00, 0x82, 0x2f,
  0x00, 0x01, 0x92, 0x40, 0x4c, 0x77, 0x82, 0x40, 0x00, 0x01, 0x92, 0x3f,
  0x4c, 0x81, 0x6f, 0x82, 0x3f, 0x00, 0x01, 0x92, 0x33, 0x4c, 0x77, 0x82,
  0x33, 0x00, 0x01, 0x92, 0x39, 0x4c, 0x77, 0x82, 0x39, 0x00, 0x01, 0x92,
  0x3b, 0x4c, 0x77, 0x82, 0x3b, 0x00, 0x01, 0x92, 0x43, 0x4c, 0x83, 0x60,
  0x92, 0x33, 0x4c, 0x77, 0x82, 0x33, 0x00, 0x01, 0x92, 0x39, 0x4c, 0x77,
  0x82, 0x43, 0x00, 0x00, 0x82, 0x39, 0x00, 0x01, 0x92, 0x4b, 0x4c, 0x81,
  0x6f, 0x82, 0x4b, 0x00, 0x01, 0x92, 0x37, 0x4c, 0x00, 0x92, 0x28, 0x4c,
  0x87, 0x3f, 0x82, 0x37, 0x00, 0x00, 0x82, 0x28, 0x00, 0x01, 0x92, 0x40,
  0x4c, 0x83, 0x5f, 0x82, 0x40, 0x00, 0x01, 0x92, 0x3b, 0x4c, 0x83, 0x5f,
  0x82, 0x3b, 0x00, 0x01, 0x92, 0x48, 0x4c, 0x00, 0x92, 0x30, 0x4c, 0x81,
  0x6f, 0x82, 0x48, 0x00, 0x00, 0x82, 0x30, 0x00, 0x01, 0x92, 0x30, 0x4c,
  0x77, 0x82, 0x30, 0x00, 0x01, 0x92, 0x45, 0x4c, 0x77, 0x82, 0x45, 0x00,
  0x01, 0x92, 0x47, 0x4c, 0x77, 0x82, 0x47, 0x00, 0x01, 0x92, 0x30, 0x4c,
  0x77, 0x82, 0x30, 0x00, 0x01, 0x92, 0x3b, 0x4c, 0x81, 0x6f, 0x82, 0x3b,
  0x00, 0x01, 0x92, 0x30, 0x4c, 0x77, 0x82, 0x30, 0x00, 0x01, 0x92, 0x37,
  0x4c, 0x00, 0x92, 0x3b, 0x4c, 0x81, 0x6f, 0x82, 0x37, 0x00, 0x00, 0x82,
  0x3b, 0x00, 0x01, 0x92, 0x30, 0x4c, 0x77, 0x82, 0x30, 0x00, 0x01, 0x92,
  0x4c, 0x4c, 0x00, 0x92, 0x47, 0x4c, 0x00, 0x92, 0x43, 0x4c, 0x81, 0x6f,
  0x82, 0x4c, 0x00, 0x00, 0x82, 0x47, 0x00, 0x00, 0x82, 0x43, 0x00, 0x01,
  0x92, 0x28, 0x4c, 0x81, 0x6f, 0x82, 0x28, 0x00, 0x01, 0x92, 0x3f, 0x4c,
  0x00, 0x92, 0x39, 0x4c, 0x00, 0x92, 0x33, 0x4c, 0x00, 0x92, 0x2f, 0x4c,
  0x87, 0x3f, 0x82, 0x3f, 0x00, 0x00, 0x82, 0x39, 0x00, 0x00, 0x82, 0x33,
  0x00, 0x00, 0x82, 0x2f, 0x00, 0x01, 0x92, 0x3b, 0x4c, 0x83, 0x5f, 0x82,
  0x3b, 0x00, 0x01, 0x92, 0x39, 0x4c, 0x83, 0x5f, 0x82, 0x39, 0x00, 0x01,
  0x92, 0x3f, 0x4c, 0x00, 0x92, 0x2f, 0x4c, 0x83, 0x5f, 0x82, 0x3f, 0x00,
  0x00, 0x82, 0x2f, 0x00, 0x01, 0x92, 0x39, 0x4c, 0x81, 0x6f, 0x82, 0x39,
  0x00, 0x01, 0x92, 0x33, 0x4c, 0x83, 0x5f, 0x82, 0x33, 0x00, 0x01, 0x92,
  0x3b, 0x4c, 0x81, 0x6f, 0x82, 0x3b, 0x00, 0x01, 0x92, 0x36, 0x4c, 0x81,
  0x6f, 0x82, 0x36, 0x00, 0x01, 0x92, 0x33, 0x4c, 0x81, 0x6f, 0x82, 0x33,
  0x00, 0x87, 0x41, 0x92, 0x47, 0x4c, 0x83, 0x5f, 0x82, 0x47, 0x00, 0x01,
  0x92, 0x40, 0x4c, 0x83, 0x5f, 0x82, 0x40, 0x00, 0x87, 0x41, 0x92, 0x43,
  0x4c, 0x77, 0x82, 0x43, 0x00, 0x01, 0x92, 0x42, 0x4c, 0x77, 0x82, 0x42,
  0x00, 0x01, 0x92, 0x40, 0x4c, 0x77, 0x82, 0x40, 0x00, 0x01, 0x92, 0x3c,
  0x4c, 0x81, 0x6f, 0x82, 0x3c, 0x00, 0x01, 0x92, 0x3b, 0x4c, 0x77, 0x82,
  0x3b, 0x00, 0x01, 0x92, 0x43, 0x4c, 0x77, 0x82, 0x43, 0x00, 0x01, 0x92,
  0x4c, 0x4c, 0x77, 0x82, 0x4c, 0x00, 0x01, 0x92, 0x3f, 0x4c, 0x00, 0x92,
  0x39, 0x4c, 0x00, 0x92, 0x33, 0x4c, 0x00, 0x92, 0x2f, 0x4c, 0x83, 0x5f,
  0x82, 0x3f, 0x00, 0x00, 0x82, 0x39, 0x00, 0x00, 0x82, 0x33, 0x00, 0x00,
  0x82, 0x2f, 0x00, 0x01, 0x92, 0x3b, 0x4c, 0x81, 0x6f, 0x82, 0x3b, 0x00,
  0x01, 0x92, 0x39, 0x4c, 0x81, 0x6f, 0x82, 0x39, 0x00, 0x01, 0x92, 0x45,
  0x4c, 0x81, 0x6f, 0x82, 0x45, 0x00, 0x01, 0x92, 0x47, 0x4c, 0x77, 0x82,
  0x47, 0x00, 0x01, 0x92, 0x45, 0x4c, 0x81, 0x6f, 0x82, 0x45, 0x00, 0x01,
  0x92, 0x3f, 0x4c, 0x77, 0x82, 0x3f, 0x00, 0x01, 0x92, 0x4e, 0x4c, 0x77,
  0x82, 0x4e, 0x00, 0x01, 0x92, 0x53, 0x4c, 0x77, 0x82, 0x53, 0x00, 0x01,
  0x92, 0x39, 0x4c, 0x00, 0x92, 0x33, 0x4c, 0x00, 0x92, 0x3f, 0x4c, 0x00,
  0x92, 0x2f, 0x4c, 0x81, 0x6f, 0x82, 0x39, 0x00, 0x00, 0x82, 0x33, 0x00,
  0x00, 0x82, 0x3f, 0x00, 0x00, 0x82, 0x2f, 0x00, 0x01, 0x92, 0x40, 0x4c,
  0x77, 0x82, 0x40, 0x00, 0x01, 0x92, 0x3f, 0x4c, 0x81, 0x6f, 0x82, 0x3f,
  0x00, 0x01, 0x92, 0x33, 0x4c, 0x77, 0x82, 0x33, 0x00, 0x01, 0x92, 0x39,
  0x4c, 0x77, 0x82, 0x39, 0x00, 0x01, 0x92, 0x3b, 0x4c, 0x77, 0x82, 0x3b,
  0x00, 0x83, 0x61, 0x92, 0x33, 0x4c, 0x77, 0x82, 0x33, 0x00, 0x01, 0x92,
  0x39, 0x4c, 0x77, 0x82, 0x39, 0x00, 0x01, 0x92, 0x4b, 0x4c, 0x81, 0x6f,
  0x82, 0x4b, 0x00, 0x01, 0x92, 0x3b, 0x4c, 0x81, 0x6f, 0x82, 0x3b, 0x00,
  0x01, 0x92, 0x47, 0x4c, 0x81, 0x6f, 0x82, 0x47, 0x00, 0x01, 0x92, 0x3b,
  0x4c, 0x81, 0x6f, 0x82, 0x3b, 0x00, 0x01, 0x92, 0x36, 0x4c, 0x81, 0x6f,
  0x82, 0x36, 0x00, 0x01, 0x92, 0x42, 0x4c, 0x81, 0x6f, 0x82, 0x42, 0x00,
  0x01, 0x92, 0x3b, 0x4c, 0x81, 0x6f, 0x82, 0x3b, 0x00, 0x01, 0x92, 0x3e,
  0x4c, 0x81, 0x6f, 0x82, 0x3e, 0x00, 0x01, 0x92, 0x4a, 0x4c, 0x81, 0x6f,
  0x82, 0x4a, 0x00, 0x01, 0x92, 0x3b, 0x4c, 0x81, 0x6f, 0x82, 0x3b, 0x00,
  0x01, 0x92, 0x47, 0x4c, 0x81, 0x6f, 0x82, 0x47, 0x00, 0x01, 0x92, 0x3b,
  0x4c, 0x81, 0x6f, 0x82, 0x3b, 0x00, 0x01, 0x92, 0x36, 0x4c, 0x81, 0x6f,
  0x82, 0x36, 0x00, 0x01, 0x92, 0x42, 0x4c, 0x81, 0x6f, 0x82, 0x42, 0x00,
  0x01, 0x92, 0x3b, 0x4c, 0x81, 0x6f, 0x82, 0x3b, 0x00, 0x01, 0x92, 0x3e,
  0x4c, 0x81, 0x6f, 0x82, 0x3e, 0x00, 0x01, 0x92, 0x4a, 0x4c, 0x81, 0x6f,
  0x82, 0x4a, 0x00, 0x01, 0x92, 0x3b, 0x4c, 0x81, 0x6f, 0x82, 0x3b, 0x00,
  0x01, 0x92, 0x47, 0x4c, 0x81, 0x6f, 0x82, 0x47, 0x00, 0x01, 0x92, 0x3b,
  0x4c, 0x81, 0x6f, 0x82, 0x3b, 0x00, 0x01, 0x92, 0x36, 0x4c, 0x81, 0x6f,
  0x82, 0x36, 0x00, 0x01, 0x92, 0x42, 0x4c, 0x81, 0x6f, 0x82, 0x42, 0x00,
  0x01, 0x92, 0x3b, 0x4c, 0x81, 0x6f, 0x82, 0x3b, 0x00, 0x01, 0x92, 0x3e,
  0x4c, 0x81, 0x6f, 0x82, 0x3e, 0x00, 0x01, 0x92, 0x4a, 0x4c, 0x81, 0x6f,
  0x82, 0x4a, 0x00, 0x01, 0x92, 0x3b, 0x4c, 0x81, 0x6f, 0x82, 0x3b, 0x00,
  0x01, 0x92, 0x47, 0x4c, 0x81, 0x6f, 0x82, 0x47, 0x00, 0x01, 0x92, 0x3b,
  0x4c, 0x81, 0x6f, 0x82, 0x3b, 0x00, 0x01, 0x92, 0x36, 0x4c, 0x81, 0x6f,
  0x82, 0x36, 0x00, 0x01, 0x92, 0x42, 0x4c, 0x81, 0x6f, 0x82, 0x42, 0x00,
  0x01, 0x92, 0x3b, 0x4c, 0x81, 0x6f, 0x82, 0x3b, 0x00, 0x01, 0x92, 0x3e,
  0x4c, 0x81, 0x6f, 0x82, 0x3e, 0x00, 0x01, 0x92, 0x4a, 0x4c, 0x81, 0x6f,
  0x82, 0x4a, 0x00, 0x01, 0x92, 0x43, 0x4c, 0x81, 0x6f, 0x82, 0x43, 0x00,
  0x01, 0x92, 0x4f, 0x4c, 0x81, 0x6f, 0x82, 0x4f, 0x00, 0x01, 0x92, 0x43,
  0x4c, 0x81, 0x6f, 0x82, 0x43, 0x00, 0x01, 0x92, 0x40, 0x4c, 0x81, 0x6f,
  0x82, 0x40, 0x00, 0x01, 0x92, 0x4c, 0x4c, 0x81, 0x6f, 0x82, 0x4c, 0x00,
  0x01, 0x92, 0x45, 0x4c, 0x81, 0x6f, 0x82, 0x45, 0x00, 0x01, 0x92, 0x47,
  0x4c, 0x81, 0x6f, 0x82, 0x47, 0x00, 0x01, 0x92, 0x53, 0x4c, 0x81, 0x6f,
  0x82, 0x53, 0x00, 0x01, 0x92, 0x43, 0x4c, 0x81, 0x6f, 0x82, 0x43, 0x00,
  0x01, 0x92, 0x4f, 0x4c, 0x81, 0x6f, 0x82, 0x4f, 0x00, 0x01, 0x92, 0x43,
  0x4c, 0x81, 0x6f, 0x82, 0x43, 0x00, 0x01, 0x92, 0x40, 0x4c, 0x81, 0x6f,
  0x82, 0x40, 0x00, 0x01, 0x92, 0x4c, 0x4c, 0x81, 0x6f, 0x82, 0x4c, 0x00,
  0x01, 0x92, 0x45, 0x4c, 0x81, 0x6f, 0x82, 0x45, 0x00, 0x01, 0x92, 0x47,
  0x4c, 0x81, 0x6f, 0x82, 0x47, 0x00, 0x01, 0x92, 0x53, 0x4c, 0x81, 0x6f,
  0x82, 0x53, 0x00, 0x01, 0x92, 0x43, 0x4c, 0x81, 0x6f, 0x82, 0x43, 0x00,
  0x01, 0x92, 0x4f, 0x4c, 0x81, 0x6f, 0x82, 0x4f, 0x00, 0x01, 0x92, 0x43,
  0x4c, 0x81, 0x6f, 0x82, 0x43, 0x00, 0x01, 0x92, 0x40, 0x4c, 0x81, 0x6f,
  0x82, 0x40, 0x00, 0x01, 0x92, 0x4c, 0x4c, 0x81, 0x6f, 0x82, 0x4c, 0x00,
  0x01, 0x92, 0x45, 0x4c, 0x81, 0x6f, 0x82, 0x45, 0x00, 0x01, 0x92, 0x47,
  0x4c, 0x81, 0x6f, 0x82, 0x47, 0x00, 0x01, 0x92, 0x53, 0x4c, 0x81, 0x6f,
  0x82, 0x53, 0x00, 0x01, 0x92, 0x43, 0x4c, 0x81, 0x6f, 0x82, 0x43, 0x00,
  0x01, 0x92, 0x4f, 0x4c, 0x81, 0x6f, 0x82, 0x4f, 0x00, 0x01, 0x92, 0x43,
  0x4c, 0x81, 0x6f, 0x82, 0x43, 0x00, 0x01, 0x92, 0x40, 0x4c, 0x81, 0x6f,
  0x82, 0x40, 0x00, 0x87, 0x41, 0x92, 0x42, 0x4c, 0x00, 0x92, 0x3e, 0x4c,
  0x00, 0x92, 0x37, 0x4c, 0x00, 0x92, 0x34, 0x4c, 0x83, 0x5f, 0x82, 0x42,
  0x00, 0x00, 0x82, 0x3e, 0x00, 0x00, 0x82, 0x37, 0x00, 0x00, 0x82, 0x34,
  0x00, 0x81, 0x71, 0x92, 0x34, 0x4c, 0x83, 0x5f, 0x82, 0x34, 0x00, 0x83,
  0x61, 0x92, 0x34, 0x4c, 0x83, 0x5f, 0x82, 0x34, 0x00, 0x83, 0x61, 0x92,
  0x43, 0x4c, 0x00, 0x92, 0x3f, 0x4c, 0x00, 0x92, 0x38, 0x4c, 0x00, 0x92,
  0x35, 0x4c, 0x83, 0x5f, 0x82, 0x43, 0x00, 0x00, 0x82, 0x3f, 0x00, 0x00,
  0x82, 0x38, 0x00, 0x01, 0x92, 0x43, 0x4c, 0x00, 0x92, 0x3f, 0x4c, 0x00,
  0x92, 0x38, 0x4c, 0x81, 0x6f, 0x82, 0x35, 0x00, 0x00, 0x82, 0x43, 0x00,
  0x00, 0x82, 0x3f, 0x00, 0x00, 0x82, 0x38, 0x00, 0x81, 0x71, 0x92, 0x34,
  0x4c, 0x81, 0x70, 0x92, 0x42, 0x4c, 0x00, 0x92, 0x3e, 0x4c, 0x00, 0x92,
  0x37, 0x4c, 0x83, 0x5f, 0x82, 0x34, 0x00, 0x00, 0x82, 0x42, 0x00, 0x00,
  0x82, 0x3e, 0x00, 0x00, 0x82, 0x37, 0x00, 0x81, 0x71, 0x92, 0x34, 0x4c,
  0x83, 0x5f, 0x82, 0x34, 0x00, 0x83, 0x61, 0x92, 0x2f, 0x4c, 0x81, 0x70,
  0x92, 0x41, 0x4c, 0x00, 0x92, 0x3e, 0x4c, 0x00, 0x92, 0x39, 0x4c, 0x81,
  0x6f, 0x82, 0x2f, 0x00, 0x78, 0x82, 0x41, 0x00, 0x00, 0x82, 0x3e, 0x00,
  0x00, 0x82, 0x39, 0x00, 0x82, 0x69, 0x92, 0x43, 0x4c, 0x00, 0x92, 0x3e,
  0x4c, 0x00, 0x92, 0x38, 0x4c, 0x00, 0x92, 0x34, 0x4c, 0x83, 0x5f, 0x82,
  0x43, 0x00, 0x00, 0x82, 0x3e, 0x00, 0x00, 0x82, 0x38, 0x00, 0x01, 0x92,
  0x43, 0x4c, 0x00, 0x92, 0x3e, 0x4c, 0x00, 0x92, 0x38, 0x4c, 0x81, 0x6f,
  0x82, 0x34, 0x00, 0x00, 0x82, 0x43, 0x00, 0x00, 0x82, 0x3e, 0x00, 0x00,
  0x82, 0x38, 0x00, 0x81, 0x71, 0x92, 0x2d, 0x4c, 0x81, 0x70, 0x92, 0x40,
  0x4c, 0x00, 0x92, 0x3c, 0x4c, 0x00, 0x92, 0x37, 0x4c, 0x83, 0x5f, 0x82,
  0x2d, 0x00, 0x00, 0x82, 0x40, 0x00, 0x00, 0x82, 0x3c, 0x00, 0x00, 0x82,
  0x37, 0x00, 0x81, 0x71, 0x92, 0x2d, 0x4c, 0x83, 0x5f, 0x82, 0x2d, 0x00,
  0x83, 0x61, 0x92, 0x2d, 0x4c, 0x83, 0x5f, 0x82, 0x2d, 0x00, 0x83, 0x61,
  0x92, 0x43, 0x4c, 0x00, 0x92, 0x3f, 0x4c, 0x00, 0x92, 0x2f, 0x4c, 0x00,
  0x92, 0x39, 0x4c, 0x83, 0x5f, 0x82, 0x43, 0x00, 0x00, 0x82, 0x3f, 0x00,
  0x00, 0x82, 0x2f, 0x00, 0x00, 0x82, 0x39, 0x00, 0x01, 0x92, 0x43, 0x4c,
  0x00, 0x92, 0x3f, 0x4c, 0x00, 0x92, 0x2f, 0x4c, 0x00, 0x92, 0x39, 0x4c,
  0x81, 0x6f, 0x82, 0x43, 0x00, 0x00, 0x82, 0x3f, 0x00, 0x00, 0x82, 0x2f,
  0x00, 0x00, 0x82, 0x39, 0x00, 0x81, 0x71, 0x92, 0x34, 0x4c, 0x81, 0x70,
  0x92, 0x42, 0x4c, 0x00, 0x92, 0x3e, 0x4c, 0x00, 0x92, 0x37, 0x4c, 0x83,
  0x5f, 0x82, 0x34, 0x00, 0x00, 0x82, 0x42, 0x00, 0x00, 0x82, 0x3e, 0x00,
  0x00, 0x82, 0x37, 0x00, 0x81, 0x71, 0x92, 0x34, 0x4c, 0x83, 0x5f, 0x82,
  0x34, 0x00, 0x83, 0x61, 0x92, 0x42, 0x4c, 0x00, 0x92, 0x3d, 0x4c, 0x00,
  0x92, 0x37, 0x4c, 0x00, 0x92, 0x34, 0x4c, 0x85, 0x4f, 0x82, 0x42, 0x00,
  0x00, 0x82, 0x3d, 0x00, 0x00, 0x82, 0x37, 0x00, 0x00, 0x82, 0x34, 0x00,
  0x81, 0x71, 0x92, 0x34, 0x4c, 0x83, 0x5f, 0x82, 0x34, 0x00, 0x83, 0x61,
  0x92, 0x36, 0x4c, 0x83, 0x5f, 0x82, 0x36, 0x00, 0x83, 0x61, 0x92, 0x36,
  0x4c, 0x83, 0x5f, 0x82, 0x36, 0x00, 0x83, 0x61, 0x92, 0x2f, 0x4c, 0x83,
  0x5f, 0x82, 0x2f, 0x00, 0x83, 0x61, 0x92, 0x2f, 0x4c, 0x83, 0x5f, 0x82,
  0x2f, 0x00, 0x83, 0x61, 0x92, 0x34, 0x4c, 0x83, 0x5f, 0x82, 0x34, 0x00,
  0x83, 0x61, 0x92, 0x34, 0x4c, 0x83, 0x5f, 0x82, 0x34, 0x00, 0x83, 0x61,
  0x92, 0x2f, 0x4c, 0x81, 0x6f, 0x82, 0x2f, 0x00, 0x01, 0x92, 0x30, 0x4c,
  0x84, 0x57, 0x82, 0x30, 0x00, 0x79, 0x92, 0x30, 0x4c, 0x81, 0x6f, 0x82,
  0x30, 0x00, 0x01, 0x92, 0x2f, 0x4c, 0x84, 0x57, 0x82, 0x2f, 0x00, 0x79,
  0x92, 0x34, 0x4c, 0x81, 0x70, 0x92, 0x42, 0x4c, 0x00, 0x92, 0x3e, 0x4c,
  0x00, 0x92, 0x37, 0x4c, 0x83, 0x5f, 0x82, 0x34, 0x00, 0x00, 0x82, 0x42,
  0x00, 0x00, 0x82, 0x3e, 0x00, 0x00, 0x82, 0x37, 0x00, 0x81, 0x71, 0x92,
  0x34, 0x4c, 0x83, 0x5f, 0x82, 0x34, 0x00, 0x83, 0x61, 0x92, 0x34, 0x4c,
  0x83, 0x5f, 0x82, 0x34, 0x00, 0x83, 0x61, 0x92, 0x43, 0x4c, 0x00, 0x92,
  0x3f, 0x4c, 0x00, 0x92, 0x38, 0x4c, 0x00, 0x92, 0x35, 0x4c, 0x83, 0x5f,
  0x82, 0x43, 0x00, 0x00, 0x82, 0x3f, 0x00, 0x00, 0x82, 0x38, 0x00, 0x01,
  0x92, 0x43, 0x4c, 0x00, 0x92, 0x3f, 0x4c, 0x00, 0x92, 0x38, 0x4c, 0x81,
  0x6f, 0x82, 0x35, 0x00, 0x00, 0x82, 0x43, 0x00, 0x00, 0x82, 0x3f, 0x00,
  0x00, 0x82, 0x38, 0x00, 0x81, 0x71, 0x92, 0x34, 0x4c, 0x81, 0x70, 0x92,
  0x42, 0x4c, 0x00, 0x92, 0x3e, 0x4c, 0x00, 0x92, 0x37, 0x4c, 0x83, 0x5f,
  0x82, 0x34, 0x00, 0x00, 0x82, 0x42, 0x00, 0x00, 0x82, 0x3e, 0x00, 0x00,
  0x82, 0x37, 0x00, 0x81, 0x71, 0x92, 0x34, 0x4c, 0x83, 0x5f, 0x82, 0x34,
  0x00, 0x83, 0x61, 0x92, 0x2f, 0x4c, 0x81, 0x70, 0x92, 0x41, 0x4c, 0x00,
  0x92, 0x3e, 0x4c, 0x00, 0x92, 0x39, 0x4c, 0x81, 0x6f, 0x82, 0x2f, 0x00,
  0x78, 0x82, 0x41, 0x00, 0x00, 0x82, 0x3e, 0x00, 0x00, 0x82, 0x39, 0x00,
  0x82, 0x69, 0x92, 0x43, 0x4c, 0x00, 0x92, 0x3e, 0x4c, 0x00, 0x92, 0x38,
  0x4c, 0x00, 0x92, 0x34, 0x4c, 0x83, 0x5f, 0x82, 0x43, 0x00, 0x00, 0x82,
  0x3e, 0x00, 0x00, 0x82, 0x38, 0x00, 0x01, 0x92, 0x43, 0x4c, 0x00, 0x92,
  0x3e, 0x4c, 0x00, 0x92, 0x38, 0x4c, 0x81, 0x6f, 0x82, 0x34, 0x00, 0x00,
  0x82, 0x43, 0x00, 0x00, 0x82, 0x3e, 0x00, 0x00, 0x82, 0x38, 0x00, 0x81,
  0x71, 0x92, 0x2d, 0x4c, 0x81, 0x70, 0x92, 0x40, 0x4c, 0x00, 0x92, 0x3c,
  0x4c, 0x00, 0x92, 0x37, 0x4c, 0x83, 0x5f, 0x82, 0x2d, 0x00, 0x00, 0x82,
  0x40, 0x00, 0x00, 0x82, 0x3c, 0x00, 0x00, 0x82, 0x37, 0x00, 0x81, 0x71,
  0x92, 0x2d, 0x4c, 0x83, 0x5f, 0x82, 0x2d, 0x00, 0x83, 0x61, 0x92, 0x2d,
  0x4c, 0x83, 0x5f, 0x82, 0x2d, 0x00, 0x83, 0x61, 0x92, 0x43, 0x4c, 0x00,
  0x92, 0x3f, 0x4c, 0x00, 0x92, 0x2f, 0x4c, 0x00, 0x92, 0x39, 0x4c, 0x83,
  0x5f, 0x82, 0x43, 0x00, 0x00, 0x82, 0x3f, 0x00, 0x00, 0x82, 0x2f, 0x00,
  0x00, 0x82, 0x39, 0x00, 0x01, 0x92, 0x43, 0x4c, 0x00, 0x92, 0x3f, 0x4c,
  0x00, 0x92, 0x2f, 0x4c, 0x00, 0x92, 0x39, 0x4c, 0x81, 0x6f, 0x82, 0x43,
  0x00, 0x00, 0x82, 0x3f, 0x00, 0x00, 0x82, 0x2f, 0x00, 0x00, 0x82, 0x39,
  0x00, 0x81, 0x71, 0x92, 0x34, 0x4c, 0x81, 0x6f, 0x82, 0x34, 0x00, 0x01,
  0x92, 0x42, 0x4c, 0x00, 0x92, 0x3e, 0x4c, 0x00, 0x92, 0x37, 0x4c, 0x00,
  0x92, 0x34, 0x4c, 0x83, 0x5f, 0x82, 0x42, 0x00, 0x00, 0x82, 0x3e, 0x00,
  0x00, 0x82, 0x37, 0x00, 0x00, 0x82, 0x34, 0x00, 0x81, 0x71, 0x92, 0x34,
  0x4c, 0x83, 0x5f, 0x82, 0x34, 0x00, 0x83, 0x61, 0x92, 0x42, 0x4c, 0x00,
  0x92, 0x3d, 0x4c, 0x00, 0x92, 0x37, 0x4c, 0x00, 0x92, 0x34, 0x4c, 0x85,
  0x4f, 0x82, 0x42, 0x00, 0x00, 0x82, 0x3d, 0x00, 0x00, 0x82, 0x37, 0x00,
  0x00, 0x82, 0x34, 0x00, 0x81, 0x71, 0x92, 0x34, 0x4c, 0x83, 0x5f, 0x82,
  0x34, 0x00, 0x83, 0x61, 0x92, 0x36, 0x4c, 0x83, 0x5f, 0x82, 0x36, 0x00,
  0x83, 0x61, 0x92, 0x36, 0x4c, 0x83, 0x5f, 0x82, 0x36, 0x00, 0x83, 0x61,
  0x92, 0x2f, 0x4c, 0x83, 0x5f, 0x82, 0x2f, 0x00, 0x83, 0x61, 0x92, 0x2f,
  0x4c, 0x83, 0x5f, 0x82, 0x2f, 0x00, 0x83, 0x61, 0x92, 0x34, 0x4c, 0x83,
  0x5f, 0x82, 0x34, 0x00, 0x83, 0x61, 0x92, 0x34, 0x4c, 0x83, 0x5f, 0x82,
  0x34, 0x00, 0x83, 0x61, 0x92, 0x2f, 0x4c, 0x81, 0x6f, 0x82, 0x2f, 0x00,
  0x01, 0x92, 0x30, 0x4c, 0x84, 0x57, 0x82, 0x30, 0x00, 0x79, 0x92, 0x30,
  0x4c, 0x81, 0x6f, 0x82, 0x30, 0x00, 0x01, 0x92, 0x2f, 0x4c, 0x84, 0x57,
  0x82, 0x2f, 0x00, 0x79, 0x92, 0x34, 0x4c, 0x81, 0x6f, 0x82, 0x34, 0x00,
  0x01, 0x92, 0x42, 0x4c, 0x00, 0x92, 0x3b, 0x4c, 0x00, 0x92, 0x37, 0x4c,
  0x00, 0x92, 0x28, 0x4c, 0x83, 0x5f, 0x82, 0x42, 0x00, 0x00, 0x82, 0x3b,
  0x00, 0x00, 0x82, 0x37, 0x00, 0x00, 0x82, 0x28, 0x00, 0x01, 0x92, 0x3b,
  0x4c, 0x00, 0x92, 0x42, 0x4c, 0x00, 0x92, 0x3b, 0x4c, 0x00, 0x92, 0x40,
  0x4c, 0x83, 0x5f, 0x82, 0x3b, 0x00, 0x00, 0x82, 0x42, 0x00, 0x00, 0x82,
  0x3b, 0x00, 0x00, 0x82, 0x40, 0x00, 0x01, 0x92, 0x2f, 0x4c, 0x81, 0x6f,
  0x82, 0x2f, 0x00, 0x01, 0x92, 0x32, 0x4c, 0x81, 0x6f, 0x82, 0x32, 0x00,
  0x01, 0x92, 0x45, 0x4c, 0x81, 0x6f, 0x82, 0x45, 0x00, 0x01, 0x92, 0x42,
  0x4c, 0x00, 0x92, 0x3e, 0x4c, 0x00, 0x92, 0x37, 0x4c, 0x00, 0x92, 0x34,
  0x4c, 0x83, 0x5f, 0x82, 0x42, 0x00, 0x00, 0x82, 0x3e, 0x00, 0x00, 0x82,
  0x37, 0x00, 0x00, 0x82, 0x34, 0x00, 0x01, 0x92, 0x40, 0x4c, 0x81, 0x6f,
  0x82, 0x40, 0x00, 0x83, 0x61, 0x92, 0x34, 0x4c, 0x81, 0x6f, 0x82, 0x34,
  0x00, 0x01, 0x92, 0x36, 0x4c, 0x81, 0x6f, 0x82, 0x36, 0x00, 0x01, 0x92,
  0x37, 0x4c, 0x81, 0x6f, 0x82, 0x37, 0x00, 0x01, 0x92, 0x43, 0x4c, 0x00,
  0x92, 0x47, 0x4c, 0x00, 0x92, 0x4c, 0x4c, 0x81, 0x6f, 0x82, 0x43, 0x00,
  0x00, 0x82, 0x47, 0x00, 0x00, 0x82, 0x4c, 0x00, 0x01, 0x92, 0x42, 0x4c,
  0x00, 0x92, 0x3b, 0x4c, 0x00, 0x92, 0x37, 0x4c, 0x00, 0x92, 0x28, 0x4c,
  0x83, 0x5f, 0x82, 0x42, 0x00, 0x00, 0x82, 0x3b, 0x00, 0x00, 0x82, 0x37,
  0x00, 0x00, 0x82, 0x28, 0x00, 0x01, 0x92, 0x3b, 0x4c, 0x00, 0x92, 0x42,
  0x4c, 0x00, 0x92, 0x3b, 0x4c, 0x00, 0x92, 0x40, 0x4c, 0x83, 0x5f, 0x82,
  0x3b, 0x00, 0x00, 0x82, 0x42, 0x00, 0x00, 0x82, 0x3b, 0x00, 0x00, 0x82,
  0x40, 0x00, 0x01, 0x92, 0x3b, 0x4c, 0x00, 0x92, 0x34, 0x4c, 0x00, 0x92,
  0x2f, 0x4c, 0x81, 0x6f, 0x82, 0x3b, 0x00, 0x00, 0x82, 0x34, 0x00, 0x00,
  0x82, 0x2f, 0x00, 0x01, 0x92, 0x43, 0x4c, 0x00, 0x92, 0x43, 0x4c, 0x77,
  0x82, 0x43, 0x00, 0x00, 0x82, 0x43, 0x00, 0x01, 0x92, 0x43, 0x4c, 0x77,
  0x82, 0x43, 0x00, 0x01, 0x92, 0x4f, 0x4c, 0x00, 0x92, 0x40, 0x4c, 0x00,
  0x92, 0x58, 0x4c, 0x77, 0x82, 0x4f, 0x00, 0x00, 0x82, 0x40, 0x00, 0x00,
  0x82, 0x58, 0x00, 0x01, 0x92, 0x4f, 0x4c, 0x00, 0x92, 0x40, 0x4c, 0x00,
  0x92, 0x58, 0x4c, 0x77, 0x82, 0x4f, 0x00, 0x00, 0x82, 0x40, 0x00, 0x00,
  0x82, 0x58, 0x00, 0x01, 0x92, 0x40, 0x4c, 0x77, 0x82, 0x40, 0x00, 0x01,
  0x92, 0x40, 0x4c, 0x77, 0x82, 0x40, 0x00, 0x01, 0x92, 0x37, 0x4c, 0x77,
  0x82, 0x37, 0x00, 0x01, 0x92, 0x39, 0x4c, 0x77, 0x82, 0x39, 0x00, 0x01,
  0x92, 0x3b, 0x4c, 0x77, 0x82, 0x3b, 0x00, 0x01, 0x92, 0x4e, 0x4c, 0x77,
  0x82, 0x4e, 0x00, 0x79, 0x92, 0x47, 0x4c, 0x77, 0x82, 0x47, 0x00, 0x01,
  0x92, 0x3b, 0x4c, 0x77, 0x82, 0x3b, 0x00, 0x01, 0x92, 0x3b, 0x4c, 0x77,
  0x82, 0x3b, 0x00, 0x01, 0x92, 0x28, 0x4c, 0x77, 0x82, 0x28, 0x00, 0x01,
  0x92, 0x34, 0x4c, 0x77, 0x82, 0x34, 0x00, 0x01, 0x92, 0x32, 0x4c, 0x77,
  0x82, 0x32, 0x00, 0x01, 0x92, 0x3b, 0x4c, 0x77, 0x82, 0x3b, 0x00, 0x79,
  0x92, 0x28, 0x4c, 0x77, 0x82, 0x28, 0x00, 0x01, 0x92, 0x3b, 0x4c, 0x77,
  0x82, 0x3b, 0x00, 0x01, 0x92, 0x3e, 0x4c, 0x77, 0x82, 0x3e, 0x00, 0x01,
  0x92, 0x3b, 0x4c, 0x00, 0x92, 0x34, 0x4c, 0x00, 0x92, 0x30, 0x4c, 0x83,
  0x5f, 0x82, 0x3b, 0x00, 0x00, 0x82, 0x34, 0x00, 0x00, 0x82, 0x30, 0x00,
  0x01, 0x92, 0x3b, 0x4c, 0x00, 0x92, 0x34, 0x4c, 0x00, 0x92, 0x30, 0x4c,
  0x83, 0x5f, 0x82, 0x3b, 0x00, 0x00, 0x82, 0x34, 0x00, 0x00, 0x82, 0x30,
  0x00, 0x81, 0x71, 0x92, 0x3b, 0x4c, 0x00, 0x92, 0x3b, 0x4c, 0x77, 0x82,
  0x3b, 0x00, 0x00, 0x82, 0x3b, 0x00, 0x01, 0x92, 0x3b, 0x4c, 0x77, 0x82,
  0x3b, 0x00, 0x01, 0x92, 0x3b, 0x4c, 0x81, 0x6f, 0x82, 0x3b, 0x00, 0x01,
  0x92, 0x2f, 0x4c, 0x00, 0x92, 0x3f, 0x4c, 0x00, 0x92, 0x39, 0x4c, 0x00,
  0x92, 0x33, 0x4c, 0x81, 0x6f, 0x82, 0x2f, 0x00, 0x00, 0x82, 0x3f, 0x00,
  0x00, 0x82, 0x39, 0x00, 0x00, 0x82, 0x33, 0x00, 0x85, 0x51, 0x92, 0x36,
  0x4c, 0x83, 0x5f, 0x82, 0x36, 0x00, 0x01, 0x92, 0x3f, 0x4c, 0x00, 0x92,
  0x39, 0x4c, 0x00, 0x92, 0x33, 0x4c, 0x00, 0x92, 0x2f, 0x4c, 0x81, 0x6f,
  0x82, 0x3f, 0x00, 0x00, 0x82, 0x39, 0x00, 0x00, 0x82, 0x33, 0x00, 0x00,
  0x82, 0x2f, 0x00, 0x01, 0x92, 0x3e, 0x4c, 0x81, 0x6f, 0x82, 0x3e, 0x00,
  0x01, 0x92, 0x45, 0x4c, 0x81, 0x6f, 0x82, 0x45, 0x00, 0x01, 0x92, 0x34,
  0x4c, 0x81, 0x6f, 0x82, 0x34, 0x00, 0x01, 0x92, 0x42, 0x4c, 0x81, 0x6f,
  0x82, 0x42, 0x00, 0x01, 0x92, 0x28, 0x4c, 0x81, 0x6f, 0x82, 0x28, 0x00,
  0x01, 0x92, 0x34, 0x4c, 0x77, 0x82, 0x34, 0x00, 0x01, 0x92, 0x37, 0x4c,
  0x77, 0x82, 0x37, 0x00, 0x01, 0x92, 0x3e, 0x4c, 0x77, 0x82, 0x3e, 0x00,
  0x01, 0x92, 0x37, 0x4c, 0x77, 0x82, 0x37, 0x00, 0x01, 0x92, 0x42, 0x4c,
  0x77, 0x82, 0x42, 0x00, 0x01, 0x92, 0x28, 0x4c, 0x77, 0x82, 0x28, 0x00,
  0x79, 0x92, 0x37, 0x4c, 0x77, 0x82, 0x37, 0x00, 0x01, 0x92, 0x37, 0x4c,
  0x77, 0x82, 0x37, 0x00, 0x01, 0x92, 0x3d, 0x4c, 0x77, 0x82, 0x3d, 0x00,
  0x01, 0x92, 0x42, 0x4c, 0x77, 0x82, 0x42, 0x00, 0x01, 0x92, 0x37, 0x4c,
  0x77, 0x82, 0x37, 0x00, 0x01, 0x92, 0x37, 0x4c, 0x77, 0x82, 0x37, 0x00,
  0x01, 0x92, 0x40, 0x4c, 0x77, 0x82, 0x40, 0x00, 0x79, 0x92, 0x2b, 0x4c,
  0x77, 0x82, 0x2b, 0x00, 0x01, 0x92, 0x31, 0x4c, 0x77, 0x82, 0x31, 0x00,
  0x01, 0x92, 0x36, 0x4c, 0x77, 0x82, 0x36, 0x00, 0x01, 0x92, 0x34, 0x4c,
  0x77, 0x82, 0x34, 0x00, 0x01, 0x92, 0x2f, 0x4c, 0x77, 0x82, 0x2f, 0x00,
  0x79, 0x92, 0x37, 0x4c, 0x77, 0x82, 0x37, 0x00, 0x79, 0x92, 0x2b, 0x4c,
  0x77, 0x82, 0x2b, 0x00, 0x01, 0x92, 0x31, 0x4c, 0x77, 0x82, 0x31, 0x00,
  0x01, 0x92, 0x36, 0x4c, 0x77, 0x82, 0x36, 0x00, 0x01, 0x92, 0x47, 0x4c,
  0x00, 0x92, 0x3b, 0x4c, 0x00, 0x92, 0x34, 0x4c, 0x00, 0x92, 0x30, 0x4c,
  0x83, 0x5f, 0x82, 0x47, 0x00, 0x00, 0x82, 0x3b, 0x00, 0x00, 0x82, 0x34,
  0x00, 0x00, 0x82, 0x30, 0x00, 0x01, 0x92, 0x4a, 0x4c, 0x00, 0x92, 0x3b,
  0x4c, 0x00, 0x92, 0x34, 0x4c, 0x00, 0x92, 0x30, 0x4c, 0x83, 0x5f, 0x82,
  0x4a, 0x00, 0x00, 0x82, 0x3b, 0x00, 0x00, 0x82, 0x34, 0x00, 0x00, 0x82,
  0x30, 0x00, 0x81, 0x71, 0x92, 0x3b, 0x4c, 0x00, 0x92, 0x3b, 0x4c, 0x77,
  0x82, 0x3b, 0x00, 0x00, 0x82, 0x3b, 0x00, 0x01, 0x92, 0x3b, 0x4c, 0x77,
  0x82, 0x3b, 0x00, 0x01, 0x92, 0x3b, 0x4c, 0x81, 0x6f, 0x82, 0x3b, 0x00,
  0x01, 0x92, 0x2f, 0x4c, 0x00, 0x92, 0x3f, 0x4c, 0x00, 0x92, 0x39, 0x4c,
  0x00, 0x92, 0x33, 0x4c, 0x83, 0x5f, 0x82, 0x2f, 0x00, 0x00, 0x82, 0x3f,
  0x00, 0x00, 0x82, 0x39, 0x00, 0x00, 0x82, 0x33, 0x00, 0x01, 0x92, 0x37,
  0x4c, 0x83, 0x5f, 0x82, 0x37, 0x00, 0x01, 0x92, 0x36, 0x4c, 0x85, 0x4f,
  0x82, 0x36, 0x00, 0x01, 0x92, 0x32, 0x4c, 0x81, 0x6f, 0x82, 0x32, 0x00,
  0x01, 0x92, 0x39, 0x4c, 0x83, 0x5f, 0x82, 0x39, 0x00, 0x01, 0x92, 0x36,
  0x4c, 0x81, 0x6f, 0x82, 0x36, 0x00, 0x01, 0x92, 0x2f, 0x4c, 0x81, 0x6f,
  0x82, 0x2f, 0x00, 0x01, 0x92, 0x28, 0x4c, 0x81, 0x6f, 0x82, 0x28, 0x00,
  0x01, 0x92, 0x3b, 0x4c, 0x00, 0x92, 0x34, 0x4c, 0x00, 0x92, 0x2f, 0x4c,
  0x81, 0x6f, 0x82, 0x3b, 0x00, 0x00, 0x82, 0x34, 0x00, 0x00, 0x82, 0x2f,
  0x00, 0x01, 0x92, 0x43, 0x4c, 0x00, 0x92, 0x43, 0x4c, 0x77, 0x82, 0x43,
  0x00, 0x00, 0x82, 0x43, 0x00, 0x01, 0x92, 0x43, 0x4c, 0x77, 0x82, 0x43,
  0x00, 0x01, 0x92, 0x4f, 0x4c, 0x00, 0x92, 0x40, 0x4c, 0x00, 0x92, 0x58,
  0x4c, 0x77, 0x82, 0x4f, 0x00, 0x00, 0x82, 0x40, 0x00, 0x00, 0x82, 0x58,
  0x00, 0x01, 0x92, 0x4f, 0x4c, 0x00, 0x92, 0x40, 0x4c, 0x00, 0x92, 0x58,
  0x4c, 0x77, 0x82, 0x4f, 0x00, 0x00, 0x82, 0x40, 0x00, 0x00, 0x82, 0x58,
  0x00, 0x01, 0x92, 0x40, 0x4c, 0x77, 0x82, 0x40, 0x00, 0x01, 0x92, 0x40,
  0x4c, 0x77, 0x82, 0x40, 0x00, 0x01, 0x92, 0x30, 0x4c, 0x77, 0x82, 0x30,
  0x00, 0x01, 0x92, 0x3a, 0x4c, 0x77, 0x82, 0x3a, 0x00, 0x01, 0x92, 0x45,
  0x4c, 0x77, 0x82, 0x45, 0x00, 0x01, 0x92, 0x28, 0x4c, 0x77, 0x82, 0x28,
  0x00, 0x79, 0x92, 0x30, 0x4c, 0x77, 0x82, 0x30, 0x00, 0x01, 0x92, 0x2f,
  0x4c, 0x77, 0x82, 0x2f, 0x00, 0x01, 0x92, 0x33, 0x4c, 0x77, 0x82, 0x33,
  0x00, 0x01, 0x92, 0x39, 0x4c, 0x77, 0x82, 0x39, 0x00, 0x01, 0x92, 0x37,
  0x4c, 0x77, 0x82, 0x37, 0x00, 0x79, 0x92, 0x2f, 0x4c, 0x77, 0x82, 0x2f,
  0x00, 0x01, 0x92, 0x33, 0x4c, 0x77, 0x82, 0x33, 0x00, 0x01, 0x92, 0x39,
  0x4c, 0x77, 0x82, 0x39, 0x00, 0x01, 0x92, 0x43, 0x4c, 0x77, 0x82, 0x43,
  0x00, 0x01, 0x92, 0x2f, 0x4c, 0x77, 0x82, 0x2f, 0x00, 0x01, 0x92, 0x40,
  0x4c, 0x77, 0x82, 0x40, 0x00, 0x01, 0x92, 0x43, 0x4c, 0x77, 0x82, 0x43,
  0x00, 0x01, 0x92, 0x4a, 0x4c, 0x77, 0x82, 0x4a, 0x00, 0x01, 0x92, 0x4e,
  0x4c, 0x77, 0x82, 0x4e, 0x00, 0x79, 0x92, 0x28, 0x4c, 0x77, 0x82, 0x28,
  0x00, 0x01, 0x92, 0x34, 0x4c, 0x77, 0x82, 0x34, 0x00, 0x01, 0x92, 0x37,
  0x4c, 0x77, 0x82, 0x37, 0x00, 0x01, 0x92, 0x42, 0x4c, 0x77, 0x82, 0x42,
  0x00, 0x01, 0x92, 0x42, 0x4c, 0x77, 0x82, 0x42, 0x00, 0x01, 0x92, 0x37,
  0x4c, 0x77, 0x82, 0x37, 0x00, 0x01, 0x92, 0x3e, 0x4c, 0x77, 0x82, 0x3e,
  0x00, 0x79, 0x92, 0x42, 0x4c, 0x77, 0x82, 0x42, 0x00, 0x01, 0x92, 0x28,
  0x4c, 0x77, 0x82, 0x28, 0x00, 0x01, 0x92, 0x37, 0x4c, 0x77, 0x82, 0x37,
  0x00, 0x01, 0x92, 0x3e, 0x4c, 0x77, 0x82, 0x3e, 0x00, 0x81, 0x71, 0x92,
  0x4e, 0x4c, 0x77, 0x82, 0x4e, 0x00, 0x01, 0x92, 0x40, 0x4c, 0x77, 0x82,
  0x40, 0x00, 0x01, 0x92, 0x43, 0x4c, 0x77, 0x82, 0x43, 0x00, 0x01, 0x92,
  0x41, 0x4c, 0x77, 0x82, 0x41, 0x00, 0x01, 0x92, 0x44, 0x4c, 0x77, 0x82,
  0x44, 0x00, 0x01, 0x92, 0x4b, 0x4c, 0x77, 0x82, 0x4b, 0x00, 0x01, 0x92,
  0x4f, 0x4c, 0x77, 0x82, 0x4f, 0x00, 0x79, 0x92, 0x41, 0x4c, 0x77, 0x82,
  0x41, 0x00, 0x01, 0x92, 0x44, 0x4c, 0x77, 0x82, 0x44, 0x00, 0x01, 0x92,
  0x4b, 0x4c, 0x77, 0x82, 0x4b, 0x00, 0x01, 0x92, 0x4f, 0x4c, 0x77, 0x82,
  0x4f, 0x00, 0x01, 0x92, 0x41, 0x4c, 0x77, 0x82, 0x41, 0x00, 0x01, 0x92,
  0x28, 0x4c, 0x77, 0x82, 0x28, 0x00, 0x01, 0x92, 0x37, 0x4c, 0x77, 0x82,
  0x37, 0x00, 0x01, 0x92, 0x3e, 0x4c, 0x77, 0x82, 0x3e, 0x00, 0x01, 0x92,
  0x42, 0x4c, 0x77, 0x82, 0x42, 0x00, 0x79, 0x92, 0x40, 0x4c, 0x77, 0x82,
  0x40, 0x00, 0x01, 0x92, 0x43, 0x4c, 0x77, 0x82, 0x43, 0x00, 0x01, 0x92,
  0x4a, 0x4c, 0x77, 0x82, 0x4a, 0x00, 0x01, 0x92, 0x4e, 0x4c, 0x77, 0x82,
  0x4e, 0x00, 0x01, 0x92, 0x40, 0x4c, 0x77, 0x82, 0x40, 0x00, 0x01, 0x92,
  0x43, 0x4c, 0x77, 0x82, 0x43, 0x00, 0x01, 0x92, 0x4a, 0x4c, 0x77, 0x82,
  0x4a, 0x00, 0x79, 0x92, 0x4e, 0x4c, 0x77, 0x82, 0x4e, 0x00, 0x01, 0x92,
  0x40, 0x4c, 0x77, 0x82, 0x40, 0x00, 0x01, 0x92, 0x43, 0x4c, 0x77, 0x82,
  0x43, 0x00, 0x01, 0x92, 0x3b, 0x4c, 0x77, 0x82, 0x3b, 0x00, 0x01, 0x92,
  0x43, 0x4c, 0x77, 0x82, 0x43, 0x00, 0x01, 0x92, 0x4d, 0x4c, 0x77, 0x82,
  0x4d, 0x00, 0x01, 0x92, 0x4a, 0x4c, 0x77, 0x82, 0x4a, 0x00, 0x79, 0x92,
  0x3b, 0x4c, 0x77, 0x82, 0x3b, 0x00, 0x01, 0x92, 0x44, 0x4c, 0x77, 0x82,
  0x44, 0x00, 0x01, 0x92, 0x4f, 0x4c, 0x77, 0x82, 0x4f, 0x00, 0x01, 0x92,
  0x40, 0x4c, 0x77, 0x82, 0x40, 0x00, 0x01, 0x92, 0x4a, 0x4c, 0x77, 0x82,
  0x4a, 0x00, 0x79, 0x92, 0x38, 0x4c, 0x77, 0x82, 0x38, 0x00, 0x79, 0x92,
  0x28, 0x4c, 0x77, 0x82, 0x28, 0x00, 0x01, 0x92, 0x3e, 0x4c, 0x77, 0x82,
  0x3e, 0x00, 0x01, 0x92, 0x38, 0x4c, 0x77, 0x82, 0x38, 0x00, 0x01, 0x92,
  0x37, 0x4c, 0x77, 0x82, 0x37, 0x00, 0x01, 0x92, 0x3c, 0x4c, 0x77, 0x82,
  0x3c, 0x00, 0x01, 0x92, 0x45, 0x4c, 0x77, 0x82, 0x45, 0x00, 0x01, 0x92,
  0x40, 0x4c, 0x77, 0x82, 0x40, 0x00, 0x79, 0x92, 0x2b, 0x4c, 0x77, 0x82,
  0x2b, 0x00, 0x01, 0x92, 0x30, 0x4c, 0x77, 0x82, 0x30, 0x00, 0x01, 0x92,
  0x39, 0x4c, 0x77, 0x82, 0x39, 0x00, 0x01, 0x92, 0x34, 0x4c, 0x77, 0x82,
  0x34, 0x00, 0x01, 0x92, 0x39, 0x4c, 0x77, 0x82, 0x39, 0x00, 0x01, 0x92,
  0x3c, 0x4c, 0x77, 0x82, 0x3c, 0x00, 0x01, 0x92, 0x45, 0x4c, 0x77, 0x82,
  0x45, 0x00, 0x79, 0x92, 0x40, 0x4c, 0x77, 0x82, 0x40, 0x00, 0x01, 0x92,
  0x37, 0x4c, 0x77, 0x82, 0x37, 0x00, 0x01, 0x92, 0x3c, 0x4c, 0x77, 0x82,
  0x3c, 0x00, 0x01, 0x92, 0x36, 0x4c, 0x77, 0x82, 0x36, 0x00, 0x01, 0x92,
  0x3c, 0x4c, 0x77, 0x82, 0x3c, 0x00, 0x01, 0x92, 0x45, 0x4c, 0x77, 0x82,
  0x45, 0x00, 0x01, 0x92, 0x40, 0x4c, 0x77, 0x82, 0x40, 0x00, 0x79, 0x92,
  0x36, 0x4c, 0x77, 0x82, 0x36, 0x00, 0x01, 0x92, 0x2f, 0x4c, 0x77, 0x82,
  0x2f, 0x00, 0x01, 0x92, 0x39, 0x4c, 0x77, 0x82, 0x39, 0x00, 0x01, 0x92,
  0x3f, 0x4c, 0x77, 0x82, 0x3f, 0x00, 0x01, 0x92, 0x42, 0x4c, 0x77, 0x82,
  0x42, 0x00, 0x79, 0x92, 0x2f, 0x4c, 0x77, 0x82, 0x2f, 0x00, 0x01, 0x92,
  0x39, 0x4c, 0x77, 0x82, 0x39, 0x00, 0x01, 0x92, 0x3f, 0x4c, 0x77, 0x82,
  0x3f, 0x00, 0x01, 0x92, 0x42, 0x4c, 0x77, 0x82, 0x42, 0x00, 0x01, 0x92,
  0x3b, 0x4c, 0x77, 0x82, 0x3b, 0x00, 0x01, 0x92, 0x34, 0x4c, 0x77, 0x82,
  0x34, 0x00, 0x01, 0x92, 0x37, 0x4c, 0x77, 0x82, 0x37, 0x00, 0x01, 0x92,
  0x3e, 0x4c, 0x77, 0x82, 0x3e, 0x00, 0x01, 0x92, 0x42, 0x4c, 0x77, 0x82,
  0x42, 0x00, 0x79, 0x92, 0x4e, 0x4c, 0x77, 0x82, 0x4e, 0x00, 0x01, 0x92,
  0x4a, 0x4c, 0x77, 0x82, 0x4a, 0x00, 0x01, 0x92, 0x34, 0x4c, 0x77, 0x82,
  0x34, 0x00, 0x01, 0x92, 0x37, 0x4c, 0x77, 0x82, 0x37, 0x00, 0x01, 0x92,
  0x4e, 0x4c, 0x77, 0x82, 0x4e, 0x00, 0x01, 0x92, 0x4a, 0x4c, 0x77, 0x82,
  0x4a, 0x00, 0x01, 0x92, 0x34, 0x4c, 0x77, 0x82, 0x34, 0x00, 0x79, 0x92,
  0x43, 0x4c, 0x77, 0x82, 0x43, 0x00, 0x01, 0x92, 0x34, 0x4c, 0x77, 0x82,
  0x34, 0x00, 0x01, 0x92, 0x37, 0x4c, 0x77, 0x82, 0x37, 0x00, 0x01, 0x92,
  0x42, 0x4c, 0x77, 0x82, 0x42, 0x00, 0x01, 0x92, 0x3d, 0x4c, 0x77, 0x82,
  0x3d, 0x00, 0x79, 0x92, 0x34, 0x4c, 0x77, 0x82, 0x34, 0x00, 0x01, 0x92,
  0x37, 0x4c, 0x77, 0x82, 0x37, 0x00, 0x01, 0x92, 0x42, 0x4c, 0x77, 0x82,
  0x42, 0x00, 0x01, 0x92, 0x37, 0x4c, 0x77, 0x82, 0x37, 0x00, 0x01, 0x92,
  0x3d, 0x4c, 0x77, 0x82, 0x3d, 0x00, 0x01, 0x92, 0x42, 0x4c, 0x77, 0x82,
  0x42, 0x00, 0x01, 0x92, 0x34, 0x4c, 0x77, 0x82, 0x34, 0x00, 0x79, 0x92,
  0x3d, 0x4c, 0x77, 0x82, 0x3d, 0x00, 0x01, 0x92, 0x34, 0x4c, 0x77, 0x82,
  0x34, 0x00, 0x01, 0x92, 0x37, 0x4c, 0x77, 0x82, 0x37, 0x00, 0x01, 0x92,
  0x42, 0x4c, 0x77, 0x82, 0x42, 0x00, 0x79, 0x92, 0x30, 0x4c, 0x77, 0x82,
  0x30, 0x00, 0x01, 0x92, 0x3a, 0x4c, 0x77, 0x82, 0x3a, 0x00, 0x01, 0x92,
  0x45, 0x4c, 0x77, 0x82, 0x45, 0x00, 0x01, 0x92, 0x40, 0x4c, 0x77, 0x82,
  0x40, 0x00, 0x79, 0x92, 0x30, 0x4c, 0x77, 0x82, 0x30, 0x00, 0x01, 0x92,
  0x3a, 0x4c, 0x77, 0x82, 0x3a, 0x00, 0x01, 0x92, 0x45, 0x4c, 0x77, 0x82,
  0x45, 0x00, 0x01, 0x92, 0x40, 0x4c, 0x77, 0x82, 0x40, 0x00, 0x01, 0x92,
  0x30, 0x4c, 0x77, 0x82, 0x30, 0x00, 0x01, 0x92, 0x3a, 0x4c, 0x77, 0x82,
  0x3a, 0x00, 0x01, 0x92, 0x45, 0x4c, 0x77, 0x82, 0x45, 0x00, 0x79, 0x92,
  0x40, 0x4c, 0x77, 0x82, 0x40, 0x00, 0x01, 0x92, 0x30, 0x4c, 0x77, 0x82,
  0x30, 0x00, 0x01, 0x92, 0x3a, 0x4c, 0x77, 0x82, 0x3a, 0x00, 0x01, 0x92,
  0x2f, 0x4c, 0x77, 0x82, 0x2f, 0x00, 0x01, 0x92, 0x33, 0x4c, 0x77, 0x82,
  0x33, 0x00, 0x01, 0x92, 0x39, 0x4c, 0x77, 0x82, 0x39, 0x00, 0x01, 0x92,
  0x43, 0x4c, 0x77, 0x82, 0x43, 0x00, 0x79, 0x92, 0x2f, 0x4c, 0x77, 0x82,
  0x2f, 0x00, 0x01, 0x92, 0x33, 0x4c, 0x77, 0x82, 0x33, 0x00, 0x01, 0x92,
  0x39, 0x4c, 0x77, 0x82, 0x39, 0x00, 0x01, 0x92, 0x43, 0x4c, 0x77, 0x82,
  0x43, 0x00, 0x01, 0x92, 0x2f, 0x4c, 0x77, 0x82, 0x2f, 0x00, 0x01, 0x92,
  0x33, 0x4c, 0x77, 0x82, 0x33, 0x00, 0x01, 0x92, 0x39, 0x4c, 0x77, 0x82,
  0x39, 0x00, 0x79, 0x92, 0x43, 0x4c, 0x77, 0x82, 0x43, 0x00, 0x01, 0x92,
  0x2f, 0x4c, 0x77, 0x82, 0x2f, 0x00, 0x01, 0x92, 0x33, 0x4c, 0x77, 0x82,
  0x33, 0x00, 0x01, 0x92, 0x4a, 0x4c, 0x77, 0x82, 0x4a, 0x00, 0x01, 0x92,
  0x34, 0x4c, 0x77, 0x82, 0x34, 0x00, 0x01, 0x92, 0x43, 0x4c, 0x77, 0x82,
  0x43, 0x00, 0x01, 0x92, 0x40, 0x4c, 0x77, 0x82, 0x40, 0x00, 0x79, 0x92,
  0x4a, 0x4c, 0x77, 0x82, 0x4a, 0x00, 0x01, 0x92, 0x34, 0x4c, 0x77, 0x82,
  0x34, 0x00, 0x01, 0x92, 0x37, 0x4c, 0x77, 0x82, 0x37, 0x00, 0x01, 0x92,
  0x40, 0x4c, 0x77, 0x82, 0x40, 0x00, 0x01, 0x92, 0x4a, 0x4c, 0x77, 0x82,
  0x4a, 0x00, 0x01, 0x92, 0x34, 0x4c, 0x77, 0x82, 0x34, 0x00, 0x01, 0x92,
  0x40, 0x4c, 0x77, 0x82, 0x40, 0x00, 0x79, 0x92, 0x43, 0x4c, 0x77, 0x82,
  0x43, 0x00, 0x01, 0x92, 0x4a, 0x4c, 0x77, 0x82, 0x4a, 0x00, 0x01, 0x92,
  0x34, 0x4c, 0x77, 0x82, 0x34, 0x00, 0x01, 0x92, 0x30, 0x4c, 0x77, 0x82,
  0x30, 0x00, 0x01, 0x92, 0x3a, 0x4c, 0x77, 0x82, 0x3a, 0x00, 0x01, 0x92,
  0x45, 0x4c, 0x77, 0x82, 0x45, 0x00, 0x01, 0x92, 0x40, 0x4c, 0x77, 0x82,
  0x40, 0x00, 0x79, 0x92, 0x30, 0x4c, 0x77, 0x82, 0x30, 0x00, 0x01, 0x92,
  0x2f, 0x4c, 0x77, 0x82, 0x2f, 0x00, 0x01, 0x92, 0x33, 0x4c, 0x77, 0x82,
  0x33, 0x00, 0x01, 0x92, 0x39, 0x4c, 0x77, 0x82, 0x39, 0x00, 0x01, 0x92,
  0x43, 0x4c, 0x77, 0x82, 0x43, 0x00, 0x79, 0x92, 0x2f, 0x4c, 0x77, 0x82,
  0x2f, 0x00, 0x01, 0x92, 0x33, 0x4c, 0x77, 0x82, 0x33, 0x00, 0x01, 0x92,
  0x39, 0x4c, 0x77, 0x82, 0x39, 0x00, 0x01, 0x92, 0x43, 0x4c, 0x77, 0x82,
  0x43, 0x00, 0x01, 0x92, 0x2f, 0x4c, 0x77, 0x82, 0x2f, 0x00, 0x6d, 0xff,
  0x2f, 0x00
};
unsigned int playing_god_multi_mid_len = 15926;
